<svg width="1920" height="461" viewBox="0 0 1920 461" fill="none" xmlns="http://www.w3.org/2000/svg">
<path opacity="0.7" d="M915 282V461" stroke="#2F2F2F" stroke-width="2"/>
<path opacity="0.7" d="M945 282V461" stroke="#2F2F2F" stroke-width="2"/>
<path opacity="0.7" d="M975 282V461" stroke="#2F2F2F" stroke-width="2"/>
<path opacity="0.7" d="M1005 282V461" stroke="#2F2F2F" stroke-width="2"/>
<path opacity="0.7" d="M1069.5 130.5H1342.73C1354.62 130.5 1365.9 125.211 1373.5 116.068L1413.5 67.9319C1421.1 58.7888 1432.38 53.5 1444.27 53.5H1535.5" stroke="#2F2F2F" stroke-width="2"/>
<path opacity="0.7" d="M1069.5 191H1276.36C1286.72 191 1296.66 195.014 1304.12 202.197L1418.38 312.303C1425.84 319.486 1435.78 323.5 1446.14 323.5H1535.5" stroke="#2F2F2F" stroke-width="2"/>
<path opacity="0.7" d="M1069.5 161H1286.83C1296.9 161 1306.61 164.803 1314 171.65L1358.5 212.85C1365.89 219.697 1375.6 223.5 1385.67 223.5H1685.5" stroke="#2F2F2F" stroke-width="2"/>
<path opacity="0.7" d="M1069.5 221H1264.37C1275.89 221 1286.86 225.969 1294.45 234.634L1448.05 409.866C1455.64 418.531 1466.61 423.5 1478.13 423.5H1920" stroke="#2F2F2F" stroke-width="2"/>
<rect width="30" height="10" rx="4" transform="matrix(-1 0 0 1 1541 49)" fill="#141414"/>
<rect x="-0.75" y="0.75" width="28.5" height="8.5" rx="3.25" transform="matrix(-1 0 0 1 1539.5 49)" stroke="url(#paint0_linear_242_2709)" stroke-opacity="0.3" stroke-width="1.5"/>
<rect width="30" height="10" rx="4" transform="matrix(-1 0 0 1 1541 319)" fill="#141414"/>
<rect x="-0.75" y="0.75" width="28.5" height="8.5" rx="3.25" transform="matrix(-1 0 0 1 1539.5 319)" stroke="url(#paint1_linear_242_2709)" stroke-opacity="0.3" stroke-width="1.5"/>
<rect width="30" height="10" rx="4" transform="matrix(-1 0 0 1 1691 219)" fill="#141414"/>
<rect x="-0.75" y="0.75" width="28.5" height="8.5" rx="3.25" transform="matrix(-1 0 0 1 1689.5 219)" stroke="url(#paint2_linear_242_2709)" stroke-opacity="0.3" stroke-width="1.5"/>
<path opacity="0.7" d="M850.5 130.5H577.266C565.377 130.5 554.104 125.211 546.505 116.068L506.495 67.9319C498.896 58.7888 487.623 53.5 475.734 53.5H384.5" stroke="#2F2F2F" stroke-width="2"/>
<path opacity="0.7" d="M850.5 191H643.636C633.284 191 623.335 195.014 615.881 202.197L501.619 312.303C494.165 319.486 484.216 323.5 473.864 323.5H384.5" stroke="#2F2F2F" stroke-width="2"/>
<path opacity="0.7" d="M850.5 161H633.175C623.098 161 613.392 164.803 605.998 171.65L561.502 212.85C554.108 219.697 544.402 223.5 534.325 223.5H234.5" stroke="#2F2F2F" stroke-width="2"/>
<path opacity="0.7" d="M850.5 221H655.63C644.107 221 633.145 225.969 625.55 234.634L471.95 409.866C464.355 418.531 453.393 423.5 441.87 423.5H0" stroke="#2F2F2F" stroke-width="2"/>
<rect x="379" y="49" width="30" height="10" rx="4" fill="#141414"/>
<rect x="379.75" y="49.75" width="28.5" height="8.5" rx="3.25" stroke="url(#paint3_linear_242_2709)" stroke-opacity="0.3" stroke-width="1.5"/>
<rect x="379" y="319" width="30" height="10" rx="4" fill="#141414"/>
<rect x="379.75" y="319.75" width="28.5" height="8.5" rx="3.25" stroke="url(#paint4_linear_242_2709)" stroke-opacity="0.3" stroke-width="1.5"/>
<rect x="229" y="219" width="30" height="10" rx="4" fill="#141414"/>
<rect x="229.75" y="219.75" width="28.5" height="8.5" rx="3.25" stroke="url(#paint5_linear_242_2709)" stroke-opacity="0.3" stroke-width="1.5"/>
<rect x="1054" y="126" width="30" height="10" rx="4" fill="#141414"/>
<rect x="1054.75" y="126.75" width="28.5" height="8.5" rx="3.25" stroke="url(#paint6_linear_242_2709)" stroke-opacity="0.3" stroke-width="1.5"/>
<rect x="1054" y="156" width="30" height="10" rx="4" fill="#141414"/>
<rect x="1054.75" y="156.75" width="28.5" height="8.5" rx="3.25" stroke="url(#paint7_linear_242_2709)" stroke-opacity="0.3" stroke-width="1.5"/>
<rect x="1054" y="186" width="30" height="10" rx="4" fill="#141414"/>
<rect x="1054.75" y="186.75" width="28.5" height="8.5" rx="3.25" stroke="url(#paint8_linear_242_2709)" stroke-opacity="0.3" stroke-width="1.5"/>
<rect x="1054" y="216" width="30" height="10" rx="4" fill="#141414"/>
<rect x="1054.75" y="216.75" width="28.5" height="8.5" rx="3.25" stroke="url(#paint9_linear_242_2709)" stroke-opacity="0.3" stroke-width="1.5"/>
<rect x="1010" y="268" width="30" height="10" rx="4" transform="rotate(90 1010 268)" fill="#141414"/>
<rect x="1009.25" y="268.75" width="28.5" height="8.5" rx="3.25" transform="rotate(90 1009.25 268.75)" stroke="url(#paint10_linear_242_2709)" stroke-opacity="0.3" stroke-width="1.5"/>
<rect x="980" y="268" width="30" height="10" rx="4" transform="rotate(90 980 268)" fill="#141414"/>
<rect x="979.25" y="268.75" width="28.5" height="8.5" rx="3.25" transform="rotate(90 979.25 268.75)" stroke="url(#paint11_linear_242_2709)" stroke-opacity="0.3" stroke-width="1.5"/>
<rect x="950" y="268" width="30" height="10" rx="4" transform="rotate(90 950 268)" fill="#141414"/>
<rect x="949.25" y="268.75" width="28.5" height="8.5" rx="3.25" transform="rotate(90 949.25 268.75)" stroke="url(#paint12_linear_242_2709)" stroke-opacity="0.3" stroke-width="1.5"/>
<rect x="920" y="268" width="30" height="10" rx="4" transform="rotate(90 920 268)" fill="#141414"/>
<rect x="919.25" y="268.75" width="28.5" height="8.5" rx="3.25" transform="rotate(90 919.25 268.75)" stroke="url(#paint13_linear_242_2709)" stroke-opacity="0.3" stroke-width="1.5"/>
<rect width="30" height="10" rx="4" transform="matrix(-1 0 0 1 866 126)" fill="#141414"/>
<rect x="-0.75" y="0.75" width="28.5" height="8.5" rx="3.25" transform="matrix(-1 0 0 1 864.5 126)" stroke="url(#paint14_linear_242_2709)" stroke-opacity="0.3" stroke-width="1.5"/>
<rect width="30" height="10" rx="4" transform="matrix(-1 0 0 1 866 156)" fill="#141414"/>
<rect x="-0.75" y="0.75" width="28.5" height="8.5" rx="3.25" transform="matrix(-1 0 0 1 864.5 156)" stroke="url(#paint15_linear_242_2709)" stroke-opacity="0.3" stroke-width="1.5"/>
<rect width="30" height="10" rx="4" transform="matrix(-1 0 0 1 866 186)" fill="#141414"/>
<rect x="-0.75" y="0.75" width="28.5" height="8.5" rx="3.25" transform="matrix(-1 0 0 1 864.5 186)" stroke="url(#paint16_linear_242_2709)" stroke-opacity="0.3" stroke-width="1.5"/>
<rect width="30" height="10" rx="4" transform="matrix(-1 0 0 1 866 216)" fill="#141414"/>
<rect x="-0.75" y="0.75" width="28.5" height="8.5" rx="3.25" transform="matrix(-1 0 0 1 864.5 216)" stroke="url(#paint17_linear_242_2709)" stroke-opacity="0.3" stroke-width="1.5"/>
<g filter="url(#filter0_d_242_2709)">
<rect x="860" y="74" width="200" height="200" rx="50" fill="#141414"/>
<rect x="861" y="75" width="198" height="198" rx="49" stroke="#3C3C3C" stroke-opacity="0.3" stroke-width="2"/>
</g>
<path d="M906.589 218L929.405 131.2H957.925L980.741 218H963.877L959.165 198.904H928.165L923.453 218H906.589ZM932.009 183.776H955.321L944.781 141.492H942.549L932.009 183.776ZM991.131 218V131.2H1007.5V218H991.131Z" fill="url(#paint18_linear_242_2709)"/>
<g filter="url(#filter1_d_242_2709)">
<rect x="1535" y="4" width="100" height="100" rx="30" fill="#141414"/>
<rect x="1536" y="5" width="98" height="98" rx="29" stroke="#3C3C3C" stroke-opacity="0.3" stroke-width="2"/>
</g>
<path d="M1579.7 70.616C1577.38 70.616 1575.33 70.2053 1573.54 69.384C1571.75 68.5627 1570.34 67.36 1569.31 65.776C1568.32 64.1627 1567.82 62.212 1567.82 59.924V58.824H1572.53V59.924C1572.53 62.0947 1573.17 63.7227 1574.46 64.808C1575.78 65.8933 1577.53 66.436 1579.7 66.436C1581.9 66.436 1583.56 65.9813 1584.67 65.072C1585.78 64.1333 1586.34 62.9307 1586.34 61.464C1586.34 60.496 1586.08 59.704 1585.55 59.088C1585.02 58.472 1584.27 57.988 1583.31 57.636C1582.34 57.2547 1581.18 56.9027 1579.83 56.58L1578.2 56.184C1576.24 55.7147 1574.52 55.1427 1573.05 54.468C1571.62 53.764 1570.5 52.84 1569.71 51.696C1568.92 50.552 1568.52 49.0853 1568.52 47.296C1568.52 45.4773 1568.96 43.9227 1569.84 42.632C1570.75 41.3413 1572 40.344 1573.58 39.64C1575.17 38.936 1577.03 38.584 1579.17 38.584C1581.31 38.584 1583.22 38.9507 1584.89 39.684C1586.59 40.4173 1587.93 41.5027 1588.89 42.94C1589.86 44.3773 1590.35 46.1813 1590.35 48.352V49.936H1585.64V48.352C1585.64 47.032 1585.36 45.9613 1584.8 45.14C1584.27 44.3187 1583.53 43.7173 1582.56 43.336C1581.59 42.9547 1580.46 42.764 1579.17 42.764C1577.29 42.764 1575.83 43.16 1574.77 43.952C1573.74 44.7147 1573.23 45.7853 1573.23 47.164C1573.23 48.1027 1573.45 48.88 1573.89 49.496C1574.36 50.0827 1575.03 50.5667 1575.91 50.948C1576.79 51.3293 1577.89 51.6667 1579.21 51.96L1580.84 52.356C1582.84 52.796 1584.6 53.368 1586.12 54.072C1587.65 54.7467 1588.85 55.6707 1589.73 56.844C1590.61 58.0173 1591.05 59.528 1591.05 61.376C1591.05 63.224 1590.58 64.8373 1589.64 66.216C1588.73 67.5947 1587.43 68.68 1585.73 69.472C1584.02 70.2347 1582.02 70.616 1579.7 70.616ZM1598.9 70.616C1597.87 70.616 1597.01 70.2787 1596.3 69.604C1595.63 68.9293 1595.29 68.064 1595.29 67.008C1595.29 65.952 1595.63 65.1013 1596.3 64.456C1597.01 63.7813 1597.87 63.444 1598.9 63.444C1599.92 63.444 1600.78 63.7813 1601.45 64.456C1602.15 65.1307 1602.51 65.9813 1602.51 67.008C1602.51 68.064 1602.15 68.9293 1601.45 69.604C1600.78 70.2787 1599.92 70.616 1598.9 70.616Z" fill="url(#paint19_linear_242_2709)"/>
<g filter="url(#filter2_d_242_2709)">
<rect x="1685" y="184" width="80" height="80" rx="20" fill="#141414"/>
<rect x="1686" y="185" width="78" height="78" rx="19" stroke="#3C3C3C" stroke-opacity="0.3" stroke-width="2"/>
</g>
<path d="M1733.21 231.533C1731.87 231.533 1730.55 231.533 1729.22 231.533C1728.77 231.567 1728.31 231.506 1727.88 231.354C1727.45 231.202 1727.05 230.963 1726.72 230.651C1726.38 230.34 1726.12 229.962 1725.93 229.542C1725.75 229.122 1725.66 228.668 1725.66 228.21C1725.66 227.752 1725.75 227.299 1725.93 226.879C1726.12 226.459 1726.38 226.081 1726.72 225.769C1727.05 225.457 1727.45 225.218 1727.88 225.066C1728.31 224.915 1728.77 224.854 1729.22 224.888H1737.32C1738.1 224.879 1738.85 225.147 1739.45 225.644C1740.05 226.141 1740.46 226.835 1740.6 227.604C1740.74 228.336 1740.63 229.096 1740.29 229.756C1739.94 230.416 1739.37 230.935 1738.69 231.225C1738.23 231.42 1737.73 231.519 1737.23 231.515C1735.89 231.551 1734.56 231.533 1733.21 231.533Z" fill="#E5B445"/>
<path d="M1717.48 232.366C1717.48 230.99 1717.48 229.614 1717.48 228.238C1717.48 227.366 1717.81 226.528 1718.41 225.902C1719.02 225.275 1719.84 224.912 1720.71 224.888C1721.57 224.858 1722.4 225.172 1723.03 225.759C1723.66 226.346 1724.03 227.159 1724.06 228.02C1724.13 230.917 1724.13 233.815 1724.06 236.712C1724.05 237.145 1723.95 237.57 1723.77 237.963C1723.59 238.357 1723.33 238.709 1723.01 239C1722.69 239.291 1722.31 239.514 1721.91 239.655C1721.5 239.797 1721.07 239.855 1720.64 239.826C1719.78 239.798 1718.96 239.43 1718.37 238.803C1717.78 238.175 1717.46 237.339 1717.48 236.476C1717.46 235.118 1717.48 233.742 1717.48 232.366Z" fill="#D03D5B"/>
<path d="M1732.38 215.762C1732.38 217.12 1732.38 218.46 1732.38 219.818C1732.41 220.272 1732.35 220.729 1732.2 221.159C1732.05 221.589 1731.81 221.983 1731.5 222.317C1731.19 222.651 1730.82 222.918 1730.4 223.1C1729.99 223.282 1729.54 223.376 1729.08 223.376C1728.63 223.376 1728.18 223.282 1727.77 223.1C1727.35 222.918 1726.98 222.651 1726.67 222.317C1726.36 221.983 1726.12 221.589 1725.97 221.159C1725.82 220.729 1725.76 220.272 1725.79 219.818C1725.79 217.011 1725.79 214.223 1725.79 211.434C1725.8 211.002 1725.89 210.575 1726.07 210.178C1726.24 209.782 1726.49 209.424 1726.8 209.126C1727.11 208.827 1727.48 208.595 1727.89 208.441C1728.29 208.287 1728.72 208.215 1729.15 208.229C1729.58 208.236 1730 208.329 1730.4 208.501C1730.8 208.673 1731.15 208.922 1731.45 209.233C1731.75 209.544 1731.99 209.911 1732.15 210.314C1732.31 210.716 1732.38 211.146 1732.38 211.579C1732.39 212.973 1732.38 214.368 1732.38 215.762Z" fill="#59B280"/>
<path d="M1716.62 223.186H1712.58C1712.14 223.186 1711.72 223.1 1711.32 222.935C1710.92 222.769 1710.56 222.526 1710.26 222.22C1709.95 221.914 1709.71 221.551 1709.54 221.151C1709.38 220.751 1709.29 220.323 1709.29 219.89C1709.29 219.457 1709.38 219.029 1709.54 218.629C1709.71 218.229 1709.95 217.866 1710.26 217.56C1710.56 217.254 1710.92 217.011 1711.32 216.846C1711.72 216.68 1712.14 216.595 1712.58 216.595C1715.3 216.595 1717.99 216.595 1720.78 216.595C1721.21 216.595 1721.64 216.68 1722.04 216.846C1722.44 217.011 1722.8 217.254 1723.1 217.56C1723.41 217.866 1723.65 218.229 1723.81 218.629C1723.98 219.029 1724.06 219.457 1724.06 219.89C1724.06 220.323 1723.98 220.751 1723.81 221.151C1723.65 221.551 1723.41 221.914 1723.1 222.22C1722.8 222.526 1722.44 222.769 1722.04 222.935C1721.64 223.1 1721.21 223.186 1720.78 223.186H1716.62Z" fill="#5FC1ED"/>
<path d="M1724.08 212.901C1724.08 213.522 1724.08 213.763 1724.08 214.404C1724.08 214.703 1723.98 214.838 1723.72 214.838C1722.39 214.838 1721.84 214.838 1720.28 214.838C1719.44 214.734 1718.69 214.305 1718.17 213.645C1717.65 212.984 1717.41 212.144 1717.5 211.308C1717.54 210.488 1717.88 209.712 1718.46 209.132C1719.03 208.552 1719.81 208.209 1720.62 208.17C1721.44 208.132 1722.24 208.401 1722.87 208.924C1723.5 209.447 1723.91 210.187 1724.03 211C1724.08 211.63 1724.08 211.81 1724.08 212.385V212.742V212.901Z" fill="#5FC1ED"/>
<path d="M1715.73 224.906C1715.83 226.262 1715.83 227.624 1715.73 228.98C1715.58 229.773 1715.13 230.477 1714.47 230.948C1713.82 231.419 1713.01 231.622 1712.22 231.515C1711.39 231.447 1710.62 231.074 1710.06 230.468C1709.5 229.862 1709.18 229.067 1709.17 228.237C1709.15 227.412 1709.45 226.61 1710 225.995C1710.54 225.38 1711.31 224.997 1712.12 224.924C1713.35 224.815 1714.58 224.906 1715.73 224.906Z" fill="#D03D5B"/>
<path d="M1734.07 223.168C1734.07 221.9 1734.07 220.687 1734.07 219.546C1734.16 218.699 1734.57 217.919 1735.22 217.372C1735.87 216.824 1736.71 216.552 1737.55 216.613C1738.42 216.613 1739.26 216.96 1739.87 217.578C1740.49 218.196 1740.83 219.034 1740.83 219.908C1740.83 220.782 1740.49 221.621 1739.87 222.239C1739.26 222.857 1738.42 223.204 1737.55 223.204C1736.43 223.204 1735.28 223.168 1734.07 223.168Z" fill="#59B280"/>
<path d="M1725.79 233.289C1727.13 233.198 1728.46 233.198 1729.8 233.289C1730.61 233.44 1731.33 233.902 1731.81 234.578C1732.29 235.254 1732.48 236.091 1732.36 236.911C1732.26 237.728 1731.86 238.48 1731.24 239.019C1730.62 239.557 1729.82 239.845 1729 239.826C1728.19 239.823 1727.41 239.509 1726.81 238.947C1726.22 238.386 1725.86 237.619 1725.81 236.802C1725.74 235.643 1725.79 234.466 1725.79 233.289Z" fill="#E5B445"/>
<g filter="url(#filter3_d_242_2709)">
<rect x="1535" y="274" width="100" height="100" rx="30" fill="#141414"/>
<rect x="1536" y="275" width="98" height="98" rx="29" stroke="#3C3C3C" stroke-opacity="0.3" stroke-width="2"/>
</g>
<g clip-path="url(#clip0_242_2709)">
<path d="M1573.02 337.607C1569.68 337.607 1566.72 335.471 1565.64 332.292L1565.57 332.052C1565.31 331.21 1565.21 330.502 1565.21 329.794V315.589L1560.15 332.46C1559.5 334.942 1560.98 337.515 1563.47 338.2L1595.69 346.828C1596.09 346.932 1596.49 346.982 1596.89 346.982C1598.96 346.982 1600.86 345.605 1601.39 343.575L1603.26 337.607H1573.02Z" fill="#ECEFF1"/>
<path d="M1610 305.835V329.794C1610 332.377 1607.9 334.482 1605.31 334.482H1573.02C1572.81 334.482 1572.6 334.461 1572.42 334.44C1570.23 334.169 1568.52 332.377 1568.35 330.169C1568.33 330.044 1568.33 329.919 1568.33 329.794V305.835C1568.33 303.251 1570.44 301.147 1573.02 301.147H1605.31C1607.9 301.147 1610 303.251 1610 305.835Z" fill="#ECEFF1"/>
<path d="M1582.92 311.564C1582.92 313.865 1581.05 315.731 1578.75 315.731C1576.45 315.731 1574.58 313.865 1574.58 311.564C1574.58 309.263 1576.45 307.397 1578.75 307.397C1581.05 307.397 1582.92 309.263 1582.92 311.564Z" fill="#FFC107"/>
<path d="M1610 323.939V329.794C1610 332.377 1607.9 334.482 1605.31 334.482H1573.02C1572.81 334.482 1572.6 334.461 1572.42 334.44L1593.87 312.981C1595.29 311.564 1597.62 311.564 1599.04 312.981L1610 323.939Z" fill="#388E3C"/>
<path d="M1597.62 334.482H1573.02C1572.81 334.482 1572.6 334.461 1572.42 334.44C1570.23 334.169 1568.52 332.377 1568.35 330.169L1578.25 320.273C1579.67 318.856 1582 318.856 1583.42 320.273L1597.62 334.482Z" fill="#4CAF50"/>
</g>
<g filter="url(#filter4_d_242_2709)">
<rect x="285" y="4" width="100" height="100" rx="30" fill="#141414"/>
<rect x="286" y="5" width="98" height="98" rx="29" stroke="#3C3C3C" stroke-opacity="0.3" stroke-width="2"/>
</g>
<path d="M341.006 46.3828H328.994C326.598 46.3828 324.648 48.3322 324.648 50.7285C324.648 53.1248 326.598 55.0742 328.994 55.0742H341.006C343.402 55.0742 345.352 53.1248 345.352 50.7285C345.352 48.3322 343.402 46.3828 341.006 46.3828ZM330.785 51.2655C330.785 52.0745 330.129 52.7304 329.32 52.7304C328.511 52.7304 327.855 52.0745 327.855 51.2655V50.1913C327.855 49.3823 328.511 48.7265 329.32 48.7265C330.129 48.7265 330.785 49.3823 330.785 50.1913V51.2655ZM342.145 51.2655C342.145 52.0745 341.489 52.7304 340.68 52.7304C339.871 52.7304 339.215 52.0745 339.215 51.2655V50.1913C339.215 49.3823 339.871 48.7265 340.68 48.7265C341.489 48.7265 342.145 49.3823 342.145 50.1913V51.2655Z" fill="url(#paint20_linear_242_2709)"/>
<path d="M352.676 54.195V51.3636C352.676 41.5711 344.741 33.8828 335 33.8828C325.248 33.8828 317.324 41.5723 317.324 51.3636V54.195C317.324 58.7133 321.01 62.3984 325.528 62.3984H344.472C348.99 62.3984 352.676 58.7128 352.676 54.195ZM328.994 58.0038C324.983 58.0038 321.719 54.7401 321.719 50.7284C321.719 46.7167 324.982 43.453 328.994 43.453H341.006C345.017 43.453 348.281 46.7167 348.281 50.7284C348.281 54.7401 345.017 58.0038 341.006 58.0038H328.994Z" fill="url(#paint21_linear_242_2709)"/>
<path d="M342.617 68.2578H339.395C337.783 68.2578 336.465 69.5762 336.465 71.1875C336.465 72.7988 337.783 74.1172 339.395 74.1172H342.617C344.229 74.1172 345.547 72.7988 345.547 71.1875C345.547 69.5762 344.229 68.2578 342.617 68.2578Z" fill="url(#paint22_linear_242_2709)"/>
<path d="M357.07 63.8142C357.07 67.0698 354.252 69.8203 350.917 69.8203H348.314C348.419 70.2593 348.477 70.7167 348.477 71.1875C348.477 71.7286 348.401 72.2521 348.263 72.75H350.917C355.84 72.75 360 68.6579 360 63.8142V60.9512C359.148 61.5923 358.152 62.0521 357.07 62.2727V63.8142Z" fill="url(#paint23_linear_242_2709)"/>
<path d="M355.606 44.7442H355.479V36.2731C355.479 35.4641 354.823 34.8083 354.014 34.8083C353.205 34.8083 352.549 35.4641 352.549 36.2731V40.604C354.54 43.7927 355.606 47.4887 355.606 51.3636V54.195C355.606 56.1105 355.119 57.9146 354.264 59.4903H355.606C358.029 59.4903 360 57.5189 360 55.0958V49.1388C360 46.7156 358.029 44.7442 355.606 44.7442Z" fill="url(#paint24_linear_242_2709)"/>
<path d="M314.395 51.3636C314.395 47.4869 315.46 43.7897 317.451 40.6007V36.2731C317.451 35.4641 316.795 34.8083 315.986 34.8083C315.177 34.8083 314.521 35.4641 314.521 36.2731V44.7442H314.395C311.971 44.7442 310 46.7156 310 49.1388V55.0958C310 57.5189 311.971 59.4903 314.395 59.4903H315.737C314.881 57.9146 314.395 56.1106 314.395 54.195V51.3636Z" fill="url(#paint25_linear_242_2709)"/>
<g filter="url(#filter5_d_242_2709)">
<rect x="155" y="184" width="80" height="80" rx="20" fill="#141414"/>
<rect x="156" y="185" width="78" height="78" rx="19" stroke="#3C3C3C" stroke-opacity="0.3" stroke-width="2"/>
</g>
<path d="M181.838 241.509C183.753 241.93 185.72 240.793 186.366 238.956L188.538 232.452L185.246 230.598C184.877 230.391 184.461 230.245 184.03 230.17C182.851 229.964 181.56 230.28 180.821 231.262C180.773 231.327 180.705 231.365 180.634 231.39L178.997 236.345C178.229 238.529 179.562 241.009 181.838 241.509L181.838 241.509Z" fill="url(#paint26_linear_242_2709)"/>
<path d="M185.41 225.668C187.174 224.92 189.147 224.702 191.041 224.955L195.966 210.212C196.149 209.671 196.371 209.211 196.645 208.805C197.073 208.182 197.524 207.78 198.113 207.498C198.429 207.344 198.868 207.309 199.334 207.345C197.145 206.423 194.732 206.067 192.439 206.795C190.451 207.425 188.74 208.787 187.695 210.593C187.423 211.062 187.198 211.556 187.019 212.068L181.41 229.041C181.621 228.76 181.835 228.49 182.055 228.231C182.984 227.139 184.022 226.257 185.412 225.668H185.41Z" fill="url(#paint27_linear_242_2709)"/>
<path d="M210.829 235.56C210.792 235.6 210.759 235.644 210.716 235.673C210.159 236.043 209.314 235.313 208.819 235.027C205.068 232.859 201.328 230.673 197.554 228.547C195.509 227.395 193.597 226.187 191.257 225.761C187.852 225.234 184.51 226.394 182.717 228.739L182.178 229.456C182.322 229.42 182.466 229.385 182.617 229.363C182.853 229.327 183.091 229.309 183.329 229.309C183.54 229.309 183.75 229.325 183.959 229.353C184.579 229.425 185.183 229.617 185.727 229.929L205.28 240.944C207.088 241.945 209.387 241.762 210.618 239.975L210.734 239.796C211.36 238.79 211.5 237.547 211.109 236.399L210.83 235.56H210.829Z" fill="url(#paint28_linear_242_2709)"/>
<path d="M198.361 208.398C197.091 209.013 196.846 210.334 196.441 211.546C196.16 212.388 195.88 213.228 195.598 214.07L200.653 229.355L210.206 234.883C210.24 234.706 210.267 234.347 210.187 233.619C210.182 233.598 210.179 233.577 210.177 233.555C209.63 231.895 203.084 211.495 202.444 210.159C202.135 209.514 201.688 208.916 201.08 208.54C200.343 208.084 199.391 207.999 198.582 208.305C198.507 208.333 198.434 208.365 198.361 208.399V208.398Z" fill="url(#paint29_linear_242_2709)"/>
<g filter="url(#filter6_d_242_2709)">
<rect x="285" y="274" width="100" height="100" rx="30" fill="#141414"/>
<rect x="286" y="275" width="98" height="98" rx="29" stroke="#3C3C3C" stroke-opacity="0.3" stroke-width="2"/>
</g>
<g clip-path="url(#clip1_242_2709)">
<path d="M329.658 304H318.415C316.532 304 315 305.532 315 307.415V318.658C315 320.541 316.532 322.073 318.415 322.073H329.658C331.541 322.073 333.073 320.541 333.073 318.658V307.415C333.073 305.532 331.541 304 329.658 304Z" fill="url(#paint30_linear_242_2709)"/>
<path d="M351.585 304H340.342C338.459 304 336.927 305.532 336.927 307.415V318.658C336.927 320.541 338.459 322.073 340.342 322.073H351.585C353.468 322.073 355 320.541 355 318.658V307.415C355 305.532 353.468 304 351.585 304Z" fill="url(#paint31_linear_242_2709)"/>
<path d="M329.658 325.927H318.415C316.532 325.927 315 327.459 315 329.342V340.585C315 342.468 316.532 344 318.415 344H329.658C331.541 344 333.073 342.468 333.073 340.585V329.342C333.073 327.459 331.541 325.927 329.658 325.927Z" fill="url(#paint32_linear_242_2709)"/>
<path d="M351.585 325.927H340.342C338.459 325.927 336.927 327.459 336.927 329.342V340.585C336.927 342.468 338.459 344 340.342 344H351.585C353.468 344 355 342.468 355 340.585V329.342C355 327.459 353.468 325.927 351.585 325.927Z" fill="url(#paint33_linear_242_2709)"/>
</g>
<g opacity="0.9" filter="url(#filter7_f_242_2709)">
<path d="M975 322V362" stroke="url(#paint34_linear_242_2709)" stroke-width="7" stroke-linecap="round"/>
</g>
<path opacity="0.9" d="M975 322V362" stroke="url(#paint35_linear_242_2709)" stroke-width="2" stroke-linecap="round"/>
<g opacity="0.9" filter="url(#filter8_f_242_2709)">
<path d="M1145 221H1105" stroke="url(#paint36_linear_242_2709)" stroke-width="7" stroke-linecap="round"/>
</g>
<path opacity="0.9" d="M1145 221H1105" stroke="url(#paint37_linear_242_2709)" stroke-width="2" stroke-linecap="round"/>
<g opacity="0.9" filter="url(#filter9_f_242_2709)">
<path d="M1266 131H1226" stroke="url(#paint38_linear_242_2709)" stroke-width="7" stroke-linecap="round"/>
</g>
<path opacity="0.9" d="M1266 131H1226" stroke="url(#paint39_linear_242_2709)" stroke-width="2" stroke-linecap="round"/>
<g opacity="0.9" filter="url(#filter10_f_242_2709)">
<path d="M676 161H636" stroke="url(#paint40_linear_242_2709)" stroke-width="7" stroke-linecap="round"/>
</g>
<path opacity="0.9" d="M676 161H636" stroke="url(#paint41_linear_242_2709)" stroke-width="2" stroke-linecap="round"/>
<defs>
<filter id="filter0_d_242_2709" x="856" y="70" width="208" height="208" filterUnits="userSpaceOnUse" color-interpolation-filters="sRGB">
<feFlood flood-opacity="0" result="BackgroundImageFix"/>
<feColorMatrix in="SourceAlpha" type="matrix" values="0 0 0 0 0 0 0 0 0 0 0 0 0 0 0 0 0 0 127 0" result="hardAlpha"/>
<feOffset/>
<feGaussianBlur stdDeviation="2"/>
<feComposite in2="hardAlpha" operator="out"/>
<feColorMatrix type="matrix" values="0 0 0 0 0 0 0 0 0 0 0 0 0 0 0 0 0 0 1 0"/>
<feBlend mode="normal" in2="BackgroundImageFix" result="effect1_dropShadow_242_2709"/>
<feBlend mode="normal" in="SourceGraphic" in2="effect1_dropShadow_242_2709" result="shape"/>
</filter>
<filter id="filter1_d_242_2709" x="1531" y="0" width="108" height="108" filterUnits="userSpaceOnUse" color-interpolation-filters="sRGB">
<feFlood flood-opacity="0" result="BackgroundImageFix"/>
<feColorMatrix in="SourceAlpha" type="matrix" values="0 0 0 0 0 0 0 0 0 0 0 0 0 0 0 0 0 0 127 0" result="hardAlpha"/>
<feOffset/>
<feGaussianBlur stdDeviation="2"/>
<feComposite in2="hardAlpha" operator="out"/>
<feColorMatrix type="matrix" values="0 0 0 0 0 0 0 0 0 0 0 0 0 0 0 0 0 0 1 0"/>
<feBlend mode="normal" in2="BackgroundImageFix" result="effect1_dropShadow_242_2709"/>
<feBlend mode="normal" in="SourceGraphic" in2="effect1_dropShadow_242_2709" result="shape"/>
</filter>
<filter id="filter2_d_242_2709" x="1681" y="180" width="88" height="88" filterUnits="userSpaceOnUse" color-interpolation-filters="sRGB">
<feFlood flood-opacity="0" result="BackgroundImageFix"/>
<feColorMatrix in="SourceAlpha" type="matrix" values="0 0 0 0 0 0 0 0 0 0 0 0 0 0 0 0 0 0 127 0" result="hardAlpha"/>
<feOffset/>
<feGaussianBlur stdDeviation="2"/>
<feComposite in2="hardAlpha" operator="out"/>
<feColorMatrix type="matrix" values="0 0 0 0 0 0 0 0 0 0 0 0 0 0 0 0 0 0 1 0"/>
<feBlend mode="normal" in2="BackgroundImageFix" result="effect1_dropShadow_242_2709"/>
<feBlend mode="normal" in="SourceGraphic" in2="effect1_dropShadow_242_2709" result="shape"/>
</filter>
<filter id="filter3_d_242_2709" x="1531" y="270" width="108" height="108" filterUnits="userSpaceOnUse" color-interpolation-filters="sRGB">
<feFlood flood-opacity="0" result="BackgroundImageFix"/>
<feColorMatrix in="SourceAlpha" type="matrix" values="0 0 0 0 0 0 0 0 0 0 0 0 0 0 0 0 0 0 127 0" result="hardAlpha"/>
<feOffset/>
<feGaussianBlur stdDeviation="2"/>
<feComposite in2="hardAlpha" operator="out"/>
<feColorMatrix type="matrix" values="0 0 0 0 0 0 0 0 0 0 0 0 0 0 0 0 0 0 1 0"/>
<feBlend mode="normal" in2="BackgroundImageFix" result="effect1_dropShadow_242_2709"/>
<feBlend mode="normal" in="SourceGraphic" in2="effect1_dropShadow_242_2709" result="shape"/>
</filter>
<filter id="filter4_d_242_2709" x="281" y="0" width="108" height="108" filterUnits="userSpaceOnUse" color-interpolation-filters="sRGB">
<feFlood flood-opacity="0" result="BackgroundImageFix"/>
<feColorMatrix in="SourceAlpha" type="matrix" values="0 0 0 0 0 0 0 0 0 0 0 0 0 0 0 0 0 0 127 0" result="hardAlpha"/>
<feOffset/>
<feGaussianBlur stdDeviation="2"/>
<feComposite in2="hardAlpha" operator="out"/>
<feColorMatrix type="matrix" values="0 0 0 0 0 0 0 0 0 0 0 0 0 0 0 0 0 0 1 0"/>
<feBlend mode="normal" in2="BackgroundImageFix" result="effect1_dropShadow_242_2709"/>
<feBlend mode="normal" in="SourceGraphic" in2="effect1_dropShadow_242_2709" result="shape"/>
</filter>
<filter id="filter5_d_242_2709" x="151" y="180" width="88" height="88" filterUnits="userSpaceOnUse" color-interpolation-filters="sRGB">
<feFlood flood-opacity="0" result="BackgroundImageFix"/>
<feColorMatrix in="SourceAlpha" type="matrix" values="0 0 0 0 0 0 0 0 0 0 0 0 0 0 0 0 0 0 127 0" result="hardAlpha"/>
<feOffset/>
<feGaussianBlur stdDeviation="2"/>
<feComposite in2="hardAlpha" operator="out"/>
<feColorMatrix type="matrix" values="0 0 0 0 0 0 0 0 0 0 0 0 0 0 0 0 0 0 1 0"/>
<feBlend mode="normal" in2="BackgroundImageFix" result="effect1_dropShadow_242_2709"/>
<feBlend mode="normal" in="SourceGraphic" in2="effect1_dropShadow_242_2709" result="shape"/>
</filter>
<filter id="filter6_d_242_2709" x="281" y="270" width="108" height="108" filterUnits="userSpaceOnUse" color-interpolation-filters="sRGB">
<feFlood flood-opacity="0" result="BackgroundImageFix"/>
<feColorMatrix in="SourceAlpha" type="matrix" values="0 0 0 0 0 0 0 0 0 0 0 0 0 0 0 0 0 0 127 0" result="hardAlpha"/>
<feOffset/>
<feGaussianBlur stdDeviation="2"/>
<feComposite in2="hardAlpha" operator="out"/>
<feColorMatrix type="matrix" values="0 0 0 0 0 0 0 0 0 0 0 0 0 0 0 0 0 0 1 0"/>
<feBlend mode="normal" in2="BackgroundImageFix" result="effect1_dropShadow_242_2709"/>
<feBlend mode="normal" in="SourceGraphic" in2="effect1_dropShadow_242_2709" result="shape"/>
</filter>
<filter id="filter7_f_242_2709" x="961.5" y="308.5" width="27" height="67" filterUnits="userSpaceOnUse" color-interpolation-filters="sRGB">
<feFlood flood-opacity="0" result="BackgroundImageFix"/>
<feBlend mode="normal" in="SourceGraphic" in2="BackgroundImageFix" result="shape"/>
<feGaussianBlur stdDeviation="5" result="effect1_foregroundBlur_242_2709"/>
</filter>
<filter id="filter8_f_242_2709" x="1091.5" y="207.5" width="67" height="27" filterUnits="userSpaceOnUse" color-interpolation-filters="sRGB">
<feFlood flood-opacity="0" result="BackgroundImageFix"/>
<feBlend mode="normal" in="SourceGraphic" in2="BackgroundImageFix" result="shape"/>
<feGaussianBlur stdDeviation="5" result="effect1_foregroundBlur_242_2709"/>
</filter>
<filter id="filter9_f_242_2709" x="1212.5" y="117.5" width="67" height="27" filterUnits="userSpaceOnUse" color-interpolation-filters="sRGB">
<feFlood flood-opacity="0" result="BackgroundImageFix"/>
<feBlend mode="normal" in="SourceGraphic" in2="BackgroundImageFix" result="shape"/>
<feGaussianBlur stdDeviation="5" result="effect1_foregroundBlur_242_2709"/>
</filter>
<filter id="filter10_f_242_2709" x="622.5" y="147.5" width="67" height="27" filterUnits="userSpaceOnUse" color-interpolation-filters="sRGB">
<feFlood flood-opacity="0" result="BackgroundImageFix"/>
<feBlend mode="normal" in="SourceGraphic" in2="BackgroundImageFix" result="shape"/>
<feGaussianBlur stdDeviation="5" result="effect1_foregroundBlur_242_2709"/>
</filter>
<linearGradient id="paint0_linear_242_2709" x1="1.11759e-07" y1="5" x2="30" y2="5" gradientUnits="userSpaceOnUse">
<stop offset="0.483333" stop-color="#3C3C3C"/>
<stop offset="1" stop-color="#A2A2A2"/>
</linearGradient>
<linearGradient id="paint1_linear_242_2709" x1="1.11759e-07" y1="5" x2="30" y2="5" gradientUnits="userSpaceOnUse">
<stop offset="0.483333" stop-color="#3C3C3C"/>
<stop offset="1" stop-color="#A2A2A2"/>
</linearGradient>
<linearGradient id="paint2_linear_242_2709" x1="1.11759e-07" y1="5" x2="30" y2="5" gradientUnits="userSpaceOnUse">
<stop offset="0.483333" stop-color="#3C3C3C"/>
<stop offset="1" stop-color="#A2A2A2"/>
</linearGradient>
<linearGradient id="paint3_linear_242_2709" x1="379" y1="54" x2="409" y2="54" gradientUnits="userSpaceOnUse">
<stop offset="0.483333" stop-color="#3C3C3C"/>
<stop offset="1" stop-color="#A2A2A2"/>
</linearGradient>
<linearGradient id="paint4_linear_242_2709" x1="379" y1="324" x2="409" y2="324" gradientUnits="userSpaceOnUse">
<stop offset="0.483333" stop-color="#3C3C3C"/>
<stop offset="1" stop-color="#A2A2A2"/>
</linearGradient>
<linearGradient id="paint5_linear_242_2709" x1="229" y1="224" x2="259" y2="224" gradientUnits="userSpaceOnUse">
<stop offset="0.483333" stop-color="#3C3C3C"/>
<stop offset="1" stop-color="#A2A2A2"/>
</linearGradient>
<linearGradient id="paint6_linear_242_2709" x1="1054" y1="131" x2="1084" y2="131" gradientUnits="userSpaceOnUse">
<stop offset="0.483333" stop-color="#3C3C3C"/>
<stop offset="1" stop-color="#A2A2A2"/>
</linearGradient>
<linearGradient id="paint7_linear_242_2709" x1="1054" y1="161" x2="1084" y2="161" gradientUnits="userSpaceOnUse">
<stop offset="0.483333" stop-color="#3C3C3C"/>
<stop offset="1" stop-color="#A2A2A2"/>
</linearGradient>
<linearGradient id="paint8_linear_242_2709" x1="1054" y1="191" x2="1084" y2="191" gradientUnits="userSpaceOnUse">
<stop offset="0.483333" stop-color="#3C3C3C"/>
<stop offset="1" stop-color="#A2A2A2"/>
</linearGradient>
<linearGradient id="paint9_linear_242_2709" x1="1054" y1="221" x2="1084" y2="221" gradientUnits="userSpaceOnUse">
<stop offset="0.483333" stop-color="#3C3C3C"/>
<stop offset="1" stop-color="#A2A2A2"/>
</linearGradient>
<linearGradient id="paint10_linear_242_2709" x1="1010" y1="273" x2="1040" y2="273" gradientUnits="userSpaceOnUse">
<stop offset="0.483333" stop-color="#3C3C3C"/>
<stop offset="1" stop-color="#A2A2A2"/>
</linearGradient>
<linearGradient id="paint11_linear_242_2709" x1="980" y1="273" x2="1010" y2="273" gradientUnits="userSpaceOnUse">
<stop offset="0.483333" stop-color="#3C3C3C"/>
<stop offset="1" stop-color="#A2A2A2"/>
</linearGradient>
<linearGradient id="paint12_linear_242_2709" x1="950" y1="273" x2="980" y2="273" gradientUnits="userSpaceOnUse">
<stop offset="0.483333" stop-color="#3C3C3C"/>
<stop offset="1" stop-color="#A2A2A2"/>
</linearGradient>
<linearGradient id="paint13_linear_242_2709" x1="920" y1="273" x2="950" y2="273" gradientUnits="userSpaceOnUse">
<stop offset="0.483333" stop-color="#3C3C3C"/>
<stop offset="1" stop-color="#A2A2A2"/>
</linearGradient>
<linearGradient id="paint14_linear_242_2709" x1="1.11759e-07" y1="5" x2="30" y2="5" gradientUnits="userSpaceOnUse">
<stop offset="0.483333" stop-color="#3C3C3C"/>
<stop offset="1" stop-color="#A2A2A2"/>
</linearGradient>
<linearGradient id="paint15_linear_242_2709" x1="1.11759e-07" y1="5" x2="30" y2="5" gradientUnits="userSpaceOnUse">
<stop offset="0.483333" stop-color="#3C3C3C"/>
<stop offset="1" stop-color="#A2A2A2"/>
</linearGradient>
<linearGradient id="paint16_linear_242_2709" x1="1.11759e-07" y1="5" x2="30" y2="5" gradientUnits="userSpaceOnUse">
<stop offset="0.483333" stop-color="#3C3C3C"/>
<stop offset="1" stop-color="#A2A2A2"/>
</linearGradient>
<linearGradient id="paint17_linear_242_2709" x1="1.11759e-07" y1="5" x2="30" y2="5" gradientUnits="userSpaceOnUse">
<stop offset="0.483333" stop-color="#3C3C3C"/>
<stop offset="1" stop-color="#A2A2A2"/>
</linearGradient>
<linearGradient id="paint18_linear_242_2709" x1="960" y1="131" x2="960" y2="218" gradientUnits="userSpaceOnUse">
<stop stop-color="white"/>
<stop offset="1" stop-color="#999999" stop-opacity="0.1"/>
</linearGradient>
<linearGradient id="paint19_linear_242_2709" x1="1566" y1="54.5" x2="1605" y2="54.5" gradientUnits="userSpaceOnUse">
<stop stop-color="#AB33F5"/>
<stop offset="1" stop-color="#FF6914"/>
</linearGradient>
<linearGradient id="paint20_linear_242_2709" x1="335" y1="46.3828" x2="335" y2="55.0742" gradientUnits="userSpaceOnUse">
<stop stop-color="#36E0F7"/>
<stop offset="1" stop-color="#1DFFD2"/>
</linearGradient>
<linearGradient id="paint21_linear_242_2709" x1="335" y1="33.8828" x2="335" y2="62.3984" gradientUnits="userSpaceOnUse">
<stop stop-color="#36E0F7"/>
<stop offset="1" stop-color="#1DFFD2"/>
</linearGradient>
<linearGradient id="paint22_linear_242_2709" x1="341.006" y1="68.2578" x2="341.006" y2="74.1172" gradientUnits="userSpaceOnUse">
<stop stop-color="#36E0F7"/>
<stop offset="1" stop-color="#1DFFD2"/>
</linearGradient>
<linearGradient id="paint23_linear_242_2709" x1="354.132" y1="60.9512" x2="354.132" y2="72.75" gradientUnits="userSpaceOnUse">
<stop stop-color="#36E0F7"/>
<stop offset="1" stop-color="#1DFFD2"/>
</linearGradient>
<linearGradient id="paint24_linear_242_2709" x1="356.275" y1="34.8083" x2="356.275" y2="59.4903" gradientUnits="userSpaceOnUse">
<stop stop-color="#36E0F7"/>
<stop offset="1" stop-color="#1DFFD2"/>
</linearGradient>
<linearGradient id="paint25_linear_242_2709" x1="313.725" y1="34.8083" x2="313.725" y2="59.4903" gradientUnits="userSpaceOnUse">
<stop stop-color="#36E0F7"/>
<stop offset="1" stop-color="#1DFFD2"/>
</linearGradient>
<linearGradient id="paint26_linear_242_2709" x1="178.779" y1="230.11" x2="188.396" y2="234.421" gradientUnits="userSpaceOnUse">
<stop offset="0.18" stop-color="#6D30FB"/>
<stop offset="1" stop-color="#C13DFF"/>
</linearGradient>
<linearGradient id="paint27_linear_242_2709" x1="181.41" y1="206.406" x2="199.47" y2="213.95" gradientUnits="userSpaceOnUse">
<stop offset="0.18" stop-color="#6D30FB"/>
<stop offset="1" stop-color="#C13DFF"/>
</linearGradient>
<linearGradient id="paint28_linear_242_2709" x1="182.178" y1="225.636" x2="200.017" y2="242.874" gradientUnits="userSpaceOnUse">
<stop offset="0.18" stop-color="#6D30FB"/>
<stop offset="1" stop-color="#C13DFF"/>
</linearGradient>
<linearGradient id="paint29_linear_242_2709" x1="195.598" y1="208.124" x2="211.592" y2="212.741" gradientUnits="userSpaceOnUse">
<stop offset="0.18" stop-color="#6D30FB"/>
<stop offset="1" stop-color="#C13DFF"/>
</linearGradient>
<linearGradient id="paint30_linear_242_2709" x1="324.037" y1="304" x2="324.037" y2="322.073" gradientUnits="userSpaceOnUse">
<stop stop-color="#34F300"/>
<stop offset="1" stop-color="#CCFF00"/>
</linearGradient>
<linearGradient id="paint31_linear_242_2709" x1="345.964" y1="304" x2="345.964" y2="322.073" gradientUnits="userSpaceOnUse">
<stop stop-color="#34F300"/>
<stop offset="1" stop-color="#CCFF00"/>
</linearGradient>
<linearGradient id="paint32_linear_242_2709" x1="324.037" y1="325.927" x2="324.037" y2="344" gradientUnits="userSpaceOnUse">
<stop stop-color="#34F300"/>
<stop offset="1" stop-color="#CCFF00"/>
</linearGradient>
<linearGradient id="paint33_linear_242_2709" x1="345.964" y1="325.927" x2="345.964" y2="344" gradientUnits="userSpaceOnUse">
<stop stop-color="#34F300"/>
<stop offset="1" stop-color="#CCFF00"/>
</linearGradient>
<linearGradient id="paint34_linear_242_2709" x1="975" y1="342" x2="976" y2="342" gradientUnits="userSpaceOnUse">
<stop stop-color="#AB33F5"/>
<stop offset="1" stop-color="#FF6914"/>
</linearGradient>
<linearGradient id="paint35_linear_242_2709" x1="975" y1="342" x2="976" y2="342" gradientUnits="userSpaceOnUse">
<stop stop-color="#AB33F5"/>
<stop offset="1" stop-color="#FF6914"/>
</linearGradient>
<linearGradient id="paint36_linear_242_2709" x1="1125" y1="221" x2="1125" y2="222" gradientUnits="userSpaceOnUse">
<stop stop-color="#AB33F5"/>
<stop offset="1" stop-color="#FF6914"/>
</linearGradient>
<linearGradient id="paint37_linear_242_2709" x1="1125" y1="221" x2="1125" y2="222" gradientUnits="userSpaceOnUse">
<stop stop-color="#AB33F5"/>
<stop offset="1" stop-color="#FF6914"/>
</linearGradient>
<linearGradient id="paint38_linear_242_2709" x1="1246" y1="131" x2="1246" y2="132" gradientUnits="userSpaceOnUse">
<stop stop-color="#AB33F5"/>
<stop offset="1" stop-color="#FF6914"/>
</linearGradient>
<linearGradient id="paint39_linear_242_2709" x1="1246" y1="131" x2="1246" y2="132" gradientUnits="userSpaceOnUse">
<stop stop-color="#AB33F5"/>
<stop offset="1" stop-color="#FF6914"/>
</linearGradient>
<linearGradient id="paint40_linear_242_2709" x1="656" y1="161" x2="656" y2="162" gradientUnits="userSpaceOnUse">
<stop stop-color="#AB33F5"/>
<stop offset="1" stop-color="#FF6914"/>
</linearGradient>
<linearGradient id="paint41_linear_242_2709" x1="656" y1="161" x2="656" y2="162" gradientUnits="userSpaceOnUse">
<stop stop-color="#AB33F5"/>
<stop offset="1" stop-color="#FF6914"/>
</linearGradient>
<clipPath id="clip0_242_2709">
<rect width="50" height="50" fill="white" transform="translate(1560 299)"/>
</clipPath>
<clipPath id="clip1_242_2709">
<rect width="40" height="40" fill="white" transform="translate(315 304)"/>
</clipPath>
</defs>
</svg>
