<svg width="170" height="219" viewBox="0 0 170 219" fill="none" xmlns="http://www.w3.org/2000/svg">
<path d="M138.207 56.5476L137.796 54.5902L137.783 54.593L137.769 54.5959L138.207 56.5476ZM112.367 209.261C111.959 210.287 112.46 211.45 113.486 211.858L130.21 218.513C131.237 218.922 132.4 218.421 132.808 217.395C133.216 216.368 132.716 215.205 131.689 214.797L116.823 208.881L122.739 194.015C123.147 192.989 122.646 191.826 121.62 191.417C120.594 191.009 119.43 191.51 119.022 192.536L112.367 209.261ZM7.0675 2.95516C7.59502 1.9847 7.23595 0.770343 6.26548 0.242823C5.29502 -0.284697 4.08067 0.0743785 3.55315 1.04484L7.0675 2.95516ZM156.402 91.6536L155.372 89.9393L156.402 91.6536ZM167.872 69.9499L169.861 69.7431L167.872 69.9499ZM24.8251 56.1158C44.95 69.4899 69.9435 83.5618 93.8755 91.9445C117.662 100.276 141.044 103.216 157.432 93.368L155.372 89.9393C140.645 98.7889 118.842 96.4512 95.1978 88.1694C71.699 79.9384 47.0154 66.0598 27.0391 52.7843L24.8251 56.1158ZM169.861 69.7431C169.323 64.5639 167.11 59.4002 161.831 56.2529C156.634 53.1542 148.875 52.264 137.796 54.5902L138.618 58.5049C149.242 56.2741 155.821 57.3263 159.783 59.6886C163.663 62.0022 165.431 65.8181 165.882 70.1567L169.861 69.7431ZM137.769 54.5959C125.471 57.3502 109.166 64.7455 99.5699 78.2546C94.744 85.0487 91.6381 93.3643 91.6086 103.313C91.5791 113.241 94.6126 124.675 101.862 137.741L105.36 135.801C98.3563 123.178 95.5816 112.413 95.6085 103.325C95.6355 94.2567 98.4508 86.7374 102.831 80.571C111.647 68.159 126.892 61.131 138.644 58.4992L137.769 54.5959ZM110.248 149.482C117.494 158.543 124.908 170.649 127.111 181.818C128.207 187.372 127.985 192.543 125.972 196.977C123.975 201.374 120.108 205.289 113.434 208.163L115.016 211.837C122.43 208.644 127.134 204.093 129.614 198.631C132.077 193.206 132.235 187.127 131.035 181.044C128.648 168.94 120.766 156.23 113.372 146.984L110.248 149.482ZM4.09688 14.8738C4.37675 10.3884 5.28298 6.2381 7.0675 2.95516L3.55315 1.04484C1.38816 5.02771 0.404633 9.81678 0.104647 14.6247L4.09688 14.8738ZM101.862 137.741C104.239 142.025 107.341 145.846 110.248 149.482L113.372 146.984C110.412 143.282 107.542 139.733 105.36 135.801L101.862 137.741ZM157.432 93.368C165.487 88.5282 170.854 79.2967 169.861 69.7431L165.882 70.1567C166.694 77.9637 162.279 85.7892 155.372 89.9393L157.432 93.368ZM27.0391 52.7843C13.5761 43.8374 3.13428 30.3016 4.09688 14.8738L0.104647 14.6247C-0.986525 32.113 10.8203 46.8087 24.8251 56.1158L27.0391 52.7843Z" fill="url(#paint0_linear_296_2672)"/>
<defs>
<linearGradient id="paint0_linear_296_2672" x1="2" y1="106" x2="168" y2="106" gradientUnits="userSpaceOnUse">
<stop stop-color="#AB33F5"/>
<stop offset="1" stop-color="#FF6914"/>
</linearGradient>
</defs>
</svg>
