<svg width="60" height="60" viewBox="0 0 60 60" fill="none" xmlns="http://www.w3.org/2000/svg">
<g clip-path="url(#clip0_85_3793)">
<path fill-rule="evenodd" clip-rule="evenodd" d="M28.0534 26.5647C27.387 26.5647 26.8451 26.0439 26.845 25.4081C26.845 24.7647 27.3869 24.2439 28.0532 24.2437C28.7187 24.2437 29.2614 24.7645 29.2614 25.408C29.2616 26.0438 28.7189 26.5647 28.0534 26.5647ZM28.0532 22.4284C26.3429 22.4284 24.9529 23.7614 24.9531 25.4083C24.9531 27.0474 26.3432 28.3879 28.0535 28.3879C29.7638 28.3879 31.1538 27.0474 31.1536 25.4081C31.1535 23.7611 29.7636 22.4283 28.0532 22.4284ZM56.2694 31.7728C55.2548 31.7728 54.4291 30.9761 54.4291 30.0034C54.4291 29.0229 55.2546 28.234 56.2693 28.2338C57.283 28.2338 58.1079 29.0228 58.1079 30.0032C58.1081 30.9761 57.2832 31.7728 56.2694 31.7728ZM42.0927 40.0381L42.0921 19.9691C42.0921 19.7316 41.8849 19.5326 41.6394 19.5326L26.8903 19.533L22.3962 23.8533L22.3966 40.0387C22.3966 40.2685 22.6039 40.4676 22.8493 40.4676L41.6399 40.4672C41.8855 40.4672 42.0927 40.268 42.0927 40.0381ZM29.8625 57.5797L29.8621 42.2904L22.8493 42.2906C21.5567 42.2906 20.5045 41.2795 20.5045 40.0387L20.5042 30.9081L16.7298 30.9082C16.3289 32.8385 14.6705 34.3476 12.5624 34.5622C12.0995 34.6372 11.5786 34.2801 11.5208 33.758C11.4657 33.2601 11.8412 32.8081 12.3608 32.7544C13.8265 32.6088 14.9311 31.4216 14.9311 30.0044C14.9311 28.5797 13.8264 27.4001 12.3607 27.2469C11.841 27.1933 11.4657 26.749 11.5206 26.2435C11.5764 25.7456 12.0435 25.3856 12.5623 25.4392C14.6703 25.6536 16.3289 27.1625 16.7299 29.0928L20.5044 29.0927L20.5042 23.478C20.5042 23.2329 20.6047 23.0031 20.7824 22.8345L25.8297 17.978C26.0059 17.8094 26.2474 17.7175 26.4984 17.7175L29.8617 17.7174L29.8613 2.42057C24.3239 0.421596 18.3184 4.36795 18.3185 10.119C18.3185 12.0568 19.0344 13.9439 20.3431 15.4273C20.681 15.8103 20.6316 16.3848 20.2331 16.7066C19.8368 17.0288 19.2385 16.9849 18.8997 16.5994C17.7736 15.3202 17.0005 13.7958 16.6474 12.1721C12.5205 10.198 7.54414 13.0784 7.54428 17.6032C7.54428 18.7752 7.88869 19.9011 8.54068 20.8816C8.88509 21.392 8.61105 22.0816 8.00032 22.245C4.40494 23.2179 1.89207 26.4045 1.89221 30.0046C1.89235 33.5971 4.40536 36.7912 8.0006 37.7563C8.60829 37.9263 8.88592 38.61 8.54095 39.1274C7.88911 40.1002 7.54469 41.234 7.54483 42.3982C7.54497 46.8651 12.4173 49.8231 16.6482 47.8366C17.0012 46.2049 17.7743 44.6806 18.9004 43.4014C19.2392 43.0184 19.8353 42.9723 20.2338 43.2941C20.6323 43.6235 20.6817 44.198 20.3438 44.581C19.0289 46.0717 18.3195 47.9446 18.3195 49.8894C18.3196 55.6429 24.331 59.5767 29.8625 57.5797ZM51.7691 46.2731C51.7691 47.2536 50.9434 48.0425 49.9289 48.0426C48.9151 48.0426 48.0902 47.2537 48.0902 46.2732C48.0902 45.3005 48.9151 44.5038 49.9289 44.5038C50.9434 44.5037 51.7691 45.3003 51.7691 46.2731ZM45.1273 54.6532C46.1419 54.6532 46.9668 55.4421 46.9668 56.4149C46.9668 57.3954 46.1419 58.1843 45.1273 58.1844C44.1135 58.1844 43.2886 57.3955 43.2886 56.415C43.2886 55.4423 44.1135 54.6532 45.1273 54.6532ZM45.1259 1.81516C46.1405 1.81516 46.9654 2.6118 46.9654 3.58457C46.9654 4.55733 46.1405 5.35397 45.1259 5.3541C44.1121 5.3541 43.2872 4.55746 43.2872 3.5847C43.2872 2.6118 44.1121 1.81516 45.1259 1.81516ZM48.0894 13.7262C48.0894 12.7535 48.9143 11.9567 49.9281 11.9567C50.9427 11.9567 51.7684 12.7533 51.7684 13.7261C51.7684 14.7065 50.9427 15.4955 49.9282 15.4956C48.9143 15.4956 48.0894 14.7067 48.0894 13.7262ZM56.2693 26.4186C54.5382 26.4186 53.0789 27.5523 52.659 29.092L43.9845 29.0923L43.9843 25.2393L49.9282 25.2392C50.4519 25.2392 50.8743 24.8332 50.8743 24.3352L50.8741 17.1962C52.476 16.7903 53.6603 15.3885 53.6603 13.7262C53.6603 11.7499 51.9866 10.1414 49.928 10.1415C47.8708 10.1415 46.1973 11.7502 46.1973 13.7265C46.1973 15.3887 47.3818 16.7904 48.9822 17.1963L48.9823 23.4239L43.9843 23.424L43.9842 19.9694C43.9842 18.7285 42.932 17.7174 41.6394 17.7174L37.7166 17.7175L37.7164 10.0653L42.8083 6.39609C45.2479 8.24481 48.8575 6.57805 48.8573 3.5847C48.8573 1.60841 47.1835 -0.000132611 45.1257 8.19996e-09C42.4792 8.19996e-09 40.6773 2.58356 41.6717 4.94073L36.203 8.88549C35.9647 9.05405 35.8243 9.32207 35.8245 9.61317L35.8246 17.7174L31.7536 17.7175L31.7532 1.81556C31.7532 1.46319 31.5372 1.13389 31.2008 0.988279C29.8348 0.390829 28.3762 0.0844784 26.866 0.0844784C21.1093 0.084611 16.4263 4.58876 16.4265 10.1192C11.1101 8.44254 5.65193 12.2481 5.65207 17.6032C5.65207 18.7368 5.90155 19.8475 6.38215 20.8586C2.57331 22.36 0 25.9756 0 30.0047C0.000137987 34.0261 2.57373 37.6416 6.38257 39.1428C3.94186 44.3168 7.87393 50.2803 13.8522 50.2802C14.7313 50.2802 15.6016 50.1423 16.4273 49.8818C16.4274 55.4226 21.11 59.9162 26.8674 59.916C28.3776 59.916 29.8361 59.6173 31.2022 59.0121C31.5385 58.8666 31.7544 58.5449 31.7544 58.1848L31.754 42.2906L35.825 42.2904L35.8252 50.3946C35.8252 50.6781 35.9655 50.9462 36.2038 51.1223L41.6729 55.0671C40.6795 57.379 42.4585 60 45.1271 60C47.1851 60 48.8586 58.3913 48.8586 56.415C48.8584 53.4083 45.2219 51.7541 42.8094 53.6116L37.7172 49.9427L37.7171 42.2904L41.6399 42.2903C42.9326 42.2903 43.9847 41.2792 43.9846 40.0383L43.9845 36.576L48.9825 36.5759L48.9826 42.8034C47.3822 43.2095 46.1979 44.6113 46.198 46.2734C46.198 48.2497 47.8718 49.8582 49.9288 49.8581C51.9874 49.8581 53.661 48.2494 53.661 46.2731C53.661 44.611 52.4766 43.2092 50.8747 42.8033L50.8745 35.6719C50.8745 35.1664 50.4522 34.7604 49.9285 34.7604L43.9846 34.7606L43.9845 30.9076L52.659 30.9073C53.079 32.4469 54.5384 33.5882 56.2694 33.5882C58.3265 33.5882 60.0001 31.9795 60 30.0032C60 28.0271 58.3262 26.4184 56.2693 26.4186Z" fill="#6D30FB"/>
</g>
<defs>
<clipPath id="clip0_85_3793">
<rect width="60" height="60" fill="white"/>
</clipPath>
</defs>
</svg>
