<svg width="60" height="60" viewBox="0 0 60 60" fill="none" xmlns="http://www.w3.org/2000/svg">
<g clip-path="url(#clip0_85_3560)">
<path d="M59.0177 27.7627C58.419 27.1624 57.6232 26.832 56.7766 26.832C55.3124 26.832 54.0775 27.8307 53.7161 29.1827H49.7338C49.6857 28.029 49.538 26.8754 49.2892 25.7432C49.2213 25.4338 48.9806 25.1916 48.6718 25.1215L45.7437 24.457C45.5427 23.8877 45.311 23.3295 45.051 22.7889L46.6528 20.247C46.8217 19.9791 46.8205 19.6378 46.6499 19.371C46.0279 18.3983 45.3151 17.4795 44.5291 16.6268L47.3463 13.8096C47.8236 14.0869 48.3671 14.2354 48.9338 14.2354C49.7802 14.2354 50.576 13.9057 51.1755 13.3061C52.4072 12.07 52.4068 10.0615 51.1745 8.82926C50.5759 8.23055 49.7802 7.9009 48.9338 7.9009C48.0874 7.9009 47.2916 8.23055 46.6931 8.82926C45.6601 9.86215 45.4932 11.4402 46.1922 12.6524L43.3734 15.4711C42.5208 14.6851 41.6019 13.9724 40.6293 13.3505C40.3622 13.1798 40.0204 13.179 39.7523 13.3481L37.2132 14.9527C36.6705 14.6925 36.1118 14.4607 35.5437 14.2602L34.882 11.3295C34.8122 11.02 34.5697 10.7789 34.2599 10.7111C33.1322 10.4638 31.9774 10.3185 30.8174 10.2715V6.28406C32.1693 5.92313 33.168 4.68937 33.168 3.22664C33.1679 1.47984 31.7468 0.0585938 30 0.0585938C28.255 0.0585938 26.8352 1.47973 26.8352 3.22664C26.8352 4.68902 27.8326 5.92254 29.1827 6.28383V10.2713C28.0245 10.3184 26.8709 10.4636 25.7435 10.7107C25.4337 10.7786 25.1911 11.0197 25.1214 11.329L24.4597 14.2594C23.89 14.46 23.3311 14.6917 22.7896 14.9521L20.2511 13.3479C19.9832 13.1788 19.6413 13.1796 19.3741 13.3502C18.4018 13.972 17.483 14.6848 16.6297 15.4711L13.8097 12.6534C14.0873 12.1755 14.2357 11.6312 14.2351 11.0639C14.2343 10.2183 13.9043 9.42434 13.307 8.82914C12.7084 8.23043 11.9132 7.90078 11.068 7.90078C10.2227 7.90078 9.4275 8.23043 8.83008 8.82797C8.23148 9.42422 7.90148 10.2183 7.90078 11.0639C7.89996 11.9112 8.22973 12.7077 8.82902 13.307C9.42762 13.9057 10.2229 14.2354 11.0681 14.2354C11.634 14.2354 12.1772 14.0869 12.6543 13.8096L15.4739 16.6268C14.6877 17.4791 13.9743 18.3979 13.3509 19.3704C13.1797 19.6375 13.1786 19.9794 13.348 20.2477L14.9524 22.7895C14.6926 23.3297 14.4608 23.888 14.26 24.4571L11.3317 25.1216C11.0235 25.1916 10.7831 25.4329 10.7147 25.7414C10.4653 26.8639 10.3173 28.0184 10.2696 29.1828H6.28758C5.92617 27.8309 4.69125 26.8321 3.22699 26.8321C1.47973 26.832 0.0585938 28.2532 0.0585938 30C0.0585938 31.7468 1.47973 33.168 3.22664 33.168C4.6909 33.168 5.92582 32.1693 6.28723 30.8173H10.2693C10.317 31.9819 10.465 33.1362 10.7143 34.2587C10.783 34.5675 11.0236 34.8089 11.332 34.8786L14.2593 35.54C14.4598 36.1098 14.6916 36.6689 14.9521 37.2107L13.3477 39.7525C13.1782 40.0207 13.1794 40.3627 13.3506 40.6297C13.9739 41.6023 14.6875 42.521 15.4736 43.3733L12.6533 46.1911C11.4424 45.4909 9.86391 45.6579 8.82902 46.6929C8.22961 47.2922 7.89996 48.0889 7.90066 48.9362C7.90148 49.7817 8.23148 50.5758 8.82891 51.1709C9.4275 51.7696 10.2227 52.0992 11.068 52.0992C11.9133 52.0992 12.7085 51.7696 13.3059 51.172C13.9044 50.5758 14.2344 49.7817 14.2351 48.9362C14.2356 48.3688 14.0873 47.8245 13.8097 47.3464L16.6297 44.5289C17.483 45.3151 18.4018 46.028 19.3741 46.6498C19.6413 46.8205 19.9832 46.8213 20.2511 46.6521L22.7896 45.0479C23.3311 45.3082 23.89 45.54 24.4597 45.7406L25.1214 48.671C25.1912 48.9804 25.4337 49.2214 25.7435 49.2893C26.8709 49.5364 28.0243 49.6832 29.1827 49.7307V53.7163C27.8326 54.0776 26.8352 55.311 26.8352 56.7735C26.8352 58.5203 28.255 59.9415 30 59.9415C31.7468 59.9415 33.1679 58.5204 33.1679 56.7735C33.1679 55.3107 32.1693 54.0771 30.8173 53.7161V49.7309C31.9773 49.6834 33.1321 49.5366 34.2598 49.2894C34.5696 49.2216 34.8122 48.9804 34.8819 48.671L35.5434 45.7404C36.1155 45.5388 36.6744 45.3071 37.2135 45.048L39.7521 46.6523C40.0201 46.8216 40.3619 46.8207 40.629 46.65C41.6017 46.028 42.5205 45.3152 43.3733 44.5293L46.1917 47.3477C45.4929 48.5596 45.6596 50.138 46.6929 51.1712C47.2915 51.7699 48.0872 52.0996 48.9335 52.0996C49.78 52.0996 50.5758 51.7699 51.1743 51.1712H51.1741C52.4065 49.939 52.407 47.9306 51.1741 46.6932C50.1388 45.6577 48.5593 45.4908 47.3468 46.1916L44.5289 43.3737C45.3149 42.521 46.0276 41.6021 46.6496 40.6295C46.8203 40.3627 46.8214 40.0214 46.6526 39.7535L45.0507 37.2116C45.3107 36.671 45.5426 36.1126 45.7434 35.5434L48.6716 34.879C48.9805 34.8089 49.2211 34.5666 49.2889 34.2573C49.5376 33.125 49.6854 31.9714 49.7336 30.8177H53.7158C54.0772 32.1697 55.3121 33.1685 56.7764 33.1685C57.623 33.1685 58.4189 32.8379 59.0175 32.2378C59.6148 31.6391 59.9427 30.8445 59.9412 30.0005C59.943 29.1559 59.615 28.3615 59.0177 27.7627ZM47.8487 9.98473C48.1386 9.69492 48.5239 9.5352 48.9336 9.5352C49.3433 9.5352 49.7286 9.69492 50.0184 9.98473H50.0186C50.6147 10.581 50.6142 11.5533 50.0184 12.1512C49.7286 12.441 49.3433 12.6007 48.9336 12.6007C48.5239 12.6007 48.1386 12.441 47.8499 12.1522C47.253 11.5533 47.2526 10.581 47.8487 9.98473ZM12.1515 12.1507C12.1514 12.1508 12.1512 12.1509 12.1511 12.1512C11.8612 12.441 11.4766 12.6007 11.068 12.6007C10.6593 12.6007 10.2748 12.441 9.98484 12.1511C9.69457 11.8609 9.53508 11.4754 9.53531 11.0653C9.53578 10.6569 9.69504 10.2736 9.98496 9.98473C10.2748 9.69492 10.6594 9.5352 11.068 9.5352C11.4768 9.5352 11.8612 9.69492 12.1522 9.98578C12.441 10.2734 12.6002 10.6568 12.6006 11.0652C12.6008 11.4751 12.4414 11.8605 12.1515 12.1507ZM3.22664 31.5335C2.38102 31.5335 1.69313 30.8456 1.69313 30C1.69313 29.1544 2.38102 28.4665 3.22664 28.4665C4.07227 28.4665 4.76016 29.1544 4.76016 30C4.76016 30.8456 4.07227 31.5335 3.22664 31.5335ZM12.1511 50.0153C11.8612 50.3051 11.4766 50.4648 11.068 50.4648C10.6593 50.4648 10.2748 50.3051 9.98379 50.0142C9.69504 49.7265 9.53578 49.3431 9.53531 48.9348C9.53496 48.5249 9.69457 48.1391 9.98484 47.8488C10.2836 47.5502 10.6758 47.4009 11.068 47.4009C11.4602 47.4009 11.8525 47.5502 12.1511 47.8488C12.4413 48.1391 12.6008 48.5246 12.6006 48.9348C12.6002 49.3431 12.441 49.7265 12.1511 50.0153ZM47.8487 47.8488C48.148 47.5495 48.5412 47.4 48.9341 47.4C49.3267 47.4 49.719 47.5493 50.0174 47.8477C50.6142 48.4466 50.6147 49.4189 50.0186 50.0152C50.0184 50.0152 50.0184 50.0152 50.0184 50.0152C49.7286 50.305 49.3433 50.4647 48.9336 50.4647C48.5239 50.4647 48.1386 50.305 47.8487 50.0152C47.2526 49.419 47.253 48.4467 47.8487 47.8488ZM28.4699 3.22664C28.4699 2.38102 29.1562 1.69313 30 1.69313C30.8455 1.69313 31.5334 2.38102 31.5334 3.22664C31.5334 4.07039 30.8455 4.75676 30 4.75676C29.1562 4.75676 28.4699 4.07039 28.4699 3.22664ZM31.5334 56.7734C31.5334 57.619 30.8455 58.3069 30 58.3069C29.1562 58.3069 28.4699 57.619 28.4699 56.7734C28.4699 55.9296 29.1562 55.2432 30 55.2432C30.8455 55.2432 31.5334 55.9296 31.5334 56.7734ZM47.7963 33.401L44.935 34.0502C44.6531 34.1142 44.4261 34.3222 44.3377 34.5973C44.0843 35.3857 43.765 36.1545 43.3884 36.8823C43.2553 37.1396 43.2686 37.4483 43.4229 37.6935L44.9888 40.1786C43.7079 42.0591 42.0595 43.7074 40.179 44.9884L37.6975 43.4202C37.4523 43.2652 37.143 43.252 36.8855 43.3853C36.1615 43.7597 35.3917 44.0789 34.597 44.3344C34.3218 44.4229 34.1136 44.6504 34.0499 44.9326L33.4036 47.796C31.17 48.2189 28.8359 48.2195 26.5993 47.7961L25.9528 44.9325C25.8891 44.6501 25.6806 44.4225 25.4048 44.3341C24.6161 44.0816 23.8465 43.7624 23.1173 43.3853C22.8596 43.2519 22.5505 43.2653 22.3054 43.4202L19.8238 44.9884C17.9447 43.7082 16.2955 42.06 15.0115 40.1784L16.5798 37.6941C16.7346 37.4488 16.7479 37.14 16.6146 36.8824C16.2373 36.153 15.918 35.3835 15.6656 34.5949C15.5775 34.3191 15.3498 34.1106 15.0674 34.0468L12.2054 33.4002C11.9926 32.2891 11.8849 31.1477 11.8849 29.9999C11.8849 28.8518 11.9926 27.7104 12.2055 26.5991L15.0681 25.9496C15.3499 25.8857 15.5769 25.6777 15.6654 25.4026C15.9189 24.6141 16.2382 23.8452 16.6145 23.1176C16.7477 22.86 16.7345 22.5511 16.5798 22.3059L15.0115 19.8216C16.2955 17.94 17.9447 16.2918 19.8238 15.0116L22.3054 16.5798C22.5507 16.7348 22.86 16.7482 23.1173 16.6147C23.8465 16.2376 24.6159 15.9184 25.4048 15.6659C25.6806 15.5776 25.8891 15.3499 25.9528 15.0675L26.5993 12.2039C28.8359 11.7805 31.17 11.7811 33.4036 12.204L34.0499 15.0674C34.1136 15.3496 34.3218 15.577 34.597 15.6656C35.3832 15.9183 36.1536 16.2379 36.8866 16.6154C37.1441 16.748 37.4525 16.7345 37.6975 16.5798L40.179 15.0116C42.0595 16.2926 43.7079 17.9409 44.9888 19.8214L43.4229 22.3065C43.2684 22.5517 43.2553 22.8602 43.3886 23.1177C43.7648 23.8453 44.0842 24.6142 44.3377 25.4027C44.426 25.6778 44.6531 25.8858 44.935 25.9498L47.7963 26.599C48.01 27.722 48.1181 28.8638 48.1181 30C48.1181 31.1362 48.0098 32.2781 47.7963 33.401ZM58.3069 30.0021C58.3079 30.4096 58.1494 30.7935 57.8605 31.083C57.5707 31.3736 57.1859 31.5335 56.7768 31.5335C55.9311 31.5335 55.2432 30.8456 55.2432 30C55.2432 29.1544 55.9311 28.4665 56.7768 28.4665C57.1859 28.4665 57.5708 28.6266 57.8605 28.917C58.1494 29.2065 58.3079 29.5904 58.3069 29.9979V30.0021ZM35.3563 25.4609C35.3563 25.0095 34.9904 24.6436 34.539 24.6436H33.798V22.4537C33.798 22.0023 33.4322 21.6364 32.9808 21.6364C32.5294 21.6364 32.1635 22.0023 32.1635 22.4537V24.6436H30.8174V22.4537C30.8174 22.0023 30.4515 21.6364 30.0001 21.6364C29.5487 21.6364 29.1828 22.0023 29.1828 22.4537V24.6436H27.8399V22.4537C27.8399 22.0023 27.474 21.6364 27.0226 21.6364C26.5712 21.6364 26.2054 22.0023 26.2054 22.4537V24.6436H25.4611C25.0097 24.6436 24.6438 25.0095 24.6438 25.4609V26.202H22.4539C22.0025 26.202 21.6367 26.5678 21.6367 27.0192C21.6367 27.4706 22.0025 27.8365 22.4539 27.8365H24.6438V29.1826H22.4539C22.0025 29.1826 21.6367 29.5485 21.6367 29.9999C21.6367 30.4513 22.0025 30.8171 22.4539 30.8171H24.6438V32.1633H22.4539C22.0025 32.1633 21.6367 32.5291 21.6367 32.9805C21.6367 33.432 22.0025 33.7978 22.4539 33.7978H24.6438V34.5389C24.6438 34.9903 25.0097 35.3562 25.4611 35.3562H26.2054V37.5461C26.2054 37.9975 26.5712 38.3633 27.0226 38.3633C27.474 38.3633 27.8399 37.9975 27.8399 37.5461V35.3562H29.1828V37.5461C29.1828 37.9975 29.5487 38.3633 30.0001 38.3633C30.4515 38.3633 30.8174 37.9975 30.8174 37.5461V35.3562H32.1635V37.5461C32.1635 37.9975 32.5294 38.3633 32.9808 38.3633C33.4322 38.3633 33.798 37.9975 33.798 37.5461V35.3562H34.539C34.9904 35.3562 35.3563 34.9903 35.3563 34.5389V33.7978H37.5496C38.001 33.7978 38.3668 33.432 38.3668 32.9805C38.3668 32.5291 38.001 32.1633 37.5496 32.1633H35.3563V30.8171H37.5496C38.001 30.8171 38.3668 30.4513 38.3668 29.9999C38.3668 29.5485 38.001 29.1826 37.5496 29.1826H35.3563V27.8365H37.5496C38.001 27.8365 38.3668 27.4706 38.3668 27.0192C38.3668 26.5678 38.001 26.202 37.5496 26.202H35.3563V25.4609ZM33.7216 33.7218H26.2781V26.2781H33.7216V33.7218ZM28.0007 32.8166H31.9992C32.4506 32.8166 32.8165 32.4507 32.8165 31.9993V28.0008C32.8165 27.5494 32.4506 27.1835 31.9992 27.1835H28.0007C27.5493 27.1835 27.1834 27.5494 27.1834 28.0008V31.9993C27.1834 32.4507 27.5493 32.8166 28.0007 32.8166ZM28.818 28.818H31.1821V31.1821H28.818V28.818ZM30 17.6909C23.2127 17.6909 17.6909 23.2127 17.6909 30C17.6909 36.7873 23.2127 42.3091 30 42.3091C36.7891 42.3091 42.3123 36.7873 42.3123 30C42.3123 23.2127 36.7891 17.6909 30 17.6909ZM30 40.6746C24.114 40.6746 19.3254 35.8861 19.3254 30C19.3254 24.1139 24.1139 19.3254 30 19.3254C35.8877 19.3254 40.6778 24.1139 40.6778 30C40.6778 35.8861 35.8877 40.6746 30 40.6746Z" fill="#6D30FB"/>
</g>
<defs>
<clipPath id="clip0_85_3560">
<rect width="60" height="60" fill="white"/>
</clipPath>
</defs>
</svg>
