<svg width="60" height="60" viewBox="0 0 60 60" fill="none" xmlns="http://www.w3.org/2000/svg">
<path d="M55.4311 58.2338C55.0734 58.2338 54.7169 58.1343 54.4046 57.9353L46.5464 53.0643H29.1733C27.2259 53.0643 25.6411 51.4801 25.6411 49.5332V32.1784C25.6411 31.7097 26.0214 31.3294 26.4902 31.3294C26.9589 31.3294 27.3392 31.7097 27.3392 32.1784V49.5332C27.3392 50.5437 28.1618 51.3662 29.1733 51.3662H46.7885C46.9466 51.3662 47.1014 51.4104 47.2357 51.4933L55.3072 56.497C55.4062 56.5589 55.4886 56.5368 55.5411 56.507C55.5869 56.4815 55.6638 56.4218 55.6638 56.3025V26.3257C55.6638 25.3141 54.8413 24.4916 53.8297 24.4916H35.4335C34.9647 24.4916 34.5844 24.1113 34.5844 23.6425C34.5844 23.1738 34.9647 22.7935 35.4335 22.7935H53.8297C55.7771 22.7935 57.3619 24.3777 57.3619 26.3257V56.3025C57.3619 57.0067 56.9777 57.6556 56.3586 57.995C56.069 58.1542 55.7495 58.2338 55.4311 58.2338Z" fill="#6D30FB"/>
<path d="M49.2107 47.4947H32.3998C31.2263 47.4947 30.2711 46.5396 30.2711 45.3666V32.1786C30.2711 31.7098 30.6514 31.3295 31.1202 31.3295C31.5889 31.3295 31.9692 31.7098 31.9692 32.1786V45.3666C31.9692 45.6032 32.1621 45.7966 32.3998 45.7966H49.2107C49.444 45.7966 49.6413 45.5998 49.6413 45.3666V31.272C49.6413 31.0421 49.4484 30.8541 49.2107 30.8541H35.3655C34.8967 30.8541 34.5164 30.4738 34.5164 30.0051C34.5164 29.5363 34.8967 29.156 35.3655 29.156H49.2107C50.3843 29.156 51.3394 30.1057 51.3394 31.272V45.3666C51.3394 46.5396 50.3843 47.4947 49.2107 47.4947Z" fill="#6D30FB"/>
<path d="M40.7235 43.4152C40.2548 43.4152 39.8745 43.0349 39.8745 42.5662V36.7101C39.8745 36.2303 39.6899 35.7859 39.3549 35.4564C39.0094 35.1115 38.5589 34.9247 38.0791 34.9247C37.0891 34.9247 36.2837 35.7251 36.2837 36.7101V42.5662C36.2837 43.0349 35.9034 43.4152 35.4346 43.4152C34.9659 43.4152 34.5856 43.0349 34.5856 42.5662V36.7101C34.5856 34.7898 36.1527 33.2266 38.0791 33.2266C39.0127 33.2266 39.89 33.5903 40.55 34.2503C41.2072 34.8948 41.5726 35.7704 41.5726 36.7101V42.5662C41.5726 43.0349 41.1923 43.4152 40.7235 43.4152Z" fill="#6D30FB"/>
<path d="M45.7206 43.1157C45.2519 43.1157 44.8716 42.7354 44.8716 42.2667V34.6274C44.8716 34.1586 45.2519 33.7783 45.7206 33.7783C46.1894 33.7783 46.5697 34.1586 46.5697 34.6274V42.2667C46.5697 42.7354 46.1894 43.1157 45.7206 43.1157Z" fill="#6D30FB"/>
<path d="M47.3032 35.4764H44.1375C43.6688 35.4764 43.2885 35.0961 43.2885 34.6274C43.2885 34.1586 43.6688 33.7783 44.1375 33.7783H47.3032C47.772 33.7783 48.1523 34.1586 48.1523 34.6274C48.1523 35.0961 47.772 35.4764 47.3032 35.4764Z" fill="#6D30FB"/>
<path d="M47.3032 43.1156H44.1375C43.6688 43.1156 43.2885 42.7353 43.2885 42.2665C43.2885 41.7978 43.6688 41.4175 44.1375 41.4175H47.3032C47.772 41.4175 48.1523 41.7978 48.1523 42.2665C48.1523 42.7353 47.772 43.1156 47.3032 43.1156Z" fill="#6D30FB"/>
<path d="M40.7235 39.6576H35.4346C34.9659 39.6576 34.5856 39.2773 34.5856 38.8085C34.5856 38.3398 34.9659 37.9595 35.4346 37.9595H40.7235C41.1923 37.9595 41.5726 38.3398 41.5726 38.8085C41.5726 39.2773 41.1923 39.6576 40.7235 39.6576Z" fill="#6D30FB"/>
<path d="M4.64137 38.3773C4.29699 38.3773 3.95261 38.2899 3.64361 38.1152C3.01401 37.7604 2.63812 37.1214 2.63812 36.4061V5.39229C2.63812 3.39237 4.30031 1.76611 6.34335 1.76611H32.5779C34.6215 1.76611 36.2836 3.39237 36.2836 5.39229V29.4025C36.2836 31.4024 34.6215 33.0286 32.5779 33.0286H14.0711L5.68831 38.0876C5.36715 38.2811 5.00398 38.3773 4.64137 38.3773ZM6.34335 3.46423C5.2367 3.46423 4.33624 4.32876 4.33624 5.39229V36.4061C4.33624 36.531 4.41362 36.6007 4.47885 36.6371C4.5286 36.6648 4.66182 36.7245 4.81107 36.6327L13.3962 31.4521C13.5288 31.3725 13.6803 31.3305 13.8351 31.3305H32.5779C33.6851 31.3305 34.5855 30.466 34.5855 29.4025V5.39229C34.5855 4.32876 33.6851 3.46423 32.5779 3.46423H6.34335Z" fill="#6D30FB"/>
<path d="M19.4656 26.7504C17.3258 26.7504 15.3181 26.4541 13.813 25.9146C11.3316 25.0269 10.8109 23.7091 10.8109 22.7594C10.8109 19.5633 12.6284 16.6867 15.5536 15.2506C15.9743 15.0416 16.4834 15.2174 16.6901 15.6386C16.8969 16.0587 16.7227 16.5673 16.3021 16.774C13.9622 17.9227 12.509 20.2167 12.509 22.7594C12.509 24.023 15.6299 25.0523 19.4656 25.0523C23.3013 25.0523 26.4222 24.023 26.4222 22.7594C26.4222 20.2133 24.9646 17.9149 22.618 16.7629C22.1974 16.5562 22.0233 16.0477 22.23 15.6275C22.4362 15.2063 22.9447 15.0317 23.3665 15.2395C26.299 16.6789 28.1203 19.56 28.1203 22.7594C28.1203 25.7046 23.4583 26.7504 19.4656 26.7504Z" fill="#6D30FB"/>
<path d="M19.4606 18.943C16.2346 18.943 13.6371 15.109 13.6371 11.935C13.6371 8.79964 16.2495 6.24805 19.4606 6.24805C22.6722 6.24805 25.2851 8.79964 25.2851 11.935C25.2851 15.109 22.6871 18.943 19.4606 18.943ZM19.4606 7.94616C17.1859 7.94616 15.3353 9.73603 15.3353 11.935C15.3353 14.2754 17.2777 17.2449 19.4606 17.2449C21.644 17.2449 23.587 14.2754 23.587 11.935C23.587 9.73603 21.7358 7.94616 19.4606 7.94616Z" fill="#6D30FB"/>
</svg>
