<svg width="60" height="60" viewBox="0 0 60 60" fill="none" xmlns="http://www.w3.org/2000/svg">
<path d="M51.9873 27.6996C52.1223 28.0713 52.3383 28.4121 52.6262 28.6999C53.1438 29.2175 53.8321 29.5027 54.5641 29.5027C56.0754 29.5027 57.3048 28.2733 57.3048 26.7621C57.3048 25.2508 56.0754 24.0214 54.5641 24.0214C53.3821 24.0214 52.3724 24.7736 51.9887 25.8246H42.1835V23.729H46.4912C46.7399 23.729 46.9784 23.6302 47.1541 23.4544L53.405 17.2035C53.7634 17.3709 54.157 17.4591 54.5643 17.4591C56.0755 17.4591 57.3049 16.2297 57.3049 14.7186C57.3049 13.2073 56.0755 11.9779 54.5643 11.9779C53.0531 11.9779 51.8237 13.2075 51.8237 14.7186C51.8237 15.1258 51.912 15.5194 52.0793 15.8778L46.103 21.8541H42.1836V21.106C42.1836 19.0872 40.557 17.4421 38.5455 17.4104V16.5332C38.5455 11.8214 34.7121 7.98804 30.0002 7.98804C25.2884 7.98804 21.455 11.8214 21.455 16.5332V17.4104C19.4436 17.4421 17.8168 19.0872 17.8168 21.1061V21.8542H13.8975L7.92094 15.8777C8.08828 15.5193 8.17652 15.1257 8.17652 14.7185C8.17652 13.2072 6.94711 11.9778 5.43598 11.9778C3.92473 11.9778 2.69531 13.2073 2.69531 14.7186C2.69531 15.4505 2.98043 16.1388 3.49805 16.6565C4.01566 17.1741 4.70391 17.4591 5.43598 17.4591C5.8432 17.4591 6.23672 17.3709 6.59508 17.2034L12.846 23.4543C13.0218 23.6301 13.2602 23.7289 13.5089 23.7289H17.8166V25.8244H8.64023C8.25656 24.7735 7.24687 24.0213 6.0648 24.0213C4.55355 24.0213 3.32414 25.2507 3.32414 26.7619C3.32414 27.494 3.60926 28.1823 4.12687 28.6998C4.64449 29.2174 5.33273 29.5026 6.0648 29.5026C7.24687 29.5026 8.25656 28.7505 8.64023 27.6994H17.8165V30.8171H13.5088C13.2601 30.8171 13.0216 30.9159 12.8459 31.0917L6.59496 37.3426C6.2366 37.1751 5.84297 37.0869 5.43574 37.0869C3.92473 37.087 2.69531 38.3164 2.69531 39.8275C2.69531 40.5596 2.98043 41.2477 3.49805 41.7655C4.01566 42.2831 4.70391 42.5682 5.43598 42.5682C6.94711 42.5682 8.17652 41.3388 8.17652 39.8275C8.17652 39.4203 8.08828 39.0267 7.92094 38.6684L13.8973 32.6921H17.8166V33.1301C17.8166 35.1687 19.4752 36.8273 21.5138 36.8273H24.07V40.8101L18.0936 46.7865C17.7354 46.619 17.3416 46.5308 16.9344 46.5308C15.4232 46.5308 14.1938 47.7602 14.1938 49.2714C14.1938 50.0035 14.4789 50.6917 14.9965 51.2094C15.5141 51.727 16.2023 52.0121 16.9344 52.0121C18.4457 52.0121 19.6751 50.7827 19.6751 49.2714C19.6751 48.8642 19.5868 48.4706 19.4194 48.1122L25.6703 41.8613C25.8461 41.6855 25.9448 41.4471 25.9448 41.1984V36.8273H29.0625V46.0671C28.0116 46.4507 27.2593 47.4604 27.2593 48.6425C27.2593 49.3746 27.5445 50.0628 28.0621 50.5804C28.5797 51.098 29.2679 51.3832 30 51.3832C31.5111 51.3832 32.7405 50.1537 32.7405 48.6426C32.7405 47.4605 31.9884 46.4508 30.9375 46.0672V36.8273H33.033V41.1985C33.033 41.4472 33.1318 41.6857 33.3076 41.8614L39.5585 48.1123C39.3911 48.4707 39.3028 48.8643 39.3028 49.2715C39.3028 50.0035 39.5879 50.6917 40.1055 51.2095C40.6232 51.7271 41.3114 52.0122 42.0435 52.0122C43.5547 52.0122 44.7841 50.7828 44.7841 49.2715C44.7841 47.7603 43.5547 46.5309 42.0435 46.5309C41.6362 46.5309 41.2426 46.6191 40.8843 46.7866L34.9079 40.8103V36.8273H38.4861C40.5247 36.8273 42.1833 35.1687 42.1833 33.1301V32.6921H46.1026L52.0789 38.6684C51.9116 39.0268 51.8234 39.4204 51.8234 39.8276C51.8234 40.5597 52.1085 41.2478 52.626 41.7656C53.1435 42.2833 53.8318 42.5683 54.5639 42.5683C56.0752 42.5683 57.3046 41.3389 57.3046 39.8276C57.3046 38.3164 56.0752 37.087 54.5639 37.087C54.1567 37.087 53.763 37.1752 53.4047 37.3427L47.1538 31.0918C46.978 30.916 46.7395 30.8172 46.4909 30.8172H42.1832V27.6996H51.9873ZM54.564 25.8964C55.0413 25.8964 55.4297 26.2846 55.4297 26.7621C55.4297 27.2395 55.0414 27.6277 54.564 27.6277C54.3328 27.6277 54.1154 27.5377 53.952 27.3741C53.7885 27.2107 53.6985 26.9933 53.6985 26.7621C53.6985 26.2846 54.0868 25.8964 54.564 25.8964ZM54.564 13.8528C55.0413 13.8528 55.4297 14.2412 55.4297 14.7185C55.4297 15.1958 55.0414 15.584 54.564 15.584C54.3328 15.584 54.1154 15.494 53.952 15.3304C53.7885 15.1669 53.6985 14.9496 53.6985 14.7183C53.6985 14.2412 54.0868 13.8528 54.564 13.8528ZM6.04793 15.3305C5.88434 15.494 5.66707 15.5841 5.43586 15.5841C5.20465 15.5841 4.98727 15.494 4.82367 15.3305C4.6602 15.1671 4.5702 14.9497 4.5702 14.7185C4.5702 14.2412 4.95844 13.8528 5.43586 13.8528C5.91316 13.8528 6.30141 14.2412 6.30141 14.7185C6.30152 14.9497 6.21152 15.1671 6.04793 15.3305ZM6.0648 27.6276C5.83359 27.6276 5.61621 27.5376 5.45273 27.374C5.28926 27.2104 5.19914 26.9932 5.19914 26.7619C5.19914 26.2846 5.58738 25.8963 6.0648 25.8963C6.54211 25.8963 6.93035 26.2845 6.93035 26.7619C6.93035 27.2394 6.54211 27.6276 6.0648 27.6276ZM5.43598 40.6932C5.20465 40.6932 4.98738 40.6032 4.82379 40.4396C4.66031 40.2761 4.57031 40.0587 4.57031 39.8275C4.57031 39.3502 4.95855 38.9619 5.43598 38.9619C5.66719 38.9619 5.88457 39.052 6.04805 39.2153C6.21152 39.3789 6.30164 39.5962 6.30164 39.8275C6.30152 40.305 5.91316 40.6932 5.43598 40.6932ZM16.9344 50.1371C16.7032 50.1371 16.4858 50.0471 16.3222 49.8835C16.1588 49.72 16.0687 49.5026 16.0687 49.2714C16.0687 48.7941 16.457 48.4058 16.9344 48.4058C17.1656 48.4058 17.383 48.4959 17.5465 48.6592C17.7101 48.8228 17.8001 49.0402 17.8001 49.2714C17.8001 49.7487 17.4117 50.1371 16.9344 50.1371ZM30 49.5082C29.7687 49.5082 29.5513 49.4182 29.3878 49.2547C29.2243 49.0912 29.1343 48.8738 29.1343 48.6426C29.1343 48.1653 29.5226 47.7769 30 47.7769C30.4773 47.7769 30.8655 48.1652 30.8655 48.6426C30.8655 49.1198 30.4773 49.5082 30 49.5082ZM41.4314 48.6594C41.595 48.4959 41.8123 48.4058 42.0435 48.4058C42.5208 48.4058 42.9091 48.794 42.9091 49.2714C42.9091 49.7489 42.5209 50.1371 42.0435 50.1371C41.8123 50.1371 41.5949 50.0471 41.4314 49.8835C41.2679 49.7199 41.1778 49.5026 41.1778 49.2714C41.1778 49.0402 41.2679 48.823 41.4314 48.6594ZM30 9.8628C33.678 9.8628 36.6703 12.8551 36.6703 16.533V17.4087H23.3298V16.533C23.3298 12.8551 26.322 9.8628 30 9.8628ZM40.3084 33.1301C40.3084 34.1349 39.4909 34.9523 38.4862 34.9523H21.5136C20.5089 34.9523 19.6915 34.1349 19.6915 33.1301V21.1059C19.6915 20.1011 20.5089 19.2837 21.5136 19.2837H38.4862C39.491 19.2837 40.3084 20.1012 40.3084 21.1059V33.1301ZM53.952 39.2155C54.1155 39.052 54.3328 38.9619 54.564 38.9619C55.0413 38.9619 55.4297 39.3501 55.4297 39.8275C55.4297 40.305 55.0414 40.6932 54.564 40.6932C54.3328 40.6932 54.1154 40.6032 53.952 40.4396C53.7885 40.2761 53.6985 40.0587 53.6985 39.8275C53.6985 39.5963 53.7886 39.3789 53.952 39.2155ZM30.9375 25.5229V28.7131C30.9375 29.2309 30.5177 29.6506 30 29.6506C29.4823 29.6506 29.0625 29.2309 29.0625 28.7131V25.5229C29.0625 25.0052 29.4823 24.5854 30 24.5854C30.5177 24.5854 30.9375 25.0052 30.9375 25.5229Z" fill="#6D30FB"/>
</svg>
