<svg width="60" height="60" viewBox="0 0 60 60" fill="none" xmlns="http://www.w3.org/2000/svg">
<path d="M29.0625 25.3125H27.1875C26.5661 25.3132 25.9703 25.5603 25.5309 25.9997C25.0915 26.4391 24.8444 27.0348 24.8438 27.6562V33.75C24.8438 33.9986 24.9425 34.2371 25.1183 34.4129C25.2942 34.5887 25.5326 34.6875 25.7812 34.6875C26.0299 34.6875 26.2683 34.5887 26.4442 34.4129C26.62 34.2371 26.7188 33.9986 26.7188 33.75V30.9375H29.5312V33.75C29.5312 33.9986 29.63 34.2371 29.8058 34.4129C29.9817 34.5887 30.2201 34.6875 30.4688 34.6875C30.7174 34.6875 30.9558 34.5887 31.1317 34.4129C31.3075 34.2371 31.4062 33.9986 31.4062 33.75V27.6562C31.4056 27.0348 31.1585 26.4391 30.7191 25.9997C30.2797 25.5603 29.6839 25.3132 29.0625 25.3125ZM26.7188 29.0625V27.6562C26.7189 27.532 26.7683 27.4128 26.8562 27.325C26.9441 27.2371 27.0632 27.1877 27.1875 27.1875H29.0625C29.1868 27.1877 29.3059 27.2371 29.3938 27.325C29.4817 27.4128 29.5311 27.532 29.5312 27.6562V29.0625H26.7188Z" fill="#6D30FB"/>
<path d="M33.2812 26.25V33.75C33.2812 33.9986 33.38 34.2371 33.5558 34.4129C33.7317 34.5887 33.9701 34.6875 34.2188 34.6875C34.4674 34.6875 34.7058 34.5887 34.8817 34.4129C35.0575 34.2371 35.1562 33.9986 35.1562 33.75V26.25C35.1562 26.0014 35.0575 25.7629 34.8817 25.5871C34.7058 25.4113 34.4674 25.3125 34.2188 25.3125C33.9701 25.3125 33.7317 25.4113 33.5558 25.5871C33.38 25.7629 33.2812 26.0014 33.2812 26.25Z" fill="#6D30FB"/>
<path d="M52.7535 16.8759C49.9364 11.9806 39.3035 14.2118 30.0164 18.5963L30.0147 18.5975C27.8605 17.5729 25.6446 16.6833 23.3799 15.9339C24.9937 9.51914 27.5945 5.625 30.0228 5.625C30.5196 5.66181 31.0036 5.80044 31.4446 6.03228C31.8856 6.26413 32.2742 6.58422 32.5863 6.97266C32.6709 7.06199 32.7723 7.13377 32.8847 7.18391C32.9971 7.23405 33.1182 7.26156 33.2412 7.26488C33.3643 7.26819 33.4867 7.24725 33.6016 7.20323C33.7166 7.15922 33.8217 7.093 33.911 7.00836C34.0004 6.92372 34.0721 6.82231 34.1223 6.70993C34.1724 6.59755 34.1999 6.47639 34.2032 6.35337C34.2066 6.23036 34.1856 6.10789 34.1416 5.99297C34.0976 5.87805 34.0314 5.77292 33.9467 5.68359C33.4636 5.10556 32.8649 4.63494 32.1892 4.30194C31.5134 3.96895 30.7755 3.78095 30.0228 3.75C26.4542 3.75 23.3737 8.3242 21.5807 15.3855C14.5714 13.4101 9.07363 13.7891 7.29207 16.875C4.45801 21.7813 11.6802 29.8351 20.1476 35.694C20.3371 38.0899 20.6772 40.4715 21.1657 42.8246C14.7822 44.6668 10.1583 44.3384 8.91438 42.1847C8.69796 41.7381 8.57586 41.2518 8.5557 40.7559C8.53554 40.26 8.61774 39.7653 8.7972 39.3027C8.83206 39.1846 8.84333 39.0608 8.83036 38.9384C8.81739 38.816 8.78044 38.6973 8.7216 38.5892C8.66277 38.481 8.58322 38.3855 8.48748 38.3081C8.39174 38.2307 8.2817 38.173 8.16363 38.1381C8.04557 38.1032 7.92179 38.092 7.79937 38.1049C7.67695 38.1179 7.55828 38.1549 7.45014 38.2137C7.23174 38.3325 7.06949 38.5332 6.99907 38.7717C6.74137 39.4775 6.63431 40.2296 6.68477 40.9793C6.73523 41.7291 6.9421 42.46 7.29207 43.125C8.34863 44.9551 10.7116 45.834 13.9232 45.834C16.5187 45.7711 19.0939 45.3597 21.5798 44.6111C23.3727 51.6743 26.4536 56.25 30.0228 56.25C35.6911 56.25 39.0549 45.9701 39.898 35.6979C41.8628 34.3449 43.7415 32.8708 45.523 31.2841C50.269 35.8885 52.342 40.0856 51.1312 42.1848C50.8531 42.5959 50.4934 42.9454 50.0744 43.2116C49.6554 43.4778 49.1862 43.6549 48.6959 43.732C48.5761 43.7606 48.4632 43.8125 48.3635 43.8848C48.2638 43.9571 48.1793 44.0482 48.1149 44.1532C48.0505 44.2581 48.0073 44.3746 47.9879 44.4962C47.9685 44.6178 47.9733 44.742 48.0019 44.8618C48.0597 45.1036 48.2112 45.3126 48.423 45.4427C48.528 45.5072 48.6445 45.5503 48.7661 45.5697C48.8877 45.5891 49.0119 45.5843 49.1317 45.5557C49.8698 45.4207 50.5723 45.1353 51.1954 44.7171C51.8185 44.2989 52.3489 43.757 52.7535 43.125C54.5353 40.0369 52.1143 35.0835 46.8977 30C52.1143 24.9165 54.5353 19.9634 52.7535 16.8759ZM19.9162 30C19.9162 31.1145 19.9447 32.208 19.9942 33.2824C11.8727 27.3686 7.15365 20.8634 8.91621 17.8125C10.1584 15.6606 14.7823 15.3321 21.1658 17.1746C20.3102 21.3955 19.8914 25.6933 19.9162 30ZM30.0228 54.375C27.5945 54.375 24.9938 50.4809 23.3799 44.0661C27.4497 42.6989 31.3687 40.9184 35.0756 38.7524C36.0434 38.1932 36.9803 37.6217 37.8863 37.0378C36.8234 47.0349 33.548 54.375 30.0228 54.375ZM34.1381 37.1283C30.593 39.2029 26.8513 40.9218 22.9678 42.2598C22.1617 38.2235 21.7675 34.1159 21.7912 30C21.7674 25.8839 22.1617 21.776 22.9679 17.7395C26.8515 19.0776 30.5931 20.7967 34.1381 22.8717C37.7025 24.9045 41.0522 27.2928 44.1358 29.9999C41.0522 32.7072 37.7026 35.0955 34.1381 37.1283ZM45.5229 28.7157C42.3047 25.8761 38.804 23.3736 35.0756 21.2476C34.1077 20.6895 33.1446 20.1642 32.1862 19.6718C41.37 15.607 49.3821 14.7759 51.1294 17.8125C52.3413 19.9134 50.2687 24.1112 45.5229 28.7157Z" fill="#6D30FB"/>
<path d="M33.3278 11.1484C33.3278 11.7047 33.4928 12.2485 33.8018 12.711C34.1109 13.1735 34.5501 13.534 35.064 13.7468C35.5779 13.9597 36.1434 14.0154 36.689 13.9069C37.2346 13.7984 37.7357 13.5305 38.1291 13.1372C38.5224 12.7438 38.7903 12.2427 38.8988 11.6971C39.0073 11.1516 38.9516 10.5861 38.7387 10.0721C38.5259 9.55822 38.1654 9.11897 37.7029 8.80993C37.2404 8.50089 36.6966 8.33594 36.1403 8.33594C35.3947 8.33675 34.6798 8.63333 34.1525 9.1606C33.6252 9.68787 33.3286 10.4028 33.3278 11.1484ZM36.1403 10.2109C36.3257 10.2109 36.507 10.2659 36.6612 10.3689C36.8153 10.4719 36.9355 10.6184 37.0065 10.7897C37.0774 10.961 37.096 11.1495 37.0598 11.3313C37.0236 11.5132 36.9344 11.6802 36.8032 11.8114C36.6721 11.9425 36.5051 12.0318 36.3232 12.0679C36.1414 12.1041 35.9529 12.0855 35.7816 12.0146C35.6103 11.9436 35.4638 11.8235 35.3608 11.6693C35.2578 11.5151 35.2028 11.3339 35.2028 11.1484C35.203 10.8998 35.3018 10.6615 35.4776 10.4857C35.6534 10.3099 35.8917 10.2111 36.1403 10.2109Z" fill="#6D30FB"/>
<path d="M10.6383 36.9407C11.1946 36.9407 11.7383 36.7757 12.2009 36.4667C12.6634 36.1576 13.0239 35.7184 13.2367 35.2045C13.4496 34.6906 13.5053 34.1251 13.3968 33.5795C13.2883 33.0339 13.0204 32.5328 12.6271 32.1394C12.2337 31.7461 11.7326 31.4782 11.187 31.3697C10.6414 31.2612 10.0759 31.3169 9.56202 31.5298C9.04811 31.7426 8.60885 32.1031 8.29981 32.5656C7.99077 33.0281 7.82582 33.5719 7.82582 34.1282C7.82663 34.8738 8.12321 35.5887 8.65048 36.116C9.17775 36.6433 9.89265 36.9399 10.6383 36.9407ZM10.6383 33.1907C10.8237 33.1907 11.005 33.2457 11.1592 33.3487C11.3133 33.4517 11.4335 33.5981 11.5045 33.7694C11.5754 33.9407 11.594 34.1292 11.5578 34.3111C11.5216 34.4929 11.4323 34.66 11.3012 34.7911C11.1701 34.9222 11.0031 35.0115 10.8212 35.0477C10.6394 35.0838 10.4509 35.0653 10.2796 34.9943C10.1082 34.9234 9.96183 34.8032 9.85882 34.649C9.7558 34.4949 9.70082 34.3136 9.70082 34.1282C9.70099 33.8796 9.79981 33.6412 9.97559 33.4654C10.1514 33.2897 10.3897 33.1908 10.6383 33.1907Z" fill="#6D30FB"/>
<path d="M43.2897 41.9111C42.7334 41.9111 42.1897 42.0761 41.7271 42.3851C41.2646 42.6942 40.9041 43.1334 40.6913 43.6473C40.4784 44.1613 40.4227 44.7268 40.5312 45.2723C40.6397 45.8179 40.9076 46.319 41.3009 46.7124C41.6943 47.1057 42.1954 47.3736 42.741 47.4821C43.2866 47.5906 43.8521 47.5349 44.366 47.322C44.8799 47.1092 45.3191 46.7487 45.6282 46.2862C45.9372 45.8237 46.1022 45.2799 46.1022 44.7236C46.1014 43.978 45.8048 43.2631 45.2775 42.7358C44.7503 42.2085 44.0354 41.9119 43.2897 41.9111ZM43.2897 45.6611C43.1043 45.6611 42.923 45.6062 42.7688 45.5031C42.6147 45.4001 42.4945 45.2537 42.4235 45.0824C42.3526 44.9111 42.334 44.7226 42.3702 44.5407C42.4064 44.3589 42.4957 44.1918 42.6268 44.0607C42.7579 43.9296 42.9249 43.8403 43.1068 43.8042C43.2886 43.768 43.4771 43.7865 43.6484 43.8575C43.8198 43.9285 43.9662 44.0486 44.0692 44.2028C44.1722 44.357 44.2272 44.5382 44.2272 44.7236C44.227 44.9722 44.1282 45.2106 43.9524 45.3864C43.7766 45.5621 43.5383 45.661 43.2897 45.6611Z" fill="#6D30FB"/>
</svg>
