<svg width="60" height="60" viewBox="0 0 60 60" fill="none" xmlns="http://www.w3.org/2000/svg">
<g clip-path="url(#clip0_85_3721)">
<path d="M38.6364 22H22.6364C20.3636 22 18.5454 20.1819 18.5454 17.9091V10C18.5454 9.45459 18.9091 9.09095 19.4545 9.09095C20 9.09095 20.3636 9.45459 20.3636 10V17.9091C20.3636 19.1819 21.3636 20.1819 22.6364 20.1819H38.7273C40 20.1819 41 19.1819 41 17.9091V9.36368C41 8.81823 41.3636 8.45459 41.9091 8.45459C42.4545 8.45459 42.8182 8.81823 42.8182 9.36368V17.9091C42.8182 20.091 41 22 38.6364 22Z" fill="#6D30FB"/>
<path d="M30.6364 13.8183C30.5454 13.8183 30.4545 13.8183 30.3636 13.8183L13.2727 8.18191C12.9091 8.091 12.6364 7.72736 12.6364 7.27282C12.6364 6.81827 12.9091 6.54554 13.2727 6.36372L30.3636 0.90918H30.9091L48 6.45463C48.3636 6.54554 48.6364 6.90918 48.6364 7.36372C48.6364 7.81827 48.3636 8.091 48 8.27282L30.9091 13.7274C30.8182 13.8183 30.7273 13.8183 30.6364 13.8183ZM16.5454 7.36372L30.6364 11.9092L44.7273 7.36372L30.6364 2.81827L16.5454 7.36372Z" fill="#6D30FB"/>
<path d="M47.7273 14.4546C47.1818 14.4546 46.8182 14.091 46.8182 13.5455V7.36368C46.8182 6.81823 47.1818 6.45459 47.7273 6.45459C48.2727 6.45459 48.6364 6.81823 48.6364 7.36368V13.5455C48.6364 14.091 48.1818 14.4546 47.7273 14.4546Z" fill="#6D30FB"/>
<path d="M47.7273 19.1819C45.9091 19.1819 44.4545 17.7274 44.4545 15.9092C44.4545 14.091 45.9091 12.6365 47.7273 12.6365C49.5454 12.6365 51 14.091 51 15.9092C51 17.7274 49.5454 19.1819 47.7273 19.1819ZM47.7273 14.4547C46.9091 14.4547 46.2727 15.091 46.2727 15.9092C46.2727 16.7274 46.9091 17.3637 47.7273 17.3637C48.5454 17.3637 49.1818 16.7274 49.1818 15.9092C49.1818 15.091 48.5454 14.4547 47.7273 14.4547Z" fill="#6D30FB"/>
<path d="M30.2727 59.0909C29 59.0909 27.7273 58.9091 26.4545 58.6363C26 58.5454 25.7273 58.0909 25.7273 57.6363C25.9091 56.2727 25.4545 55.1818 24.6364 54.8182C23.8182 54.4545 22.7273 54.9091 21.8182 55.9091C21.5455 56.2727 21 56.3636 20.6364 56.0909C18.5455 54.7273 16.8182 52.9091 15.5455 50.8182C15.2727 50.4545 15.3636 49.9091 15.7273 49.6363C16.8182 48.8182 17.2727 47.6363 16.9091 46.8182C16.5455 46 15.4545 45.5454 14.0909 45.6363C13.6364 45.7273 13.1818 45.3636 13.0909 44.9091C12.6364 42.4545 12.6364 40 13.1818 37.5454C13.2727 37.0909 13.7273 36.8182 14.1818 36.8182C15.5455 37 16.6364 36.5454 17 35.7272C17.3636 34.9091 16.9091 33.8182 15.9091 32.9091C15.4545 32.7273 15.3636 32.2727 15.6364 31.8182C17 29.7272 18.8182 28 20.9091 26.7272C21.2727 26.4545 21.8182 26.5454 22.0909 26.9091C22.9091 28 24.0909 28.4545 24.9091 28.0909C25.7273 27.7272 26.1818 26.6363 26.0909 25.2727C26.0909 24.8182 26.3636 24.3636 26.8182 24.2727C29.2727 23.8182 31.7273 23.8182 34.1818 24.3636C34.6364 24.4545 34.9091 24.9091 34.9091 25.3636C34.7273 26.7272 35.1818 27.8182 36 28.1818C36.8182 28.5454 37.9091 28.0909 38.8182 27.0909C39.0909 26.7272 39.6364 26.6363 40 26.9091C42.0909 28.2727 43.8182 30.0909 45.0909 32.1818C45.3636 32.5454 45.2727 33.0909 44.9091 33.3636C43.8182 34.1818 43.3636 35.3636 43.7273 36.1818C44.0909 37 45.1818 37.4545 46.5454 37.3636C47 37.3636 47.4545 37.6363 47.5454 38.0909C48 40.5454 48 43 47.4545 45.4545C47.3636 45.9091 46.9091 46.1818 46.4545 46.1818C45.0909 46 44 46.4545 43.6364 47.2727C43.2727 48.0909 43.7273 49.1818 44.7273 50.0909C45.0909 50.3636 45.1818 50.9091 44.9091 51.2727C43.5454 53.3636 41.7273 55.0909 39.6364 56.3636C39.2727 56.6363 38.7273 56.5454 38.4545 56.1818C37.6364 55.0909 36.4545 54.6363 35.6364 55C34.8182 55.3636 34.3636 56.4545 34.4545 57.8182C34.4545 58.2727 34.1818 58.7272 33.7273 58.8182C32.5455 59 31.3636 59.0909 30.2727 59.0909ZM27.5455 57C29.2727 57.2727 30.9091 57.3636 32.6364 57.0909C32.7273 55.2727 33.6364 53.8182 35 53.2727C36.3636 52.7273 38 53.1818 39.2727 54.3636C40.6364 53.3636 41.9091 52.1818 42.9091 50.8182C41.7273 49.4545 41.2727 47.8182 41.9091 46.4545C42.4545 45.0909 44 44.2727 45.7273 44.1818C46 42.4545 46.0909 40.8182 45.8182 39.0909C44 39 42.5454 38.1818 42 36.7273C41.4545 35.2727 41.9091 33.7273 43.0909 32.4545C42.0909 31.0909 40.9091 29.8182 39.5454 28.8182C38.1818 30 36.5455 30.4545 35.1818 29.8182C33.8182 29.2727 33 27.7273 32.9091 26C31.1818 25.7273 29.5455 25.6363 27.8182 25.9091C27.7273 27.7272 26.9091 29.1818 25.4545 29.7273C24.0909 30.2727 22.4545 29.8182 21.1818 28.6363C19.8182 29.6363 18.5455 30.8182 17.5455 32.1818C18.7273 33.5454 19.1818 35.1818 18.5455 36.5454C18 37.9091 16.4545 38.7273 14.7273 38.8182C14.4545 40.5454 14.3636 42.1818 14.6364 43.9091C16.4545 44 17.9091 44.8182 18.4545 46.2727C19 47.6363 18.5455 49.2727 17.3636 50.5454C18.3636 51.9091 19.5455 53.1818 20.9091 54.1818C22.2727 53 23.9091 52.5454 25.2727 53.1818C26.6364 53.7273 27.4545 55.2727 27.5455 57Z" fill="#6D30FB"/>
<path d="M35.1818 48.3636H25.2727C24.0909 48.3636 23.1818 47.4545 23.1818 46.2727V36.3636C23.1818 35.1818 24.0909 34.2727 25.2727 34.2727H35.1818C36.3636 34.2727 37.2727 35.1818 37.2727 36.3636V46.2727C37.2727 47.4545 36.3636 48.3636 35.1818 48.3636ZM25.2727 36.0909C25.0909 36.0909 25 36.1818 25 36.3636V46.2727C25 46.4545 25.0909 46.5454 25.2727 46.5454H35.1818C35.3636 46.5454 35.4546 46.4545 35.4546 46.2727V36.3636C35.4546 36.1818 35.3636 36.0909 35.1818 36.0909H25.2727Z" fill="#6D30FB"/>
<path d="M26.4545 36.0908C25.9091 36.0908 25.5454 35.7272 25.5454 35.1818V32.7272C25.5454 32.1818 25.9091 31.8181 26.4545 31.8181C27 31.8181 27.3636 32.1818 27.3636 32.7272V35.1818C27.3636 35.7272 27 36.0908 26.4545 36.0908Z" fill="#6D30FB"/>
<path d="M30.2727 36.0908C29.7273 36.0908 29.3636 35.7272 29.3636 35.1818V32.7272C29.3636 32.1818 29.7273 31.8181 30.2727 31.8181C30.8182 31.8181 31.1818 32.1818 31.1818 32.7272V35.1818C31.1818 35.7272 30.7273 36.0908 30.2727 36.0908Z" fill="#6D30FB"/>
<path d="M34 36.0908C33.4545 36.0908 33.0909 35.7272 33.0909 35.1818V32.7272C33.0909 32.1818 33.4545 31.8181 34 31.8181C34.5455 31.8181 34.9091 32.1818 34.9091 32.7272V35.1818C34.9091 35.7272 34.5455 36.0908 34 36.0908Z" fill="#6D30FB"/>
<path d="M26.4545 51.2727C25.9091 51.2727 25.5454 50.9091 25.5454 50.3636V47.9091C25.5454 47.3636 25.9091 47 26.4545 47C27 47 27.3636 47.3636 27.3636 47.9091V50.3636C27.3636 50.9091 27 51.2727 26.4545 51.2727Z" fill="#6D30FB"/>
<path d="M30.2727 51.2727C29.7273 51.2727 29.3636 50.9091 29.3636 50.3636V47.9091C29.3636 47.3636 29.7273 47 30.2727 47C30.8182 47 31.1818 47.3636 31.1818 47.9091V50.3636C31.1818 50.9091 30.7273 51.2727 30.2727 51.2727Z" fill="#6D30FB"/>
<path d="M34 51.2727C33.4545 51.2727 33.0909 50.9091 33.0909 50.3636V47.9091C33.0909 47.3636 33.4545 47 34 47C34.5455 47 34.9091 47.3636 34.9091 47.9091V50.3636C34.9091 50.9091 34.5455 51.2727 34 51.2727Z" fill="#6D30FB"/>
<path d="M23.9091 46.2728H21.4545C20.9091 46.2728 20.5454 45.9091 20.5454 45.3637C20.5454 44.8182 20.9091 44.4546 21.4545 44.4546H23.9091C24.4545 44.4546 24.8182 44.8182 24.8182 45.3637C24.8182 45.9091 24.3636 46.2728 23.9091 46.2728Z" fill="#6D30FB"/>
<path d="M23.9091 42.4544H21.4545C20.9091 42.4544 20.5454 42.0908 20.5454 41.5453C20.5454 40.9999 20.9091 40.6362 21.4545 40.6362H23.9091C24.4545 40.6362 24.8182 40.9999 24.8182 41.5453C24.8182 42.0908 24.3636 42.4544 23.9091 42.4544Z" fill="#6D30FB"/>
<path d="M23.9091 38.6363H21.4545C20.9091 38.6363 20.5454 38.2727 20.5454 37.7272C20.5454 37.1818 20.9091 36.8181 21.4545 36.8181H23.9091C24.4545 36.8181 24.8182 37.1818 24.8182 37.7272C24.8182 38.2727 24.3636 38.6363 23.9091 38.6363Z" fill="#6D30FB"/>
<path d="M39.0909 46.2728H36.6364C36.0909 46.2728 35.7273 45.9091 35.7273 45.3637C35.7273 44.8182 36.0909 44.4546 36.6364 44.4546H39.0909C39.6364 44.4546 40 44.8182 40 45.3637C40 45.9091 39.5454 46.2728 39.0909 46.2728Z" fill="#6D30FB"/>
<path d="M39.0909 42.4544H36.6364C36.0909 42.4544 35.7273 42.0908 35.7273 41.5453C35.7273 40.9999 36.0909 40.6362 36.6364 40.6362H39.0909C39.6364 40.6362 40 40.9999 40 41.5453C40 42.0908 39.5454 42.4544 39.0909 42.4544Z" fill="#6D30FB"/>
<path d="M39.0909 38.6363H36.6364C36.0909 38.6363 35.7273 38.2727 35.7273 37.7272C35.7273 37.1818 36.0909 36.8181 36.6364 36.8181H39.0909C39.6364 36.8181 40 37.1818 40 37.7272C40 38.2727 39.5454 38.6363 39.0909 38.6363Z" fill="#6D30FB"/>
<path d="M31.6364 44.5455H28.9091C28.5455 44.5455 28.2727 44.3636 28.0909 44.0909L26.7273 41.7273C26.5455 41.4545 26.5455 41.0909 26.7273 40.8182L28.0909 38.4545C28.2727 38.1818 28.5455 38 28.9091 38H31.6364C32 38 32.2727 38.1818 32.4545 38.4545L33.8182 40.8182C34 41.0909 34 41.4545 33.8182 41.7273L32.4545 44.0909C32.2727 44.3636 31.9091 44.5455 31.6364 44.5455ZM29.4545 42.7273H31.0909L31.9091 41.2727L31.0909 39.8182H29.4545L28.6364 41.2727L29.4545 42.7273Z" fill="#6D30FB"/>
<path d="M51.6364 42.4544H47.2727C46.7273 42.4544 46.3636 42.0908 46.3636 41.5453C46.3636 40.9999 46.7273 40.6362 47.2727 40.6362H51.5455C52.0909 40.6362 52.4546 40.9999 52.4546 41.5453C52.4546 42.0908 52.0909 42.4544 51.6364 42.4544Z" fill="#6D30FB"/>
<path d="M55.1818 45.4544C53 45.4544 51.2727 43.7271 51.2727 41.5453C51.2727 39.3635 53 37.6362 55.1818 37.6362C57.3636 37.6362 59.0909 39.3635 59.0909 41.5453C59.0909 43.7271 57.3636 45.4544 55.1818 45.4544ZM55.1818 39.4544C54 39.4544 53.0909 40.3635 53.0909 41.5453C53.0909 42.7271 54 43.6362 55.1818 43.6362C56.3636 43.6362 57.2727 42.7271 57.2727 41.5453C57.2727 40.3635 56.3636 39.4544 55.1818 39.4544Z" fill="#6D30FB"/>
<path d="M54.7273 59.0909C52.5454 59.0909 50.8182 57.3636 50.8182 55.1818C50.8182 53 52.5454 51.2727 54.7273 51.2727C56.9091 51.2727 58.6364 53 58.6364 55.1818C58.6364 57.3636 56.9091 59.0909 54.7273 59.0909ZM54.7273 53C53.5454 53 52.6364 53.9091 52.6364 55.0909C52.6364 56.2727 53.5454 57.1818 54.7273 57.1818C55.9091 57.1818 56.8182 56.2727 56.8182 55.0909C56.8182 54 55.9091 53 54.7273 53Z" fill="#6D30FB"/>
<path d="M51.6364 56.0908H47.6364C47.3636 56.0908 47.1818 55.9999 47 55.8181L43.0909 51.909C42.7273 51.5453 42.7273 50.9999 43.0909 50.6363C43.4545 50.2726 44 50.2726 44.3636 50.6363L48 54.2726H51.5454C52.0909 54.2726 52.4545 54.6363 52.4545 55.1817C52.4545 55.7272 52.1818 56.0908 51.6364 56.0908Z" fill="#6D30FB"/>
<path d="M54.7273 31.909C52.5454 31.909 50.8182 30.1817 50.8182 27.9999C50.8182 25.8181 52.5454 24.0908 54.7273 24.0908C56.9091 24.0908 58.6364 25.8181 58.6364 27.9999C58.6364 30.0908 56.9091 31.909 54.7273 31.909ZM54.7273 25.8181C53.5454 25.8181 52.6364 26.7272 52.6364 27.909C52.6364 29.0908 53.5454 29.9999 54.7273 29.9999C55.9091 29.9999 56.8182 29.0908 56.8182 27.909C56.8182 26.8181 55.9091 25.8181 54.7273 25.8181Z" fill="#6D30FB"/>
<path d="M43.8182 32.8181C43.5455 32.8181 43.3636 32.7272 43.1818 32.5454C42.8182 32.1817 42.8182 31.6363 43.1818 31.2726L47.0909 27.3635C47.2727 27.1817 47.4545 27.0908 47.7273 27.0908H51.7273C52.2727 27.0908 52.6364 27.4545 52.6364 27.9999C52.6364 28.5454 52.2727 28.909 51.7273 28.909H48.1818L44.5455 32.5454C44.2727 32.7272 44 32.8181 43.8182 32.8181Z" fill="#6D30FB"/>
<path d="M12.7273 42.4544H8.36362C7.81817 42.4544 7.45453 42.0908 7.45453 41.5453C7.45453 40.9999 7.81817 40.6362 8.36362 40.6362H12.7273C13.2727 40.6362 13.6363 40.9999 13.6363 41.5453C13.6363 42.0908 13.1818 42.4544 12.7273 42.4544Z" fill="#6D30FB"/>
<path d="M4.81818 45.4544C2.63636 45.4544 0.909088 43.7271 0.909088 41.5453C0.909088 39.3635 2.63636 37.6362 4.81818 37.6362C7 37.6362 8.72727 39.3635 8.72727 41.5453C8.81818 43.7271 7 45.4544 4.81818 45.4544ZM4.81818 39.4544C3.63636 39.4544 2.72727 40.3635 2.72727 41.5453C2.72727 42.7271 3.63636 43.6362 4.81818 43.6362C6 43.6362 6.90909 42.7271 6.90909 41.5453C7 40.3635 6 39.4544 4.81818 39.4544Z" fill="#6D30FB"/>
<path d="M5.27274 31.909C3.09092 31.909 1.36365 30.1817 1.36365 27.9999C1.36365 25.8181 3.09092 24.0908 5.27274 24.0908C7.45456 24.0908 9.18183 25.8181 9.18183 27.9999C9.27274 30.0908 7.45456 31.909 5.27274 31.909ZM5.27274 25.8181C4.09092 25.8181 3.18183 26.7272 3.18183 27.909C3.18183 29.0908 4.09092 29.9999 5.27274 29.9999C6.45456 29.9999 7.36365 29.0908 7.36365 27.909C7.45456 26.8181 6.45456 25.8181 5.27274 25.8181Z" fill="#6D30FB"/>
<path d="M16.1818 32.8181C15.9091 32.8181 15.7273 32.7272 15.5454 32.5454L11.9091 28.909H8.36362C7.81817 28.909 7.45453 28.5454 7.45453 27.9999C7.45453 27.4545 7.81817 27.0908 8.36362 27.0908H12.3636C12.6363 27.0908 12.8182 27.1817 13 27.3635L16.9091 31.2726C17.2727 31.6363 17.2727 32.1817 16.9091 32.5454C16.6363 32.7272 16.4545 32.8181 16.1818 32.8181Z" fill="#6D30FB"/>
<path d="M5.27274 59.0909C3.09092 59.0909 1.36365 57.3636 1.36365 55.1818C1.36365 53 3.09092 51.2727 5.27274 51.2727C7.45456 51.2727 9.18183 53 9.18183 55.1818C9.27274 57.3636 7.45456 59.0909 5.27274 59.0909ZM5.27274 53C4.09092 53 3.18183 53.9091 3.18183 55.0909C3.18183 56.2727 4.09092 57.1818 5.27274 57.1818C6.45456 57.1818 7.36365 56.2727 7.36365 55.0909C7.45456 54 6.45456 53 5.27274 53Z" fill="#6D30FB"/>
<path d="M12.2727 56.0908H8.36362C7.81817 56.0908 7.45453 55.7272 7.45453 55.1817C7.45453 54.6363 7.81817 54.2726 8.36362 54.2726H11.9091L15.5454 50.6363C15.9091 50.2726 16.4545 50.2726 16.8182 50.6363C17.1818 50.9999 17.1818 51.5453 16.8182 51.909L12.9091 55.8181C12.7273 55.9999 12.5454 56.0908 12.2727 56.0908Z" fill="#6D30FB"/>
</g>
<defs>
<clipPath id="clip0_85_3721">
<rect width="60" height="60" fill="white"/>
</clipPath>
</defs>
</svg>
