<svg width="60" height="60" viewBox="0 0 60 60" fill="none" xmlns="http://www.w3.org/2000/svg">
<g clip-path="url(#clip0_188_2135)">
<path d="M53.237 44.9402C52.7515 44.9402 52.3581 45.3337 52.3581 45.8191V46.5829C52.3581 48.6829 50.6496 50.3915 48.5495 50.3915H42.0008C40.8701 50.3915 39.95 51.3115 39.95 52.4423V57.9492C39.95 58.1107 39.8187 58.2421 39.6571 58.2421H16.8325C16.6709 58.2421 16.5395 58.1107 16.5395 57.9492V51.3019C16.5395 50.8166 16.1461 50.423 15.6606 50.423C15.1751 50.423 14.7817 50.8166 14.7817 51.3019V57.9492C14.7817 59.0799 15.7017 59.9999 16.8325 59.9999H39.6571C40.7878 59.9999 41.7079 59.0799 41.7079 57.9492V52.4423C41.7079 52.2808 41.8392 52.1493 42.0008 52.1493H48.5495C51.6187 52.1493 54.1159 49.6522 54.1159 46.5829V45.8191C54.1159 45.3337 53.7225 44.9402 53.237 44.9402Z" fill="#6D30FB"/>
<path d="M59.3875 37.0584L54.217 27.2268C54.1508 27.1011 54.116 26.9596 54.116 26.8176V23.6093C54.116 17.399 51.7325 11.5279 47.4048 7.07769C43.0618 2.61191 37.2616 0.0992969 31.0729 0.00285161C25.0957 -0.0889062 19.4429 2.03629 15.0375 6.00941L13.0994 4.07137C12.6014 3.57332 11.9393 3.2991 11.2351 3.2991H5.68579C5.31911 2.22449 4.30017 1.44918 3.10298 1.44918C1.59829 1.44918 0.374268 2.67332 0.374268 4.17801C0.374268 5.68269 1.59829 6.90684 3.10298 6.90684C4.30017 6.90684 5.31899 6.13152 5.68579 5.05691H11.2351C11.4698 5.05691 11.6906 5.14832 11.8565 5.31437L13.7758 7.23367C9.90442 11.2759 7.64751 16.4627 7.32501 22.0274H5.68579C5.31911 20.9528 4.30017 20.1775 3.10298 20.1775C1.59829 20.1775 0.374268 21.4016 0.374268 22.9063C0.374268 24.411 1.59829 25.6352 3.10298 25.6352C4.30017 25.6352 5.31899 24.8598 5.68579 23.7852H7.28774C7.37388 29.4339 9.4345 34.7277 13.1497 38.9155L9.34649 42.7187C8.84845 43.2168 8.57423 43.8789 8.57423 44.5832V46.8366C7.49962 47.2033 6.72431 48.2222 6.72431 49.4194C6.72431 50.9241 7.94845 52.1482 9.45313 52.1482C10.9578 52.1482 12.182 50.9241 12.182 49.4194C12.182 48.2222 11.4067 47.2034 10.332 46.8366V44.5832C10.332 44.3485 10.4234 44.1277 10.5895 43.9616L14.3642 40.187C14.41 40.2317 14.4548 40.2771 14.5011 40.3216C14.6793 40.4925 14.7818 40.7271 14.7818 40.9653V47.3996C14.7818 47.885 15.1752 48.2785 15.6607 48.2785C16.1462 48.2785 16.5396 47.885 16.5396 47.3996V40.9653C16.5396 40.2504 16.2399 39.5533 15.7174 39.0525C15.6801 39.0168 15.6442 38.9801 15.6071 38.9443L18.7701 35.7812L19.9054 36.9166C20.182 37.1932 20.55 37.3457 20.9413 37.3457C21.3326 37.3457 21.7004 37.1934 21.9772 36.9167L24.5182 34.3756C25.1962 34.7303 25.906 35.0248 26.6338 35.2532V38.8455C26.6338 39.6532 27.2908 40.3103 28.0986 40.3103H32.9177C33.7255 40.3103 34.3825 39.6532 34.3825 38.8455V35.2532C35.1102 35.0248 35.8199 34.7304 36.498 34.3756L39.0392 36.9167C39.6104 37.4877 40.5397 37.4875 41.1109 36.9166L44.5183 33.509C44.795 33.2323 44.9475 32.8643 44.9475 32.473C44.9475 32.0818 44.795 31.7139 44.5184 31.4373L41.9774 28.8962C42.332 28.2186 42.6265 27.5086 42.8549 26.7808H46.4471C47.2549 26.7808 47.912 26.1237 47.912 25.3159V20.4968C47.912 19.6891 47.2549 19.032 46.4471 19.032H42.8549C42.6265 18.3043 42.3321 17.5944 41.9774 16.9165L44.5183 14.3755C44.795 14.0989 44.9475 13.731 44.9475 13.3397C44.9475 12.9484 44.795 12.5805 44.5184 12.3039L41.1106 8.89609C40.5396 8.32539 39.6104 8.32527 39.0391 8.89621L36.498 11.4373C35.8202 11.0826 35.1104 10.7881 34.3825 10.5597V6.96742C34.3825 6.15965 33.7255 5.50258 32.9177 5.50258H28.0986C27.2908 5.50258 26.6338 6.15965 26.6338 6.96742V10.5597C25.9059 10.7881 25.1961 11.0826 24.5182 11.4373L21.977 8.89598C21.4059 8.32504 20.4765 8.32492 19.9054 8.89609L18.9149 9.88668L16.2815 7.25348C20.3463 3.6182 25.5478 1.67465 31.0454 1.76031C36.7658 1.84949 42.1282 4.17309 46.1445 8.30312C50.1514 12.4233 52.3581 17.8592 52.3581 23.6092V26.8175C52.3581 27.2433 52.4627 27.6677 52.6611 28.0448L57.8318 37.8766C57.8987 38.0038 57.8552 38.1114 57.8233 38.1644C57.7913 38.2172 57.7163 38.3058 57.5724 38.3058H54.4088C53.2781 38.3058 52.3581 39.2259 52.3581 40.3566V42.034C52.3581 42.5194 52.7515 42.9129 53.237 42.9129C53.7225 42.9129 54.1159 42.5194 54.1159 42.034V40.3566C54.1159 40.1951 54.2472 40.0636 54.4088 40.0636H57.5724C58.2971 40.0636 58.9534 39.6933 59.3279 39.0729C59.7027 38.4529 59.7249 37.6997 59.3875 37.0584ZM3.10298 5.14902C2.56767 5.14902 2.13208 4.71344 2.13208 4.17801C2.13208 3.64258 2.56767 3.20699 3.10298 3.20699C3.63841 3.20699 4.07399 3.64258 4.07399 4.17801C4.07399 4.71344 3.63841 5.14902 3.10298 5.14902ZM9.45302 50.3905C8.91759 50.3905 8.482 49.955 8.482 49.4195C8.482 48.8841 8.91759 48.4485 9.45302 48.4485C9.98845 48.4485 10.424 48.8841 10.424 49.4195C10.424 49.955 9.98856 50.3905 9.45302 50.3905ZM3.10298 23.8773C2.56767 23.8773 2.13208 23.4418 2.13208 22.9063C2.13208 22.3709 2.56767 21.9353 3.10298 21.9353C3.63841 21.9353 4.07399 22.3709 4.07399 22.9063C4.07399 23.4418 3.63841 23.8773 3.10298 23.8773ZM14.3954 37.6698C11.0106 33.8161 9.13087 28.9626 9.04556 23.7852H13.1042V25.3159C13.1042 26.1237 13.7613 26.7808 14.5691 26.7808H18.1612C18.3896 27.5085 18.6841 28.2184 19.0388 28.8962L16.4976 31.4375C15.9267 32.0086 15.9267 32.9378 16.4976 33.509L17.527 34.5384L14.3954 37.6698ZM20.9411 10.3463L23.4293 12.8344C23.8851 13.2903 24.5995 13.3928 25.1665 13.0837C25.8574 12.7069 26.5889 12.4035 27.3406 12.1818C27.9593 11.9992 28.3915 11.4217 28.3915 10.7775V7.26039H32.6246V10.7777C32.6246 11.422 33.0568 11.9993 33.6756 12.1819C34.4272 12.4037 35.1586 12.707 35.8495 13.0838C36.4166 13.3929 37.1307 13.2905 37.5867 12.8345L40.0747 10.3464L43.068 13.3397L40.5801 15.8277C40.1239 16.2838 40.0215 16.9983 40.3308 17.5649C40.7074 18.2557 41.0108 18.9872 41.2325 19.7392C41.4153 20.3578 41.9927 20.7899 42.6368 20.7899H46.154V25.0231H42.6368C41.9926 25.0231 41.4151 25.4553 41.2325 26.074C41.0107 26.8259 40.7073 27.5573 40.3309 28.2477C40.0215 28.8148 40.124 29.5293 40.58 29.9852L43.0681 32.4732L40.0748 35.4665L37.5868 32.9785C37.1309 32.5223 36.4163 32.4197 35.8497 32.7291C35.1587 33.1059 34.4271 33.4094 33.6759 33.631C33.057 33.8134 32.6247 34.3908 32.6247 35.0352V38.5525H28.3916V35.0352C28.3916 34.3909 27.9594 33.8134 27.3406 33.6311C26.5892 33.4094 25.8577 33.106 25.1667 32.7292C24.5995 32.4198 23.885 32.5225 23.4294 32.9785L20.9413 35.4666L17.9479 32.4733L20.4361 29.985C20.8919 29.5292 20.9943 28.8149 20.6853 28.248C20.3086 27.557 20.0052 26.8255 19.7836 26.0743C19.6011 25.4554 19.0237 25.0231 18.3793 25.0231H14.862V20.7899H18.3793C19.0236 20.7899 19.6011 20.3577 19.7834 19.739C20.0052 18.9876 20.3086 18.2561 20.6853 17.565C20.9943 16.9982 20.8919 16.2838 20.4361 15.8279L17.9479 13.3397L20.9411 10.3463ZM16.4977 14.3754L19.039 16.9165C18.6842 17.5946 18.3897 18.3043 18.1613 19.032H14.5692C13.7614 19.032 13.1043 19.6891 13.1043 20.4968V22.0275H9.08599C9.40544 16.9332 11.4791 12.1867 15.0192 8.47727L17.6718 11.1298L16.4977 12.3039C15.9267 12.875 15.9267 13.8043 16.4977 14.3754Z" fill="#6D30FB"/>
<path d="M21.7567 22.0034C22.2322 22.1005 22.6966 21.7942 22.794 21.3185C23.5393 17.6762 26.7837 15.0325 30.508 15.0325C34.8497 15.0325 38.3818 18.5647 38.3818 22.9064C38.3818 27.2481 34.8496 30.7804 30.508 30.7804C28.6857 30.7804 26.9754 30.1761 25.5614 29.033C24.1873 27.922 23.2168 26.3673 22.8288 24.6553C22.7215 24.1819 22.2511 23.8852 21.7773 23.9924C21.304 24.0997 21.0071 24.5705 21.1145 25.0438C21.5896 27.1395 22.7763 29.0417 24.4563 30.4C26.1619 31.7788 28.3111 32.5382 30.5081 32.5382C35.8191 32.5382 40.1398 28.2174 40.1398 22.9064C40.1398 17.5955 35.8191 13.2747 30.5081 13.2747C25.9524 13.2747 21.984 16.5094 21.0721 20.9661C20.9747 21.4417 21.2812 21.9061 21.7567 22.0034Z" fill="#6D30FB"/>
</g>
<defs>
<clipPath id="clip0_188_2135">
<rect width="60" height="60" fill="white"/>
</clipPath>
</defs>
</svg>
