<svg width="159" height="50" viewBox="0 0 159 50" fill="none" xmlns="http://www.w3.org/2000/svg">
<path d="M46.64 39V11H58.8C60.56 11 62.0933 11.3067 63.4 11.92C64.7067 12.5333 65.72 13.4 66.44 14.52C67.16 15.64 67.52 16.96 67.52 18.48V18.96C67.52 20.64 67.12 22 66.32 23.04C65.52 24.08 64.5333 24.84 63.36 25.32V26.04C64.4267 26.0933 65.2533 26.4667 65.84 27.16C66.4267 27.8267 66.72 28.72 66.72 29.84V39H61.44V30.6C61.44 29.96 61.2667 29.44 60.92 29.04C60.6 28.64 60.0533 28.44 59.28 28.44H51.92V39H46.64ZM51.92 23.64H58.24C59.4933 23.64 60.4667 23.3067 61.16 22.64C61.88 21.9467 62.24 21.04 62.24 19.92V19.52C62.24 18.4 61.8933 17.5067 61.2 16.84C60.5067 16.1467 59.52 15.8 58.24 15.8H51.92V23.64ZM81.5134 39.56C79.5401 39.56 77.7668 39.16 76.1934 38.36C74.6201 37.56 73.3801 36.4 72.4734 34.88C71.5668 33.36 71.1134 31.5333 71.1134 29.4V28.76C71.1134 26.6267 71.5668 24.8 72.4734 23.28C73.3801 21.76 74.6201 20.6 76.1934 19.8C77.7668 19 79.5401 18.6 81.5134 18.6C83.4868 18.6 85.2601 19 86.8334 19.8C88.4068 20.6 89.6468 21.76 90.5534 23.28C91.4601 24.8 91.9134 26.6267 91.9134 28.76V29.4C91.9134 31.5333 91.4601 33.36 90.5534 34.88C89.6468 36.4 88.4068 37.56 86.8334 38.36C85.2601 39.16 83.4868 39.56 81.5134 39.56ZM81.5134 35.08C83.0601 35.08 84.3401 34.5867 85.3534 33.6C86.3668 32.5867 86.8734 31.1467 86.8734 29.28V28.88C86.8734 27.0133 86.3668 25.5867 85.3534 24.6C84.3668 23.5867 83.0868 23.08 81.5134 23.08C79.9668 23.08 78.6868 23.5867 77.6734 24.6C76.6601 25.5867 76.1534 27.0133 76.1534 28.88V29.28C76.1534 31.1467 76.6601 32.5867 77.6734 33.6C78.6868 34.5867 79.9668 35.08 81.5134 35.08ZM108.486 39.56C106.699 39.56 105.326 39.2533 104.366 38.64C103.406 38.0267 102.699 37.3467 102.246 36.6H101.526V39H96.5656V11H101.606V21.44H102.326C102.619 20.96 103.006 20.5067 103.486 20.08C103.992 19.6533 104.646 19.3067 105.446 19.04C106.272 18.7467 107.286 18.6 108.486 18.6C110.086 18.6 111.566 19 112.926 19.8C114.286 20.5733 115.379 21.72 116.206 23.24C117.032 24.76 117.446 26.6 117.446 28.76V29.4C117.446 31.56 117.032 33.4 116.206 34.92C115.379 36.44 114.286 37.6 112.926 38.4C111.566 39.1733 110.086 39.56 108.486 39.56ZM106.966 35.16C108.512 35.16 109.806 34.6667 110.846 33.68C111.886 32.6667 112.406 31.2 112.406 29.28V28.88C112.406 26.96 111.886 25.5067 110.846 24.52C109.832 23.5067 108.539 23 106.966 23C105.419 23 104.126 23.5067 103.086 24.52C102.046 25.5067 101.526 26.96 101.526 28.88V29.28C101.526 31.2 102.046 32.6667 103.086 33.68C104.126 34.6667 105.419 35.16 106.966 35.16ZM131.513 39.56C129.54 39.56 127.767 39.16 126.193 38.36C124.62 37.56 123.38 36.4 122.473 34.88C121.567 33.36 121.113 31.5333 121.113 29.4V28.76C121.113 26.6267 121.567 24.8 122.473 23.28C123.38 21.76 124.62 20.6 126.193 19.8C127.767 19 129.54 18.6 131.513 18.6C133.487 18.6 135.26 19 136.833 19.8C138.407 20.6 139.647 21.76 140.553 23.28C141.46 24.8 141.913 26.6267 141.913 28.76V29.4C141.913 31.5333 141.46 33.36 140.553 34.88C139.647 36.4 138.407 37.56 136.833 38.36C135.26 39.16 133.487 39.56 131.513 39.56ZM131.513 35.08C133.06 35.08 134.34 34.5867 135.353 33.6C136.367 32.5867 136.873 31.1467 136.873 29.28V28.88C136.873 27.0133 136.367 25.5867 135.353 24.6C134.367 23.5867 133.087 23.08 131.513 23.08C129.967 23.08 128.687 23.5867 127.673 24.6C126.66 25.5867 126.153 27.0133 126.153 28.88V29.28C126.153 31.1467 126.66 32.5867 127.673 33.6C128.687 34.5867 129.967 35.08 131.513 35.08ZM146.566 39V19.16H151.526V21.4H152.246C152.539 20.6 153.019 20.0133 153.686 19.64C154.379 19.2667 155.179 19.08 156.086 19.08H158.486V23.56H156.006C154.726 23.56 153.672 23.9067 152.846 24.6C152.019 25.2667 151.606 26.3067 151.606 27.72V39H146.566Z" fill="white"/>
<path d="M35.3709 37.068C34.487 35.0789 33.1447 33.447 31.5846 31.9738C30.1538 30.6209 28.5712 29.6389 26.8217 29.0767C24.5106 31.3586 21.3867 32.696 18.0077 32.696C14.6145 32.696 11.4793 31.3488 9.16571 29.0503C8.92973 29.1301 8.69589 29.2175 8.46631 29.3229C4.79907 31.0073 2.11875 33.7037 0.47544 37.4482C0.0248097 38.4747 -0.0633286 39.5532 0.0376012 40.6548C0.0980169 41.3177 0.304852 41.9084 1.03268 42.3153C2.96457 40.9491 3.98097 38.695 5.7476 37.0352C5.86843 37.5331 5.9619 37.9227 6.05572 38.3119C6.60763 40.6104 7.5025 42.7522 8.85155 44.6936C10.4842 47.0441 12.5472 48.8794 15.3079 49.6134C19.5238 50.7349 23.0766 49.3661 25.9776 46.1779C27.6476 44.3423 28.8125 42.1871 29.5116 39.7832C29.7692 38.8982 30.012 38.009 30.291 37.0175C30.6105 37.3822 30.8805 37.6721 31.13 37.9804C32.0142 39.073 32.8768 40.1847 33.7784 41.2621C34.1316 41.6838 34.4795 42.1597 35.158 42.2431C35.7497 41.7542 35.9331 41.1589 35.9814 40.4891C36.0671 39.2936 35.8556 38.1581 35.3709 37.068Z" fill="#6D30FB"/>
<path d="M4.80921 14.7121C4.37031 15.0624 4.0533 15.692 3.85997 16.59C3.37025 17.3226 3.08203 18.2054 3.08203 19.1582C3.08203 20.1143 3.37025 21.0022 3.86281 21.7373C4.06396 22.6201 4.43499 23.4642 5.11626 23.7914C5.3135 23.886 5.52389 23.9325 5.74423 23.9325C6.04915 23.9325 6.37682 23.8365 6.72368 23.6607C6.74678 23.6654 6.76987 23.669 6.79297 23.6733C8.56422 28.2125 12.9159 31.4357 18.0061 31.4357C23.0803 31.4357 27.4196 28.232 29.2022 23.7148C29.2495 23.7062 29.2964 23.6968 29.343 23.6867C29.6688 23.8448 29.9784 23.9329 30.2659 23.9329C30.4884 23.9329 30.6988 23.886 30.8949 23.7917C31.5716 23.4671 31.9423 22.6334 32.1445 21.759C32.6452 21.004 32.9313 20.0912 32.9135 19.112C32.8972 18.2105 32.6235 17.3768 32.1686 16.6767C31.9778 15.7321 31.6558 15.0728 31.2027 14.7121C31.0897 14.6226 30.9795 14.5612 30.8757 14.5168L30.2321 5.96328C31.1412 5.90009 31.852 5.12453 31.8349 4.18866C31.8175 3.22283 31.0321 2.45485 30.0818 2.47254C29.1315 2.49059 28.3752 3.28746 28.3927 4.25329C28.4097 5.18952 29.1479 5.93764 30.0587 5.96652L29.7236 14.6258C29.6543 14.6659 29.5853 14.71 29.5167 14.7583C29.4194 14.7331 29.3209 14.7111 29.2211 14.6923C27.651 10.656 24.0424 7.66856 19.6828 7.04862V6.46732C20.6996 5.86398 21.393 4.75589 21.393 3.47557C21.393 1.5587 19.8591 0 17.9717 0C16.0863 0 14.5511 1.5587 14.5511 3.47557C14.5511 4.72953 15.2171 5.82138 16.1997 6.43229V7.06884C11.9123 7.72597 8.36983 10.6755 6.80755 14.65C6.69169 14.671 6.5769 14.6941 6.46424 14.7237C6.37042 14.6587 6.27625 14.6027 6.18349 14.5569L5.69448 5.96869C6.60391 5.92248 7.32783 5.161 7.32783 4.22549C7.32783 3.26002 6.55771 2.47796 5.60777 2.47796C4.65853 2.47796 3.88769 3.26002 3.88769 4.22549C3.88769 5.161 4.61232 5.92284 5.52104 5.96869L5.03168 14.5681C4.95989 14.6063 4.88562 14.6515 4.80921 14.7121ZM16.2008 7.84873C16.4517 7.80685 16.7022 7.76569 16.9599 7.74222V6.96955V5.97194C16.6788 5.85351 16.4232 5.68057 16.2008 5.47584C15.6595 4.98011 15.3137 4.27099 15.3137 3.47557C15.3137 1.98511 16.5082 0.772309 17.9727 0.772309C19.4405 0.772309 20.6339 1.98511 20.6339 3.47557C20.6339 4.30059 20.26 5.03246 19.6839 5.52856C19.4579 5.72281 19.2059 5.88276 18.9223 5.99252V6.96269V7.73536C19.1793 7.7563 19.4319 7.79133 19.6839 7.82924C23.8604 8.46434 27.2913 11.4203 28.6631 15.3667C28.8902 16.4871 29.0206 17.6396 29.0419 18.8185C29.0679 20.2526 28.9304 21.6546 28.6517 23.0118C28.6286 23.0757 28.6066 23.14 28.5824 23.2036C26.9725 27.5551 22.8461 30.6645 18.0065 30.6645C13.2607 30.6645 9.20108 27.6731 7.52756 23.4538C7.1505 21.9554 6.9465 20.3956 6.9465 18.7918C6.9465 17.8454 7.01758 16.915 7.15227 16.0029C7.20096 15.8267 7.25249 15.652 7.31077 15.4801C8.64028 11.5171 12.042 8.53186 16.2008 7.84873Z" fill="#6D30FB"/>
<path d="M23.1621 24.7001L23.0633 24.7474C23.0544 24.751 22.9265 24.842 22.6724 24.9915C22.4144 25.1478 22.0331 25.3525 21.5625 25.5815C21.0891 25.8017 20.5259 26.0461 19.905 26.2411C19.5944 26.3462 19.2706 26.4393 18.9359 26.5094C18.6039 26.6022 18.261 26.634 17.9152 26.6896C17.5712 26.7318 17.224 26.7347 16.881 26.747C16.5459 26.7094 16.2001 26.7235 15.8831 26.647C15.5686 26.5657 15.2413 26.5412 14.9687 26.4087C14.6968 26.2844 14.4022 26.2249 14.1865 26.0656C13.9544 25.927 13.7454 25.7995 13.5585 25.6873C13.3886 25.5497 13.2475 25.4193 13.1271 25.3157C12.8886 25.1056 12.75 24.985 12.75 24.985C12.75 24.985 12.8691 25.1226 13.0812 25.363C13.1889 25.4818 13.3133 25.6345 13.4689 25.797C13.6449 25.9382 13.8453 26.0978 14.0624 26.2718C14.2689 26.4668 14.5582 26.5686 14.8304 26.7379C15.1076 26.9167 15.4399 26.9903 15.7683 27.1217C16.1009 27.2481 16.4656 27.2853 16.8281 27.3727C17.1948 27.4102 17.5733 27.4568 17.949 27.4615C18.3235 27.4525 18.7077 27.4658 19.072 27.4146C19.4437 27.3871 19.8051 27.3344 20.1534 27.2665C20.8489 27.1456 21.4854 26.9658 22.0249 26.7957C22.5644 26.6188 23.0068 26.4513 23.3139 26.3159C23.4724 26.2462 23.5978 26.1909 23.6831 26.1537C23.7617 26.1155 23.8043 26.0949 23.8043 26.0949L23.8086 26.0938C24.1878 25.9126 24.3484 25.454 24.1714 25.0691C23.993 24.6839 23.5402 24.5196 23.1621 24.7001Z" fill="white"/>
<path d="M17.91 24.6265C23.1943 24.6265 27.4771 22.0048 27.4771 18.7697C27.4771 15.5354 23.1943 12.9137 17.91 12.9137C12.6294 12.9137 8.34766 15.5354 8.34766 18.7697C8.3473 22.0048 12.6294 24.6265 17.91 24.6265ZM21.8847 16.4636C23.1374 16.4636 24.1545 17.4959 24.1545 18.7697C24.1545 20.0443 23.1378 21.0762 21.8847 21.0762C20.6312 21.0762 19.6148 20.0443 19.6148 18.7697C19.6148 17.4959 20.6309 16.4636 21.8847 16.4636ZM14.1028 16.5481C15.3577 16.5481 16.3726 17.5804 16.3726 18.8542C16.3726 20.128 15.3577 21.1607 14.1028 21.1607C12.8479 21.1607 11.8319 20.128 11.8319 18.8542C11.8319 17.5804 12.8483 16.5481 14.1028 16.5481Z" fill="white"/>
<path d="M14.8293 20.0163C15.4619 19.6083 15.6478 18.758 15.2476 18.1171C14.8474 17.4759 14.0108 17.2863 13.3783 17.6932C12.7474 18.1005 12.5602 18.9504 12.961 19.5931C13.363 20.2333 14.1992 20.4236 14.8293 20.0163ZM13.2965 18.307C13.5414 18.1507 13.8605 18.2236 14.0158 18.4695C14.1676 18.715 14.0972 19.0418 13.8545 19.1981C13.6125 19.3545 13.2908 19.2808 13.1362 19.036C12.9834 18.7894 13.0552 18.4626 13.2965 18.307Z" fill="#6D30FB"/>
<path d="M21.0486 19.8498C21.635 20.3199 22.4868 20.2181 22.9485 19.6212C23.4112 19.0251 23.3117 18.1604 22.7224 17.6896C22.1361 17.2195 21.2852 17.3216 20.8225 17.9181C20.3591 18.5146 20.459 19.38 21.0486 19.8498ZM22.0085 18.3615C22.1869 18.1326 22.5138 18.0932 22.7377 18.2737C22.9634 18.4536 23.0018 18.7861 22.8251 19.0161C22.6471 19.2443 22.3194 19.2829 22.0955 19.1027C21.8695 18.9229 21.8308 18.5908 22.0085 18.3615Z" fill="#6D30FB"/>
<path d="M19.7723 3.42372C19.7723 2.42177 18.9737 1.61011 17.9868 1.61011C17.0013 1.61011 16.2031 2.42177 16.2031 3.42372C16.2031 4.42458 17.0013 5.2366 17.9868 5.2366C18.9734 5.2366 19.7723 4.42458 19.7723 3.42372Z" fill="white"/>
</svg>
