<svg width="65" height="90" viewBox="0 0 65 90" fill="none" xmlns="http://www.w3.org/2000/svg">
<path d="M63.6672 66.7221C62.0763 63.1418 59.6602 60.2042 56.8519 57.5526C54.2765 55.1174 51.428 53.3496 48.2788 52.3377C44.1188 56.4451 38.4959 58.8524 32.4137 58.8524C26.306 58.8524 20.6626 56.4276 16.4982 52.2903C16.0734 52.4339 15.6525 52.5912 15.2393 52.781C8.63829 55.8128 3.81373 60.6663 0.855788 67.4064C0.0446572 69.2541 -0.113991 71.1954 0.0676818 73.1782C0.17643 74.3715 0.548731 75.4347 1.85882 76.1672C5.33619 73.7079 7.16571 69.6506 10.3456 66.6629C10.5631 67.5592 10.7314 68.2604 10.9002 68.961C11.8937 73.0983 13.5044 76.9535 15.9327 80.4481C18.8715 84.679 22.5849 87.9824 27.554 89.3037C35.1427 91.3223 41.5377 88.8585 46.7595 83.1198C49.7654 79.8157 51.8623 75.9364 53.1206 71.6094C53.5844 70.0165 54.0213 68.4157 54.5235 66.6311C55.0985 67.2875 55.5847 67.8094 56.0338 68.3644C57.6253 70.331 59.1778 72.3321 60.8007 74.2714C61.4366 75.0305 62.0629 75.887 63.284 76.0372C64.3491 75.1572 64.6792 74.0855 64.7662 72.8799C64.9204 70.7281 64.5398 68.6841 63.6672 66.7221Z" fill="white"/>
<path d="M8.64016 26.4817C7.85014 27.1121 7.27952 28.2455 6.93153 29.8619C6.05003 31.1805 5.53125 32.7695 5.53125 34.4846C5.53125 36.2056 6.05004 37.8037 6.93665 39.1269C7.29872 40.7159 7.96656 42.2354 9.19285 42.8242C9.54788 42.9945 9.92657 43.0783 10.3232 43.0783C10.872 43.0783 11.4618 42.9055 12.0862 42.589C12.1278 42.5974 12.1693 42.6039 12.2109 42.6117C15.3991 50.7823 23.2322 56.584 32.3945 56.584C41.528 56.584 49.3387 50.8174 52.5474 42.6864C52.6324 42.6708 52.7169 42.6539 52.8007 42.6357C53.3873 42.9204 53.9444 43.079 54.4619 43.079C54.8624 43.079 55.2411 42.9945 55.5942 42.8249C56.8122 42.2406 57.4794 40.74 57.8434 39.1659C58.7447 37.8069 59.2596 36.164 59.2277 34.4014C59.1982 32.7786 58.7057 31.278 57.8869 30.0178C57.5434 28.3177 56.9638 27.131 56.1482 26.4817C55.9448 26.3205 55.7465 26.21 55.5597 26.1301L54.4012 10.7338C56.0375 10.6201 57.3169 9.22411 57.2862 7.53955C57.2549 5.80106 55.8411 4.41871 54.1306 4.45055C52.4201 4.48305 51.0588 5.91739 51.0901 7.65589C51.1208 9.34109 52.4495 10.6877 54.089 10.7397L53.4858 26.3264C53.361 26.3985 53.2369 26.4778 53.1135 26.5649C52.9382 26.5194 52.761 26.4797 52.5813 26.446C49.7551 19.1807 43.2597 13.8033 35.4125 12.6875V11.6411C37.2427 10.5551 38.4908 8.56055 38.4908 6.25599C38.4908 2.80564 35.7298 0 32.3324 0C28.9389 0 26.1754 2.80564 26.1754 6.25599C26.1754 8.51311 27.3742 10.4784 29.1429 11.5781V12.7239C21.4257 13.9067 15.0492 19.2158 12.2371 26.3699C12.0286 26.4076 11.822 26.4492 11.6192 26.5025C11.4503 26.3855 11.2808 26.2848 11.1138 26.2022L10.2336 10.7436C11.8706 10.6604 13.1737 9.28975 13.1737 7.60584C13.1737 5.868 11.7874 4.4603 10.0775 4.4603C8.36893 4.4603 6.98143 5.868 6.98143 7.60584C6.98143 9.28975 8.28576 10.6611 9.92145 10.7436L9.04059 26.2224C8.91138 26.2913 8.77769 26.3725 8.64016 26.4817ZM29.1448 14.1276C29.5965 14.0523 30.0475 13.9782 30.5112 13.9359V12.5451V10.7494C30.0052 10.5363 29.5453 10.225 29.1448 9.85647C28.1706 8.96415 27.5482 7.68773 27.5482 6.25599C27.5482 3.57318 29.6982 1.39015 32.3344 1.39015C34.9763 1.39015 37.1244 3.57318 37.1244 6.25599C37.1244 7.74102 36.4514 9.05838 35.4145 9.95135C35.0076 10.301 34.5541 10.5889 34.0436 10.7865V12.5328V13.9236C34.5061 13.9613 34.9609 14.0243 35.4145 14.0926C42.9321 15.2357 49.1077 20.5565 51.5769 27.66C51.9857 29.6766 52.2205 31.7511 52.2589 33.8731C52.3055 36.4545 52.058 38.9781 51.5565 41.4211C51.5149 41.5361 51.4752 41.6518 51.4317 41.7662C48.5339 49.5988 41.1065 55.1958 32.3951 55.1958C23.8527 55.1958 16.5455 49.8114 13.5332 42.2166C12.8545 39.5195 12.4873 36.7119 12.4873 33.825C12.4873 32.1216 12.6152 30.4468 12.8576 28.8051C12.9453 28.488 13.038 28.1734 13.1429 27.864C15.536 20.7307 21.6592 15.3573 29.1448 14.1276Z" fill="white"/>
<path d="M41.6948 44.4602L41.517 44.5453C41.501 44.5518 41.2707 44.7156 40.8133 44.9846C40.3489 45.266 39.6625 45.6345 38.8156 46.0466C37.9635 46.443 36.9496 46.883 35.8321 47.2339C35.273 47.4231 34.6902 47.5908 34.0876 47.7168C33.4901 47.8839 32.8728 47.941 32.2504 48.0411C31.6312 48.1172 31.0062 48.1224 30.3889 48.1445C29.7857 48.0769 29.1633 48.1022 28.5927 47.9644C28.0265 47.8182 27.4374 47.774 26.9467 47.5355C26.4574 47.3119 25.9271 47.2047 25.5388 46.9181C25.121 46.6685 24.7449 46.4391 24.4084 46.237C24.1027 45.9894 23.8487 45.7548 23.6318 45.5682C23.2026 45.19 22.9531 44.9729 22.9531 44.9729C22.9531 44.9729 23.1674 45.2205 23.5493 45.6534C23.7431 45.8672 23.967 46.1421 24.2472 46.4346C24.5639 46.6887 24.9247 46.9759 25.3155 47.2892C25.6872 47.6401 26.2079 47.8234 26.6979 48.1282C27.1968 48.4499 27.795 48.5825 28.386 48.8191C28.9848 49.0465 29.6411 49.1135 30.2936 49.2708C30.9538 49.3383 31.635 49.4222 32.3112 49.4306C32.9854 49.4144 33.6769 49.4384 34.3326 49.3461C35.0017 49.2967 35.6523 49.2019 36.2792 49.0797C37.5311 48.862 38.6768 48.5383 39.6478 48.2322C40.6189 47.9137 41.4153 47.6122 41.968 47.3685C42.2533 47.2431 42.4791 47.1436 42.6326 47.0767C42.774 47.0078 42.8508 46.9707 42.8508 46.9707L42.8584 46.9688C43.541 46.6425 43.8301 45.8172 43.5116 45.1244C43.1905 44.4309 42.3755 44.1352 41.6948 44.4602Z" fill="white"/>
<path d="M32.2357 44.3271C41.7472 44.3271 49.4562 39.6081 49.4562 33.785C49.4562 27.9631 41.7472 23.2441 32.2357 23.2441C22.7305 23.2441 15.0234 27.9631 15.0234 33.785C15.0228 39.6081 22.7305 44.3271 32.2357 44.3271ZM39.39 29.634C41.6449 29.634 43.4757 31.4921 43.4757 33.785C43.4757 36.0791 41.6455 37.9366 39.39 37.9366C37.1338 37.9366 35.3043 36.0791 35.3043 33.785C35.3043 31.4921 37.1331 29.634 39.39 29.634ZM25.3826 29.7861C27.6414 29.7861 29.4683 31.6442 29.4683 33.937C29.4683 36.2299 27.6414 38.0886 25.3826 38.0886C23.1239 38.0886 21.295 36.2299 21.295 33.937C21.295 31.6442 23.1245 29.7861 25.3826 29.7861Z" fill="white"/>
<path d="M26.6802 36.029C27.8189 35.2946 28.1534 33.764 27.4332 32.6105C26.7129 31.4562 25.207 31.115 24.0684 31.8475C22.9329 32.5806 22.5958 34.1104 23.3174 35.2673C24.0409 36.4196 25.5461 36.7621 26.6802 36.029ZM23.9212 32.9523C24.362 32.6709 24.9364 32.8022 25.216 33.2448C25.4891 33.6867 25.3625 34.2749 24.9256 34.5563C24.4899 34.8377 23.911 34.7051 23.6327 34.2645C23.3577 33.8206 23.4869 33.2324 23.9212 32.9523Z" fill="white"/>
<path d="M37.8921 35.7294C38.9476 36.5756 40.4809 36.3923 41.3119 35.318C42.1448 34.2451 41.9657 32.6885 40.9051 31.8411C39.8496 30.9949 38.3181 31.1788 37.4852 32.2524C36.6511 33.3261 36.8309 34.8839 37.8921 35.7294ZM39.6199 33.0505C39.941 32.6385 40.5296 32.5676 40.9326 32.8926C41.3388 33.2162 41.4079 33.8148 41.0899 34.2288C40.7694 34.6395 40.1796 34.7091 39.7766 34.3848C39.3698 34.0611 39.3001 33.4632 39.6199 33.0505Z" fill="white"/>
<path d="M35.5846 6.16267C35.5846 4.35918 34.1472 2.89819 32.3708 2.89819C30.5969 2.89819 29.1602 4.35918 29.1602 6.16267C29.1602 7.96421 30.5969 9.42585 32.3708 9.42585C34.1466 9.42585 35.5846 7.96421 35.5846 6.16267Z" fill="white"/>
</svg>
