<svg width="76" height="106" viewBox="0 0 76 106" fill="none" xmlns="http://www.w3.org/2000/svg">
<path d="M74.6718 78.2549C72.8059 74.0557 69.9722 70.6104 66.6785 67.5005C63.658 64.6443 60.3171 62.5711 56.6235 61.3843C51.7446 66.2016 45.1498 69.0249 38.0163 69.0249C30.8528 69.0249 24.234 66.181 19.3498 61.3286C18.8517 61.4971 18.358 61.6815 17.8733 61.9041C10.1314 65.4599 4.47291 71.1523 1.00371 79.0575C0.052376 81.2246 -0.133694 83.5014 0.0793803 85.827C0.206925 87.2264 0.643576 88.4735 2.18011 89.3325C6.25853 86.4482 8.40428 81.6895 12.1338 78.1855C12.3889 79.2367 12.5862 80.0591 12.7843 80.8808C13.9494 85.7332 15.8386 90.2548 18.6866 94.3534C22.1333 99.3155 26.4886 103.19 32.3166 104.74C41.2169 107.107 48.7173 104.217 54.8417 97.4869C58.3671 93.6117 60.8265 89.0619 62.3023 83.9869C62.8462 82.1187 63.3586 80.2413 63.9476 78.1482C64.6221 78.918 65.1923 79.5301 65.7189 80.1811C67.5856 82.4876 69.4065 84.8345 71.3099 87.1091C72.0556 87.9993 72.7902 89.004 74.2224 89.18C75.4716 88.148 75.8587 86.8911 75.9608 85.4771C76.1416 82.9533 75.6952 80.5561 74.6718 78.2549Z" fill="#6D30FB"/>
<path d="M10.1555 31.0589C9.22892 31.7983 8.55967 33.1277 8.15153 35.0234C7.11767 36.5699 6.50922 38.4336 6.50922 40.4452C6.50922 42.4636 7.11768 44.3379 8.15754 45.8898C8.58218 47.7535 9.36546 49.5356 10.8037 50.2262C11.2201 50.4259 11.6642 50.5242 12.1294 50.5242C12.7731 50.5242 13.4649 50.3215 14.1971 49.9503C14.2459 49.9602 14.2947 49.9678 14.3434 49.977C18.0827 59.5598 27.2697 66.3643 38.0156 66.3643C48.7279 66.3643 57.8885 59.601 61.6519 50.0646C61.7516 50.0463 61.8507 50.0265 61.949 50.0052C62.6369 50.339 63.2904 50.525 63.8974 50.525C64.367 50.525 64.8112 50.4259 65.2253 50.227C66.6538 49.5417 67.4364 47.7817 67.8633 45.9356C68.9204 44.3417 69.5243 42.4148 69.4868 40.3476C69.4523 38.4443 68.8746 36.6843 67.9143 35.2063C67.5114 33.2123 66.8317 31.8204 65.8751 31.0589C65.6365 30.8699 65.4039 30.7403 65.1848 30.6466L63.8261 12.5891C65.7453 12.4557 67.2458 10.8185 67.2098 8.84273C67.173 6.80374 65.5149 5.18246 63.5088 5.21981C61.5026 5.25792 59.906 6.94019 59.9428 8.97918C59.9788 10.9557 61.5371 12.535 63.46 12.596L62.7525 30.8768C62.6062 30.9614 62.4606 31.0544 62.3158 31.1565C62.1103 31.1032 61.9024 31.0567 61.6916 31.017C58.377 22.496 50.7588 16.1892 41.5554 14.8804V13.6532C43.7019 12.3795 45.1656 10.0402 45.1656 7.33731C45.1656 3.29059 41.9275 0 37.9429 0C33.9627 0 30.7216 3.29059 30.7216 7.33731C30.7216 9.98457 32.1276 12.2896 34.2021 13.5793V14.9231C25.1509 16.3104 17.6723 22.5371 14.3742 30.9278C14.1296 30.9721 13.8873 31.0208 13.6494 31.0833C13.4514 30.9461 13.2526 30.828 13.0567 30.7312L12.0244 12.6006C13.9443 12.503 15.4726 10.8954 15.4726 8.92048C15.4726 6.88226 13.8468 5.23125 11.8413 5.23125C9.83738 5.23125 8.21005 6.88226 8.21005 8.92048C8.21005 10.8954 9.73983 12.5038 11.6582 12.6006L10.6251 30.7548C10.4736 30.8356 10.3168 30.9309 10.1555 31.0589ZM34.2043 16.5695C34.734 16.4811 35.2629 16.3942 35.8069 16.3447V14.7135V12.6074C35.2134 12.3574 34.674 11.9923 34.2043 11.5601C33.0617 10.5136 32.3317 9.01652 32.3317 7.33731C32.3317 4.19079 34.8533 1.63043 37.9451 1.63043C41.0437 1.63043 43.5631 4.19079 43.5631 7.33731C43.5631 9.07903 42.7738 10.6241 41.5576 11.6714C41.0805 12.0815 40.5485 12.4192 39.9498 12.6509V14.699V16.3302C40.4923 16.3744 41.0257 16.4484 41.5576 16.5284C50.3747 17.8692 57.6177 24.1096 60.5137 32.4409C60.9931 34.8061 61.2685 37.2392 61.3135 39.7279C61.3683 42.7555 61.0779 45.7153 60.4897 48.5805C60.4409 48.7155 60.3944 48.8511 60.3434 48.9853C56.9447 58.1718 48.2334 64.7362 38.0164 64.7362C27.9974 64.7362 19.4272 58.421 15.8942 49.5135C15.0982 46.3502 14.6675 43.0574 14.6675 39.6715C14.6675 37.6737 14.8176 35.7094 15.102 33.7839C15.2047 33.412 15.3135 33.0431 15.4366 32.6802C18.2433 24.3139 25.4248 18.0117 34.2043 16.5695Z" fill="#6D30FB"/>
<path d="M48.8951 52.1448L48.6866 52.2447C48.6678 52.2523 48.3977 52.4444 47.8613 52.7599C47.3166 53.09 46.5116 53.5222 45.5182 54.0054C44.5189 54.4704 43.3297 54.9864 42.019 55.3981C41.3633 55.6199 40.6798 55.8165 39.973 55.9644C39.2723 56.1603 38.5483 56.2274 37.8183 56.3448C37.092 56.4339 36.359 56.44 35.635 56.466C34.9275 56.3867 34.1975 56.4164 33.5283 56.2548C32.8643 56.0833 32.1733 56.0315 31.5979 55.7517C31.0239 55.4895 30.402 55.3638 29.9465 55.0276C29.4566 54.7349 29.0155 54.4658 28.6208 54.2288C28.2622 53.9384 27.9644 53.6632 27.71 53.4444C27.2066 53.0008 26.914 52.7462 26.914 52.7462C26.914 52.7462 27.1653 53.0366 27.6132 53.5443C27.8406 53.7951 28.1032 54.1175 28.4318 54.4605C28.8032 54.7585 29.2263 55.0954 29.6847 55.4628C30.1206 55.8745 30.7313 56.0894 31.306 56.4469C31.8912 56.8242 32.5927 56.9797 33.286 57.2572C33.9882 57.5239 34.758 57.6024 35.5232 57.7869C36.2975 57.8662 37.0965 57.9645 37.8896 57.9744C38.6803 57.9554 39.4914 57.9836 40.2604 57.8753C41.0452 57.8174 41.8082 57.7061 42.5434 57.5628C44.0117 57.3075 45.3554 56.9279 46.4943 56.5689C47.6332 56.1954 48.5673 55.8417 49.2155 55.5558C49.5501 55.4087 49.815 55.2921 49.995 55.2136C50.1608 55.1328 50.2509 55.0893 50.2509 55.0893L50.2599 55.0871C51.0604 54.7044 51.3995 53.7364 51.0259 52.9238C50.6493 52.1105 49.6934 51.7637 48.8951 52.1448Z" fill="#051600"/>
<path d="M37.8114 51.9894C48.967 51.9894 58.0084 46.4547 58.0084 39.6251C58.0084 32.797 48.967 27.2623 37.8114 27.2623C26.6633 27.2623 17.6241 32.797 17.6241 39.6251C17.6234 46.4547 26.6633 51.9894 37.8114 51.9894ZM46.2023 34.7567C48.847 34.7567 50.9942 36.9359 50.9942 39.6251C50.9942 42.3158 48.8478 44.4943 46.2023 44.4943C43.5562 44.4943 41.4104 42.3158 41.4104 39.6251C41.4104 36.9359 43.5554 34.7567 46.2023 34.7567ZM29.7739 34.935C32.4231 34.935 34.5658 37.1143 34.5658 39.8034C34.5658 42.4926 32.4231 44.6726 29.7739 44.6726C27.1247 44.6726 24.9797 42.4926 24.9797 39.8034C24.9797 37.1143 27.1255 34.935 29.7739 34.935Z" fill="#051600"/>
<path d="M31.3037 42.2565C32.6391 41.3952 33.0315 39.6001 32.1867 38.2471C31.3419 36.8934 29.5758 36.4932 28.2404 37.3523C26.9086 38.2121 26.5133 40.0064 27.3596 41.3632C28.2081 42.7146 29.9735 43.1163 31.3037 42.2565ZM28.0678 38.6481C28.5847 38.318 29.2585 38.472 29.5863 38.9911C29.9067 39.5094 29.7581 40.1992 29.2457 40.5293C28.7348 40.8593 28.0558 40.7038 27.7294 40.187C27.4068 39.6664 27.5584 38.9766 28.0678 38.6481Z" fill="#6D30FB"/>
<path d="M44.4351 41.9053C45.6731 42.8977 47.4714 42.6827 48.446 41.4228C49.4229 40.1643 49.2128 38.3387 47.9689 37.3448C46.7309 36.3523 44.9348 36.5681 43.958 37.8273C42.9796 39.0865 43.1904 40.9136 44.4351 41.9053ZM46.4616 38.7633C46.8382 38.28 47.5285 38.197 48.0011 38.5781C48.4775 38.9577 48.5586 39.6597 48.1857 40.1452C47.8098 40.627 47.1181 40.7085 46.6454 40.3282C46.1682 39.9486 46.0865 39.2473 46.4616 38.7633Z" fill="#6D30FB"/>
<path d="M41.7395 7.2279C41.7395 5.11269 40.0537 3.39917 37.9702 3.39917C35.8898 3.39917 34.2047 5.11269 34.2047 7.2279C34.2047 9.34083 35.8898 11.0551 37.9702 11.0551C40.0529 11.0551 41.7395 9.34083 41.7395 7.2279Z" fill="#051600"/>
</svg>
