<svg width="70" height="70" viewBox="0 0 70 70" fill="none" xmlns="http://www.w3.org/2000/svg">
<path d="M46.4 42.35H38.6L40.225 36.95C40.7221 35.3353 40.5658 33.5901 39.7898 32.0895C39.0137 30.5889 37.6799 29.4526 36.075 28.925C35.6141 28.773 35.1268 28.7179 34.6436 28.7631C34.1604 28.8082 33.6917 28.9527 33.2669 29.1874C32.8421 29.4221 32.4704 29.742 32.1749 30.127C31.8795 30.512 31.6668 30.9539 31.55 31.425L31.3 32.475C30.3572 36.2585 28.4044 39.7149 25.65 42.475L24.225 43.875C23.8629 43.4189 23.4033 43.0496 22.8798 42.7944C22.3564 42.5391 21.7824 42.4044 21.2 42.4H19.375C18.3493 42.3999 17.3648 42.8039 16.6348 43.5245C15.9049 44.2451 15.4882 45.2243 15.475 46.25V62.35C15.475 63.3843 15.8859 64.3763 16.6173 65.1077C17.3487 65.8391 18.3407 66.25 19.375 66.25H21.2C21.8714 66.2484 22.5308 66.0725 23.1137 65.7394C23.6965 65.4064 24.1829 64.9276 24.525 64.35L24.875 64.525C27.1346 65.6533 29.6245 66.2437 32.15 66.25H41.125C42.6088 66.2572 44.071 65.8954 45.3802 65.1971C46.6894 64.4989 47.8044 63.4861 48.625 62.25C50.3716 59.6384 51.3027 56.5667 51.3 53.425V47.2C51.3001 46.5588 51.173 45.9241 50.9261 45.3323C50.6793 44.7406 50.3175 44.2037 49.8619 43.7527C49.4062 43.3017 48.8656 42.9455 48.2714 42.7047C47.6772 42.4639 47.0411 42.3434 46.4 42.35ZM22.5 62.35C22.5 62.7213 22.3525 63.0774 22.09 63.3399C21.8274 63.6025 21.4713 63.75 21.1 63.75H19.375C19.0037 63.75 18.6476 63.6025 18.3851 63.3399C18.1225 63.0774 17.975 62.7213 17.975 62.35V46.25C17.975 45.8787 18.1225 45.5226 18.3851 45.26C18.6476 44.9975 19.0037 44.85 19.375 44.85H21.2C21.5537 44.8753 21.8847 45.0339 22.126 45.2938C22.3672 45.5536 22.5009 45.8954 22.5 46.25V62.35ZM48.75 53.425C48.7605 56.0928 47.9773 58.7035 46.5 60.925C45.909 61.8086 45.1094 62.5331 44.172 63.0345C43.2346 63.5359 42.1881 63.7988 41.125 63.8H32.15C30.0156 63.7979 27.9106 63.3016 26 62.35L25 61.85V46.5L27.3 44.2C30.3773 41.1232 32.5631 37.27 33.625 33.05L33.875 32.025C33.9493 31.7508 34.129 31.5171 34.375 31.375C34.5012 31.3199 34.6374 31.2915 34.775 31.2915C34.9127 31.2915 35.0489 31.3199 35.175 31.375C35.6677 31.5388 36.1233 31.7982 36.5156 32.1382C36.908 32.4782 37.2294 32.8923 37.4616 33.3567C37.6938 33.8211 37.8322 34.3267 37.8688 34.8446C37.9054 35.3625 37.8396 35.8825 37.675 36.375L35.575 43.4C35.5207 43.5863 35.5105 43.7827 35.5452 43.9736C35.5799 44.1645 35.6586 44.3447 35.775 44.5C35.8886 44.6582 36.039 44.7864 36.2132 44.8736C36.3875 44.9607 36.5803 45.0041 36.775 45H46.25C46.5586 45 46.8642 45.0608 47.1493 45.1789C47.4345 45.297 47.6935 45.4701 47.9117 45.6883C48.13 45.9065 48.3031 46.1656 48.4212 46.4507C48.5392 46.7358 48.6 47.0414 48.6 47.35L48.75 53.425Z" fill="#6D30FB"/>
<path d="M27.5 18.25L26.7 22.875C26.6038 23.3869 26.6563 23.9156 26.8512 24.3985C27.0462 24.8815 27.3755 25.2984 27.8 25.6C28.27 25.9504 28.8389 26.1429 29.425 26.15C29.8776 26.1429 30.3224 26.0317 30.725 25.825L35 23.625L39.175 25.825C39.6341 26.0674 40.1524 26.175 40.67 26.1351C41.1877 26.0953 41.6834 25.9098 42.1 25.6C42.5203 25.3004 42.8468 24.8875 43.0415 24.4095C43.2362 23.9315 43.2912 23.4081 43.2 22.9L42.5 18.25L45.775 15C46.1532 14.6423 46.4222 14.1846 46.5505 13.6801C46.6788 13.1756 46.6613 12.645 46.5 12.15C46.3385 11.6556 46.0424 11.2159 45.645 10.8803C45.2476 10.5447 44.7646 10.3265 44.25 10.25L39.575 9.57503L37.5 5.30003C37.2666 4.83724 36.9093 4.44832 36.4679 4.17659C36.0265 3.90486 35.5184 3.76099 35 3.76099C34.4817 3.76099 33.9736 3.90486 33.5322 4.17659C33.0908 4.44832 32.7335 4.83724 32.5 5.30003L30.425 9.52503L25.75 10.2C25.2355 10.2765 24.7525 10.4947 24.3551 10.8303C23.9577 11.1659 23.6616 11.6056 23.5 12.1C23.3284 12.6019 23.3055 13.1426 23.4341 13.6571C23.5627 14.1717 23.8374 14.638 24.225 15L27.5 18.25ZM26 12.675L31.325 11.9C31.5656 11.9156 31.8054 11.8599 32.0144 11.7398C32.2234 11.6197 32.3923 11.4407 32.5 11.225L35 6.40003C35.022 6.35216 35.0572 6.3116 35.1015 6.28316C35.1458 6.25472 35.1974 6.2396 35.25 6.2396C35.3027 6.2396 35.3542 6.25472 35.3986 6.28316C35.4429 6.3116 35.4781 6.35216 35.5 6.40003L38 11.225C38.0899 11.4076 38.2238 11.5649 38.3896 11.6827C38.5555 11.8006 38.7481 11.8753 38.95 11.9L44.275 12.675C44.3268 12.6856 44.3749 12.7096 44.4144 12.7448C44.454 12.7799 44.4835 12.8248 44.5 12.875C44.5242 12.9168 44.5369 12.9643 44.5369 13.0125C44.5369 13.0608 44.5242 13.1082 44.5 13.15L40.65 16.9C40.5044 17.0455 40.3948 17.223 40.3297 17.4182C40.2646 17.6135 40.2459 17.8213 40.275 18.025L41.2 23.3C41.217 23.3532 41.2137 23.4108 41.1905 23.4616C41.1674 23.5124 41.1263 23.5529 41.075 23.575C41.0318 23.6075 40.9791 23.625 40.925 23.625C40.871 23.625 40.8183 23.6075 40.775 23.575L36.025 21.075C35.8494 20.9765 35.6514 20.9247 35.45 20.9247C35.2487 20.9247 35.0507 20.9765 34.875 21.075L30.1 23.575C30.0607 23.6054 30.0123 23.6219 29.9625 23.6219C29.9128 23.6219 29.8644 23.6054 29.825 23.575C29.7738 23.5529 29.7326 23.5124 29.7095 23.4616C29.6864 23.4108 29.683 23.3532 29.7 23.3L30.625 18.025C30.6542 17.8213 30.6355 17.6135 30.5704 17.4182C30.5053 17.223 30.3956 17.0455 30.25 16.9L26.4 13.15C26.3759 13.1082 26.3632 13.0608 26.3632 13.0125C26.3632 12.9643 26.3759 12.9168 26.4 12.875C26.3351 12.8787 26.2707 12.8612 26.2166 12.8251C26.1625 12.7891 26.1216 12.7364 26.1 12.675H26Z" fill="#6D30FB"/>
<path d="M18.35 33.125C18.7224 33.1318 19.0916 33.0553 19.4307 32.9011C19.7697 32.7469 20.07 32.5189 20.3096 32.2338C20.5492 31.9487 20.7221 31.6136 20.8156 31.253C20.9091 30.8925 20.9209 30.5157 20.85 30.15L20.175 26.35L22.975 23.625C23.3278 23.3013 23.5802 22.883 23.7022 22.42C23.8242 21.957 23.8106 21.4687 23.6632 21.0132C23.5157 20.5576 23.2405 20.154 22.8704 19.8503C22.5002 19.5466 22.0506 19.3556 21.575 19.3L17.75 18.75L16.025 15.275C15.7949 14.8752 15.4634 14.5431 15.064 14.3121C14.6646 14.0812 14.2114 13.9596 13.75 13.9596C13.2887 13.9596 12.8355 14.0812 12.4361 14.3121C12.0367 14.5431 11.7052 14.8752 11.475 15.275L9.75003 18.75L5.92503 19.3C5.44946 19.3556 4.99987 19.5466 4.6297 19.8503C4.25953 20.154 3.98436 20.5576 3.8369 21.0132C3.68944 21.4687 3.6759 21.957 3.79789 22.42C3.91988 22.883 4.17226 23.3013 4.52503 23.625L7.30003 26.35L6.62503 30.15C6.53842 30.6211 6.58898 31.1072 6.7707 31.5504C6.95241 31.9936 7.25763 32.3753 7.65003 32.65C8.03328 32.9302 8.48838 33.0954 8.96209 33.1264C9.4358 33.1574 9.90854 33.0528 10.325 32.825L13.75 31.025L17.175 32.825C17.5361 33.0199 17.9397 33.123 18.35 33.125ZM13.75 28.375C13.5485 28.3738 13.3502 28.4255 13.175 28.525L9.10003 30.575L10 26.125C10.0139 25.911 9.97571 25.6969 9.88862 25.5009C9.80153 25.305 9.66818 25.1331 9.50003 25L6.27503 21.775L10.775 21.125C10.974 21.1007 11.1634 21.026 11.3253 20.9078C11.4872 20.7897 11.6162 20.6321 11.7 20.45L13.775 16.375L15.8 20.45C15.8838 20.6321 16.0128 20.7897 16.1747 20.9078C16.3366 21.026 16.5261 21.1007 16.725 21.125L21.225 21.85L18 25C17.8544 25.1455 17.7447 25.3229 17.6796 25.5182C17.6146 25.7135 17.5959 25.9213 17.625 26.125L18.35 30.625L14.325 28.525C14.1498 28.4255 13.9515 28.3738 13.75 28.375Z" fill="#6D30FB"/>
<path d="M66.125 21.025C65.9822 20.5726 65.7136 20.1702 65.3506 19.8647C64.9876 19.5593 64.5452 19.3634 64.075 19.3L60.25 18.75L58.525 15.275C58.2949 14.8752 57.9634 14.5431 57.564 14.3121C57.1646 14.0812 56.7114 13.9596 56.25 13.9596C55.7887 13.9596 55.3355 14.0812 54.9361 14.3121C54.5367 14.5431 54.2052 14.8752 53.975 15.275L52.25 18.75L48.425 19.3C47.9495 19.3556 47.4999 19.5466 47.1297 19.8503C46.7595 20.154 46.4844 20.5576 46.3369 21.0132C46.1894 21.4687 46.1759 21.957 46.2979 22.42C46.4199 22.883 46.6723 23.3013 47.025 23.625L49.8 26.35L49.125 30.15C49.0384 30.6211 49.089 31.1072 49.2707 31.5504C49.4524 31.9936 49.7576 32.3753 50.15 32.65C50.5333 32.9302 50.9884 33.0954 51.4621 33.1264C51.9358 33.1574 52.4085 33.0528 52.825 32.825L56.25 31.025L59.675 32.825C60.0361 33.0199 60.4397 33.123 60.85 33.125C61.2224 33.1318 61.5916 33.0553 61.9307 32.9011C62.2697 32.7469 62.57 32.5189 62.8096 32.2338C63.0492 31.9487 63.2221 31.6136 63.3156 31.253C63.4091 30.8925 63.4209 30.5157 63.35 30.15L62.675 26.35L65.45 23.625C65.7983 23.3008 66.0468 22.8839 66.1664 22.4234C66.286 21.9628 66.2716 21.4777 66.125 21.025ZM60.5 25C60.3544 25.1455 60.2447 25.3229 60.1797 25.5182C60.1146 25.7135 60.0959 25.9213 60.125 26.125L60.85 30.625L56.825 28.525C56.6494 28.4265 56.4514 28.3747 56.25 28.3747C56.0487 28.3747 55.8507 28.4265 55.675 28.525L51.6 30.575L52.5 26.125C52.5139 25.911 52.4757 25.6969 52.3886 25.5009C52.3015 25.305 52.1682 25.1331 52 25L48.775 21.775L53.275 21.125C53.474 21.1007 53.6634 21.026 53.8253 20.9078C53.9872 20.7897 54.1162 20.6321 54.2 20.45L56.275 16.375L58.3 20.45C58.3838 20.6321 58.5128 20.7897 58.6747 20.9078C58.8366 21.026 59.0261 21.1007 59.225 21.125L63.725 21.85L60.5 25Z" fill="#6D30FB"/>
</svg>
