<svg width="70" height="70" viewBox="0 0 70 70" fill="none" xmlns="http://www.w3.org/2000/svg">
<path d="M35 65.0667C34.9005 65.0667 34.8013 65.0559 34.7041 65.0343C27.3823 63.4112 21.5735 59.9275 17.4394 54.68C14.1507 50.5055 11.9313 45.2313 10.8428 39.0035C9.01072 28.5244 10.9931 19.0553 11.0783 18.6573C11.1347 18.394 11.2676 18.1533 11.4602 17.9652C11.6529 17.7771 11.8968 17.6502 12.1614 17.6002C28.2457 14.5616 33.7766 5.68255 33.83 5.59327C33.9517 5.39184 34.1234 5.22525 34.3284 5.10962C34.5333 4.99398 34.7647 4.93323 35.0001 4.93323C35.2354 4.93323 35.4668 4.99398 35.6718 5.10962C35.8768 5.22525 36.0484 5.39184 36.1702 5.59327C36.1814 5.61159 37.5808 7.85775 40.9314 10.4456C44.0282 12.8373 49.4751 16.0203 57.8386 17.6002C58.1032 17.6502 58.3471 17.7771 58.5398 17.9652C58.7324 18.1533 58.8653 18.394 58.9217 18.6573C59.0069 19.0553 60.9887 28.5244 59.1572 39.0035C58.0688 45.2313 55.8495 50.5055 52.5607 54.68C48.4266 59.9275 42.6178 63.4112 35.296 65.0343C35.1988 65.0559 35.0996 65.0667 35 65.0667ZM13.5911 20.1047C13.1592 22.6543 12.1028 30.4111 13.5488 38.6048C14.5656 44.3656 16.6054 49.2152 19.6115 53.0185C23.2881 57.6703 28.4648 60.7914 35 62.2979C41.5352 60.7914 46.712 57.6703 50.3885 53.0185C53.3946 49.2152 55.4343 44.3656 56.451 38.6048C57.8972 30.4111 56.841 22.6541 56.4089 20.1047C43.7644 17.4911 37.4078 11.4682 35 8.58659C32.5928 11.4679 26.2363 17.4908 13.5911 20.1047Z" fill="#6D30FB"/>
<path d="M35 51.1437C32.1316 51.1437 29.3275 50.2931 26.9425 48.6994C24.5575 47.1058 22.6986 44.8407 21.601 42.1906C20.5033 39.5405 20.2161 36.6244 20.7757 33.8111C21.3353 30.9978 22.7166 28.4136 24.7449 26.3853C26.7732 24.357 29.3574 22.9757 32.1708 22.4161C34.9841 21.8565 37.9002 22.1437 40.5503 23.2415C43.2004 24.3392 45.4654 26.1981 47.0591 28.5831C48.6527 30.9681 49.5033 33.7721 49.5033 36.6406C49.4989 40.4857 47.9695 44.1722 45.2506 46.8911C42.5316 49.61 38.8452 51.1394 35 51.1437ZM35 24.8718C32.6724 24.8719 30.397 25.5621 28.4617 26.8553C26.5263 28.1485 25.0179 29.9865 24.1272 32.137C23.2365 34.2874 23.0034 36.6537 23.4575 38.9366C23.9117 41.2195 25.0325 43.3165 26.6784 44.9624C28.3243 46.6083 30.4213 47.7291 32.7042 48.1832C34.9871 48.6373 37.3534 48.4042 39.5039 47.5135C41.6543 46.6227 43.4923 45.1143 44.7855 43.1789C46.0787 41.2436 46.7689 38.9682 46.7689 36.6406C46.7653 33.5204 45.5242 30.529 43.3179 28.3227C41.1116 26.1164 38.1202 24.8754 35 24.8718Z" fill="#6D30FB"/>
<path d="M33.5098 43.074C33.164 43.0744 32.8309 42.9433 32.5782 42.7074L27.0137 37.5257C26.8823 37.4033 26.7763 37.2563 26.7017 37.093C26.6272 36.9296 26.5855 36.7532 26.5791 36.5738C26.5727 36.3943 26.6017 36.2154 26.6645 36.0472C26.7273 35.8789 26.8226 35.7247 26.9449 35.5933C27.0673 35.4619 27.2144 35.3559 27.3777 35.2814C27.541 35.2068 27.7174 35.1651 27.8969 35.1587C28.0763 35.1524 28.2553 35.1814 28.4235 35.2441C28.5917 35.3069 28.7459 35.4022 28.8773 35.5246L33.4757 39.807L42.0528 31.23C42.3092 30.9735 42.6569 30.8295 43.0195 30.8295C43.3821 30.8295 43.7299 30.9735 43.9863 31.2299C44.2427 31.4863 44.3868 31.834 44.3868 32.1966C44.3868 32.5593 44.2428 32.907 43.9864 33.1634L34.4762 42.6734C34.3494 42.8006 34.1988 42.9014 34.0329 42.9701C33.8671 43.0389 33.6893 43.0742 33.5098 43.074Z" fill="#6D30FB"/>
</svg>
