<svg width="20" height="20" viewBox="0 0 20 20" fill="none" xmlns="http://www.w3.org/2000/svg">
<path d="M5.39258 10.084L7.98594 12.6774C8.0772 12.7697 8.1858 12.843 8.3056 12.8931C8.4253 12.9431 8.5539 12.9689 8.6837 12.9689C8.8134 12.9689 8.942 12.9431 9.0617 12.8931C9.1815 12.843 9.2901 12.7697 9.3814 12.6774L14.6076 7.45117" stroke="#6D30FB" stroke-width="1.5" stroke-linecap="round" stroke-linejoin="round"/>
<path d="M13.25 0.75H6.75C3.43629 0.75 0.75 3.43629 0.75 6.75V13.25C0.75 16.5637 3.43629 19.25 6.75 19.25H13.25C16.5637 19.25 19.25 16.5637 19.25 13.25V6.75C19.25 3.43629 16.5637 0.75 13.25 0.75Z" stroke="#6D30FB" stroke-width="1.5"/>
</svg>
