<svg width="50" height="50" viewBox="0 0 50 50" fill="none" xmlns="http://www.w3.org/2000/svg">
<path fill-rule="evenodd" clip-rule="evenodd" d="M44.7915 6.07189V8.94375L39.9894 13.7432C38.3228 11.5276 36.1769 9.69217 33.7082 8.39217L35.88 6.21564C37.3852 5.99011 38.5415 4.69115 38.5415 3.125C38.5415 1.40052 37.1405 0 35.4165 0C33.6925 0 32.2915 1.40052 32.2915 3.125C32.2915 4.14271 32.781 5.04739 33.531 5.61822L31.677 7.47553C29.604 6.68387 27.3488 6.25 24.9998 6.25C22.6509 6.25 20.3956 6.68387 18.3227 7.47553L16.4686 5.61822C17.2186 5.04739 17.7082 4.14271 17.7082 3.125C17.7082 1.40052 16.3071 0 14.5832 0C12.8592 0 11.4582 1.40052 11.4582 3.125C11.4582 4.69115 12.6145 5.99011 14.1197 6.21564L16.2915 8.39217C13.8228 9.69165 11.6769 11.5271 10.0102 13.7432L5.20817 8.94375V6.07189C6.42171 5.64272 7.2915 4.48438 7.2915 3.125C7.2915 1.40052 5.89046 0 4.1665 0C2.44255 0 1.0415 1.40052 1.0415 3.125C1.0415 4.48438 1.9113 5.64272 3.12484 6.07189V9.375C3.12484 9.65104 3.23426 9.91615 3.43217 10.1115L8.82794 15.5104C7.19252 18.2948 6.24984 21.5385 6.24984 25C6.24984 27.5995 6.78114 30.076 7.73948 32.3276C7.73948 32.3323 7.74469 32.337 7.74469 32.3411C8.0624 33.0833 8.42169 33.8005 8.82794 34.4896L3.43217 39.8885C3.23426 40.0839 3.12484 40.349 3.12484 40.625V43.9281C1.9113 44.3573 1.0415 45.5156 1.0415 46.875C1.0415 48.5995 2.44255 50 4.1665 50C5.89046 50 7.2915 48.5995 7.2915 46.875C7.2915 45.5156 6.42171 44.3573 5.20817 43.9281V41.0563L10.0102 36.2568C11.6769 38.4724 13.8228 40.3078 16.2915 41.6078L14.1197 43.7844C12.6145 44.0099 11.4582 45.3089 11.4582 46.875C11.4582 48.5995 12.8592 50 14.5832 50C16.3071 50 17.7082 48.5995 17.7082 46.875C17.7082 45.8573 17.2186 44.9526 16.4686 44.3818L18.3227 42.5245C20.3956 43.3161 22.6509 43.75 24.9998 43.75C27.3488 43.75 29.604 43.3161 31.677 42.5245L33.531 44.3818C32.781 44.9526 32.2915 45.8573 32.2915 46.875C32.2915 48.5995 33.6925 50 35.4165 50C37.1405 50 38.5415 48.5995 38.5415 46.875C38.5415 45.3089 37.3852 44.0099 35.88 43.7844L33.7082 41.6078C36.1769 40.3083 38.3228 38.4729 39.9894 36.2568L44.7915 41.0563V43.9281C43.578 44.3573 42.7082 45.5156 42.7082 46.875C42.7082 48.5995 44.1092 50 45.8332 50C47.5571 50 48.9582 48.5995 48.9582 46.875C48.9582 45.5156 48.0884 44.3573 46.8748 43.9281V40.625C46.8748 40.349 46.7654 40.0839 46.5675 39.8885L41.1717 34.4896C42.8124 31.7052 43.7498 28.4615 43.7498 25C43.7498 21.5385 42.8124 18.2948 41.1717 15.5104L46.5675 10.1115C46.7654 9.91615 46.8748 9.65104 46.8748 9.375V6.07189C48.0884 5.64272 48.9582 4.48438 48.9582 3.125C48.9582 1.40052 47.5571 0 45.8332 0C44.1092 0 42.7082 1.40052 42.7082 3.125C42.7082 4.48438 43.578 5.64272 44.7915 6.07189ZM45.8332 47.9167C45.2603 47.9167 44.7915 47.45 44.7915 46.875C44.7915 46.3 45.2603 45.8333 45.8332 45.8333C46.4061 45.8333 46.8748 46.3 46.8748 46.875C46.8748 47.45 46.4061 47.9167 45.8332 47.9167ZM4.1665 47.9167C3.59359 47.9167 3.12484 47.45 3.12484 46.875C3.12484 46.3 3.59359 45.8333 4.1665 45.8333C4.73942 45.8333 5.20817 46.3 5.20817 46.875C5.20817 47.45 4.73942 47.9167 4.1665 47.9167ZM35.4165 47.9167C34.8436 47.9167 34.3748 47.45 34.3748 46.875C34.3748 46.3 34.8436 45.8333 35.4165 45.8333C35.9894 45.8333 36.4582 46.3 36.4582 46.875C36.4582 47.45 35.9894 47.9167 35.4165 47.9167ZM14.5832 47.9167C14.0103 47.9167 13.5415 47.45 13.5415 46.875C13.5415 46.3 14.0103 45.8333 14.5832 45.8333C15.1561 45.8333 15.6248 46.3 15.6248 46.875C15.6248 47.45 15.1561 47.9167 14.5832 47.9167ZM36.0206 37.4963L21.354 22.8271C21.078 22.551 20.703 22.3958 20.3123 22.3958C19.9217 22.3958 19.5467 22.551 19.2707 22.8271L9.94259 32.1536C12.6249 37.7771 18.3592 41.6667 24.9998 41.6667C29.2238 41.6667 33.0831 40.0911 36.0206 37.4963ZM41.1613 29.0911L37.1301 25.063C37.0936 25.0229 37.0363 25 36.979 25C36.9217 25 36.8644 25.0229 36.8279 25.063L31.6822 30.2083L37.4946 36.0234C39.2238 34.0667 40.4999 31.701 41.1613 29.0911ZM41.5936 26.5781C41.6405 26.0594 41.6665 25.5328 41.6665 25C41.6665 15.8016 34.1978 8.33333 24.9998 8.33333C15.8019 8.33333 8.33317 15.8016 8.33317 25C8.33317 26.7568 8.604 28.4505 9.10921 30.0412L17.7967 21.3542C18.4633 20.687 19.3696 20.3125 20.3123 20.3125C21.255 20.3125 22.1613 20.687 22.828 21.3542L30.2082 28.7354L35.3539 23.5901C35.7862 23.1589 36.3696 22.9167 36.979 22.9167C37.5884 22.9167 38.1718 23.1589 38.6041 23.5901L41.5936 26.5781ZM29.6873 14.5833C27.3905 14.5833 25.5207 16.4505 25.5207 18.75C25.5207 21.0495 27.3905 22.9167 29.6873 22.9167C31.9842 22.9167 33.854 21.0495 33.854 18.75C33.854 16.4505 31.9842 14.5833 29.6873 14.5833ZM29.6873 16.6667C30.8384 16.6667 31.7707 17.6 31.7707 18.75C31.7707 19.9 30.8384 20.8333 29.6873 20.8333C28.5363 20.8333 27.604 19.9 27.604 18.75C27.604 17.6 28.5363 16.6667 29.6873 16.6667ZM45.8332 2.08333C46.4061 2.08333 46.8748 2.55 46.8748 3.125C46.8748 3.7 46.4061 4.16667 45.8332 4.16667C45.2603 4.16667 44.7915 3.7 44.7915 3.125C44.7915 2.55 45.2603 2.08333 45.8332 2.08333ZM4.1665 2.08333C4.73942 2.08333 5.20817 2.55 5.20817 3.125C5.20817 3.7 4.73942 4.16667 4.1665 4.16667C3.59359 4.16667 3.12484 3.7 3.12484 3.125C3.12484 2.55 3.59359 2.08333 4.1665 2.08333ZM35.4165 2.08333C35.9894 2.08333 36.4582 2.55 36.4582 3.125C36.4582 3.7 35.9894 4.16667 35.4165 4.16667C34.8436 4.16667 34.3748 3.7 34.3748 3.125C34.3748 2.55 34.8436 2.08333 35.4165 2.08333ZM14.5832 2.08333C15.1561 2.08333 15.6248 2.55 15.6248 3.125C15.6248 3.7 15.1561 4.16667 14.5832 4.16667C14.0103 4.16667 13.5415 3.7 13.5415 3.125C13.5415 2.55 14.0103 2.08333 14.5832 2.08333Z" fill="#001315"/>
</svg>
