<svg width="50" height="50" viewBox="0 0 50 50" fill="none" xmlns="http://www.w3.org/2000/svg">
<g clip-path="url(#clip0_201_2461)">
<path d="M9.375 37.5H7.8125C6.1549 37.5 4.56519 36.8415 3.39308 35.6694C2.22098 34.4973 1.5625 32.9075 1.5625 31.25V25C1.5625 23.3425 2.22098 21.7527 3.39308 20.5806C4.56519 19.4085 6.1549 18.75 7.8125 18.75H9.375C9.7894 18.75 10.1868 18.9146 10.4799 19.2076C10.7729 19.5007 10.9375 19.8981 10.9375 20.3125V35.9375C10.9375 36.3519 10.7729 36.7494 10.4799 37.0423C10.1868 37.3354 9.7894 37.5 9.375 37.5Z" stroke="white" stroke-width="1.5" stroke-linecap="round" stroke-linejoin="round"/>
<path d="M42.1875 37.5H40.625C40.2106 37.5 39.8131 37.3354 39.5202 37.0423C39.2271 36.7494 39.0625 36.3519 39.0625 35.9375V20.3125C39.0625 19.8981 39.2271 19.5007 39.5202 19.2076C39.8131 18.9146 40.2106 18.75 40.625 18.75H42.1875C43.845 18.75 45.4348 19.4085 46.6069 20.5806C47.779 21.7527 48.4375 23.3425 48.4375 25V31.25C48.4375 32.9075 47.779 34.4973 46.6069 35.6694C45.4348 36.8415 43.845 37.5 42.1875 37.5Z" stroke="white" stroke-width="1.5" stroke-linecap="round" stroke-linejoin="round"/>
<path d="M7.8125 18.75C7.8125 14.1916 9.62331 9.81987 12.8466 6.5966C16.0699 3.37331 20.4416 1.5625 25 1.5625C29.5583 1.5625 33.9302 3.37331 37.1533 6.5966C40.3767 9.81987 42.1875 14.1916 42.1875 18.75" stroke="white" stroke-width="1.5" stroke-linecap="round" stroke-linejoin="round"/>
<path d="M31.25 45.3125H35.9375C37.595 45.3125 39.1848 44.654 40.3569 43.4819C41.529 42.3098 42.1875 40.72 42.1875 39.0625V37.5" stroke="white" stroke-width="1.5" stroke-linecap="round" stroke-linejoin="round"/>
<path d="M28.125 48.4375H25C24.1712 48.4375 23.3762 48.1083 22.7902 47.5223C22.2042 46.9362 21.875 46.1412 21.875 45.3125C21.875 44.4837 22.2042 43.6888 22.7902 43.1027C23.3762 42.5167 24.1712 42.1875 25 42.1875H28.125C28.9537 42.1875 29.7488 42.5167 30.3348 43.1027C30.9208 43.6888 31.25 44.4837 31.25 45.3125C31.25 46.1412 30.9208 46.9362 30.3348 47.5223C29.7488 48.1083 28.9537 48.4375 28.125 48.4375Z" stroke="white" stroke-width="1.5" stroke-linecap="round" stroke-linejoin="round"/>
<path d="M18.75 17.1878C18.7502 16.042 19.0654 14.9183 19.6611 13.9396C20.2568 12.9608 21.11 12.1647 22.1277 11.6381C23.1452 11.1115 24.2881 10.8748 25.431 10.9539C26.5742 11.0329 27.6735 11.4246 28.609 12.0862C29.5444 12.7478 30.28 13.6538 30.7352 14.7053C31.1906 15.7567 31.3481 16.913 31.1906 18.0479C31.0331 19.1828 30.5669 20.2526 29.8425 21.1404C29.1181 22.0281 28.1635 22.6996 27.0833 23.0814C26.4737 23.2971 25.946 23.6962 25.5729 24.2241C25.1998 24.7523 24.9996 25.3829 25 26.0294V26.5627" stroke="white" stroke-width="1.5" stroke-linecap="round" stroke-linejoin="round"/>
<path d="M25 34.375C24.5685 34.375 24.2188 34.0252 24.2188 33.5937C24.2188 33.1623 24.5685 32.8125 25 32.8125" stroke="white" stroke-width="1.5"/>
<path d="M25 34.375C25.4315 34.375 25.7812 34.0252 25.7812 33.5937C25.7812 33.1623 25.4315 32.8125 25 32.8125" stroke="white" stroke-width="1.5"/>
</g>
<defs>
<clipPath id="clip0_201_2461">
<rect width="50" height="50" fill="white"/>
</clipPath>
</defs>
</svg>
