<svg width="50" height="50" viewBox="0 0 50 50" fill="none" xmlns="http://www.w3.org/2000/svg">
<g clip-path="url(#clip0_367_11329)">
<path d="M16.3386 22.5079C16.67 22.5084 16.988 22.3766 17.2223 22.1423C17.4566 21.908 17.5884 21.5899 17.5879 21.2586C17.5879 20.5685 18.1476 20.0088 18.8377 20.0088C19.5278 20.0088 20.0875 20.5685 20.0875 21.2586C20.0875 21.9487 20.6467 22.5079 21.3368 22.5079C22.0273 22.5079 22.5866 21.9487 22.5866 21.2586C22.5866 19.1879 20.908 17.5098 18.8377 17.5098C16.7674 17.5098 15.0889 19.1879 15.0889 21.2586C15.0889 21.5899 15.2202 21.908 15.4545 22.1423C15.6893 22.3766 16.0069 22.5084 16.3386 22.5079Z" fill="#001315"/>
<path d="M33.2742 30.7639C28.6074 33.0969 21.565 33.0969 16.8972 30.7639C16.2799 30.455 15.5294 30.7054 15.2205 31.3227C14.9121 31.94 15.1619 32.691 15.7793 32.9994C18.6879 34.3714 21.8702 35.0624 25.0855 35.0203C28.3008 35.0624 31.4835 34.3709 34.3917 32.9994C35.0091 32.691 35.2594 31.94 34.9509 31.3227C34.642 30.7054 33.8915 30.455 33.2742 30.7639Z" fill="#001315"/>
<path d="M46.3292 20.0096H45.0794V16.2607C45.0762 12.8116 42.2806 10.016 38.8315 10.0128H35.0827V7.28307C36.8038 6.67489 37.8366 4.91442 37.5278 3.11504C37.2189 1.31521 35.6588 0 33.8329 0C32.007 0 30.4469 1.31521 30.1381 3.11504C29.8292 4.91442 30.862 6.67489 32.5831 7.28307V10.0128H17.5877V7.28307C19.3093 6.67489 20.3417 4.91442 20.0333 3.11504C19.7244 1.31521 18.1643 0 16.3384 0C14.5125 0 12.952 1.31521 12.6436 3.11504C12.3347 4.91442 13.3671 6.67489 15.0887 7.28307V10.0128H11.3398C7.8907 10.0165 5.09554 12.8116 5.09188 16.2607V20.0096H3.84211C1.77274 20.0119 0.0955498 21.6891 0.0932617 23.7584V28.757C0.0955498 30.8264 1.77274 32.5036 3.84211 32.5059H5.09188V37.5041C5.09554 40.9536 7.8907 43.7488 11.3398 43.7524H17.5877V48.7506C17.5882 49.205 17.8349 49.6233 18.2321 49.8434C18.6293 50.0635 19.1148 50.0507 19.4997 49.81L29.1931 43.7524H38.8315C42.2806 43.7492 45.0762 40.9536 45.0794 37.5041V32.5059H46.3292C48.3986 32.5036 50.0758 30.8264 50.0781 28.757V23.7584C50.0758 21.6891 48.3986 20.0119 46.3292 20.0096ZM33.8329 2.5151C34.523 2.5151 35.0827 3.07431 35.0827 3.76441C35.0827 4.45496 34.523 5.01418 33.8329 5.01418C33.1428 5.01418 32.5831 4.45496 32.5831 3.76441C32.5845 3.07523 33.1433 2.51647 33.8329 2.5151ZM16.3384 2.5151C17.0285 2.5151 17.5877 3.07431 17.5877 3.76441C17.5877 4.45496 17.0285 5.01418 16.3384 5.01418C15.6483 5.01418 15.0887 4.45496 15.0887 3.76441C15.0896 3.07477 15.6483 2.51601 16.3384 2.5151ZM3.84211 30.0064C3.15247 30.0059 2.59326 29.4467 2.59234 28.757V23.7584C2.59326 23.0688 3.15247 22.5096 3.84211 22.5087H5.09188V30.0064H3.84211ZM42.5804 37.5041C42.5781 39.5739 40.9009 41.2511 38.8315 41.2529H28.8343C28.6004 41.2529 28.3712 41.3188 28.173 41.4433L20.0873 46.4954V42.5027C20.0873 42.1713 19.9559 41.8533 19.7212 41.619C19.4869 41.3847 19.1688 41.2529 18.8375 41.2529H11.3398C9.27044 41.2511 7.59325 39.5739 7.59096 37.5041V16.2607C7.59325 14.1914 9.27044 12.5142 11.3398 12.5119H38.8315C40.9009 12.5142 42.5781 14.1914 42.5804 16.2607V37.5041ZM47.5785 28.757C47.5776 29.4467 47.0189 30.0054 46.3292 30.0064H45.0794V22.5087H46.3292C47.0189 22.51 47.5776 23.0688 47.5785 23.7584V28.757Z" fill="#001315"/>
<path d="M31.3338 17.5098C29.2644 17.5121 27.5872 19.1892 27.585 21.2586C27.585 21.9487 28.1442 22.5079 28.8343 22.5079C29.5248 22.5079 30.084 21.9487 30.084 21.2586C30.084 20.5685 30.6437 20.0088 31.3338 20.0088C32.0239 20.0088 32.5831 20.5685 32.5831 21.2586C32.5831 21.9487 33.1428 22.5079 33.8329 22.5079C34.523 22.5079 35.0827 21.9487 35.0827 21.2586C35.0804 19.1892 33.4032 17.5121 31.3338 17.5098Z" fill="#001315"/>
</g>
<defs>
<clipPath id="clip0_367_11329">
<rect width="50" height="50" fill="white"/>
</clipPath>
</defs>
</svg>
