<svg width="50" height="50" viewBox="0 0 50 50" fill="none" xmlns="http://www.w3.org/2000/svg">
<path fill-rule="evenodd" clip-rule="evenodd" d="M44.7917 6.07189V8.94375L39.9896 13.7432C38.323 11.5276 36.1771 9.69217 33.7083 8.39217L35.8802 6.21564C37.3854 5.99011 38.5417 4.69115 38.5417 3.125C38.5417 1.40052 37.1406 0 35.4167 0C33.6927 0 32.2917 1.40052 32.2917 3.125C32.2917 4.14271 32.7812 5.04739 33.5312 5.61822L31.6771 7.47553C29.6042 6.68387 27.349 6.25 25 6.25C22.6511 6.25 20.3958 6.68387 18.3229 7.47553L16.4688 5.61822C17.2188 5.04739 17.7084 4.14271 17.7084 3.125C17.7084 1.40052 16.3073 0 14.5834 0C12.8594 0 11.4584 1.40052 11.4584 3.125C11.4584 4.69115 12.6147 5.99011 14.1199 6.21564L16.2917 8.39217C13.823 9.69165 11.6771 11.5271 10.0104 13.7432L5.20835 8.94375V6.07189C6.4219 5.64272 7.29169 4.48438 7.29169 3.125C7.29169 1.40052 5.89065 0 4.16669 0C2.44273 0 1.04169 1.40052 1.04169 3.125C1.04169 4.48438 1.91148 5.64272 3.12502 6.07189V9.375C3.12502 9.65104 3.23444 9.91615 3.43236 10.1115L8.82812 15.5104C7.1927 18.2948 6.25002 21.5385 6.25002 25C6.25002 27.5995 6.78133 30.076 7.73966 32.3276C7.73966 32.3323 7.74487 32.337 7.74487 32.3411C8.06258 33.0833 8.42187 33.8005 8.82812 34.4896L3.43236 39.8885C3.23444 40.0839 3.12502 40.349 3.12502 40.625V43.9281C1.91148 44.3573 1.04169 45.5156 1.04169 46.875C1.04169 48.5995 2.44273 50 4.16669 50C5.89065 50 7.29169 48.5995 7.29169 46.875C7.29169 45.5156 6.4219 44.3573 5.20835 43.9281V41.0563L10.0104 36.2568C11.6771 38.4724 13.823 40.3078 16.2917 41.6078L14.1199 43.7844C12.6147 44.0099 11.4584 45.3089 11.4584 46.875C11.4584 48.5995 12.8594 50 14.5834 50C16.3073 50 17.7084 48.5995 17.7084 46.875C17.7084 45.8573 17.2188 44.9526 16.4688 44.3818L18.3229 42.5245C20.3958 43.3161 22.6511 43.75 25 43.75C27.349 43.75 29.6042 43.3161 31.6771 42.5245L33.5312 44.3818C32.7812 44.9526 32.2917 45.8573 32.2917 46.875C32.2917 48.5995 33.6927 50 35.4167 50C37.1406 50 38.5417 48.5995 38.5417 46.875C38.5417 45.3089 37.3854 44.0099 35.8802 43.7844L33.7083 41.6078C36.1771 40.3083 38.323 38.4729 39.9896 36.2568L44.7917 41.0563V43.9281C43.5781 44.3573 42.7084 45.5156 42.7084 46.875C42.7084 48.5995 44.1094 50 45.8334 50C47.5573 50 48.9584 48.5995 48.9584 46.875C48.9584 45.5156 48.0886 44.3573 46.875 43.9281V40.625C46.875 40.349 46.7656 40.0839 46.5677 39.8885L41.1719 34.4896C42.8125 31.7052 43.75 28.4615 43.75 25C43.75 21.5385 42.8125 18.2948 41.1719 15.5104L46.5677 10.1115C46.7656 9.91615 46.875 9.65104 46.875 9.375V6.07189C48.0886 5.64272 48.9584 4.48438 48.9584 3.125C48.9584 1.40052 47.5573 0 45.8334 0C44.1094 0 42.7084 1.40052 42.7084 3.125C42.7084 4.48438 43.5781 5.64272 44.7917 6.07189ZM45.8334 47.9167C45.2604 47.9167 44.7917 47.45 44.7917 46.875C44.7917 46.3 45.2604 45.8333 45.8334 45.8333C46.4063 45.8333 46.875 46.3 46.875 46.875C46.875 47.45 46.4063 47.9167 45.8334 47.9167ZM4.16669 47.9167C3.59377 47.9167 3.12502 47.45 3.12502 46.875C3.12502 46.3 3.59377 45.8333 4.16669 45.8333C4.7396 45.8333 5.20835 46.3 5.20835 46.875C5.20835 47.45 4.7396 47.9167 4.16669 47.9167ZM35.4167 47.9167C34.8438 47.9167 34.375 47.45 34.375 46.875C34.375 46.3 34.8438 45.8333 35.4167 45.8333C35.9896 45.8333 36.4584 46.3 36.4584 46.875C36.4584 47.45 35.9896 47.9167 35.4167 47.9167ZM14.5834 47.9167C14.0104 47.9167 13.5417 47.45 13.5417 46.875C13.5417 46.3 14.0104 45.8333 14.5834 45.8333C15.1563 45.8333 15.625 46.3 15.625 46.875C15.625 47.45 15.1563 47.9167 14.5834 47.9167ZM36.0208 37.4963L21.3542 22.8271C21.0781 22.551 20.7031 22.3958 20.3125 22.3958C19.9219 22.3958 19.5469 22.551 19.2709 22.8271L9.94277 32.1536C12.6251 37.7771 18.3594 41.6667 25 41.6667C29.224 41.6667 33.0833 40.0911 36.0208 37.4963ZM41.1615 29.0911L37.1303 25.063C37.0938 25.0229 37.0365 25 36.9792 25C36.9219 25 36.8646 25.0229 36.8281 25.063L31.6824 30.2083L37.4948 36.0234C39.224 34.0667 40.5 31.701 41.1615 29.0911ZM41.5938 26.5781C41.6407 26.0594 41.6667 25.5328 41.6667 25C41.6667 15.8016 34.1979 8.33333 25 8.33333C15.8021 8.33333 8.33335 15.8016 8.33335 25C8.33335 26.7568 8.60418 28.4505 9.10939 30.0412L17.7969 21.3542C18.4635 20.687 19.3698 20.3125 20.3125 20.3125C21.2552 20.3125 22.1615 20.687 22.8282 21.3542L30.2084 28.7354L35.3541 23.5901C35.7864 23.1589 36.3698 22.9167 36.9792 22.9167C37.5886 22.9167 38.172 23.1589 38.6043 23.5901L41.5938 26.5781ZM29.6875 14.5833C27.3906 14.5833 25.5209 16.4505 25.5209 18.75C25.5209 21.0495 27.3906 22.9167 29.6875 22.9167C31.9844 22.9167 33.8542 21.0495 33.8542 18.75C33.8542 16.4505 31.9844 14.5833 29.6875 14.5833ZM29.6875 16.6667C30.8386 16.6667 31.7709 17.6 31.7709 18.75C31.7709 19.9 30.8386 20.8333 29.6875 20.8333C28.5365 20.8333 27.6042 19.9 27.6042 18.75C27.6042 17.6 28.5365 16.6667 29.6875 16.6667ZM45.8334 2.08333C46.4063 2.08333 46.875 2.55 46.875 3.125C46.875 3.7 46.4063 4.16667 45.8334 4.16667C45.2604 4.16667 44.7917 3.7 44.7917 3.125C44.7917 2.55 45.2604 2.08333 45.8334 2.08333ZM4.16669 2.08333C4.7396 2.08333 5.20835 2.55 5.20835 3.125C5.20835 3.7 4.7396 4.16667 4.16669 4.16667C3.59377 4.16667 3.12502 3.7 3.12502 3.125C3.12502 2.55 3.59377 2.08333 4.16669 2.08333ZM35.4167 2.08333C35.9896 2.08333 36.4584 2.55 36.4584 3.125C36.4584 3.7 35.9896 4.16667 35.4167 4.16667C34.8438 4.16667 34.375 3.7 34.375 3.125C34.375 2.55 34.8438 2.08333 35.4167 2.08333ZM14.5834 2.08333C15.1563 2.08333 15.625 2.55 15.625 3.125C15.625 3.7 15.1563 4.16667 14.5834 4.16667C14.0104 4.16667 13.5417 3.7 13.5417 3.125C13.5417 2.55 14.0104 2.08333 14.5834 2.08333Z" fill="white"/>
</svg>
