<svg width="50" height="50" viewBox="0 0 50 50" fill="none" xmlns="http://www.w3.org/2000/svg">
<g clip-path="url(#clip0_201_2530)">
<path d="M16.3386 22.5079C16.67 22.5084 16.988 22.3766 17.2223 22.1423C17.4566 21.908 17.5884 21.5899 17.5879 21.2586C17.5879 20.5685 18.1476 20.0088 18.8377 20.0088C19.5278 20.0088 20.0875 20.5685 20.0875 21.2586C20.0875 21.9487 20.6467 22.5079 21.3368 22.5079C22.0273 22.5079 22.5866 21.9487 22.5866 21.2586C22.5866 19.1879 20.908 17.5098 18.8377 17.5098C16.7674 17.5098 15.0889 19.1879 15.0889 21.2586C15.0889 21.5899 15.2202 21.908 15.4545 22.1423C15.6893 22.3766 16.0069 22.5084 16.3386 22.5079Z" fill="white"/>
<path d="M33.2743 30.7637C28.6075 33.0966 21.5651 33.0966 16.8974 30.7637C16.28 30.4548 15.5295 30.7051 15.2206 31.3224C14.9122 31.9398 15.1621 32.6907 15.7794 32.9992C18.688 34.3711 21.8704 35.0621 25.0856 35.02C28.3009 35.0621 31.4837 34.3707 34.3918 32.9992C35.0092 32.6907 35.2595 31.9398 34.9511 31.3224C34.6422 30.7051 33.8917 30.4548 33.2743 30.7637Z" fill="white"/>
<path d="M46.3293 20.0096H45.0796V16.2607C45.0764 12.8116 42.2807 10.016 38.8316 10.0128H35.0828V7.28307C36.8039 6.67489 37.8368 4.91442 37.5279 3.11504C37.219 1.31521 35.6589 0 33.833 0C32.0071 0 30.4471 1.31521 30.1382 3.11504C29.8293 4.91442 30.8621 6.67489 32.5833 7.28307V10.0128H17.5879V7.28307C19.3094 6.67489 20.3418 4.91442 20.0334 3.11504C19.7245 1.31521 18.1645 0 16.3385 0C14.5126 0 12.9521 1.31521 12.6437 3.11504C12.3348 4.91442 13.3672 6.67489 15.0888 7.28307V10.0128H11.3399C7.89082 10.0165 5.09566 12.8116 5.092 16.2607V20.0096H3.84223C1.77286 20.0119 0.0956719 21.6891 0.0933838 23.7584V28.757C0.0956719 30.8264 1.77286 32.5036 3.84223 32.5059H5.092V37.5041C5.09566 40.9536 7.89082 43.7488 11.3399 43.7524H17.5879V48.7506C17.5883 49.205 17.835 49.6233 18.2322 49.8434C18.6294 50.0635 19.1149 50.0507 19.4998 49.81L29.1932 43.7524H38.8316C42.2807 43.7492 45.0764 40.9536 45.0796 37.5041V32.5059H46.3293C48.3987 32.5036 50.0759 30.8264 50.0782 28.757V23.7584C50.0759 21.6891 48.3987 20.0119 46.3293 20.0096ZM33.833 2.5151C34.5231 2.5151 35.0828 3.07431 35.0828 3.76441C35.0828 4.45496 34.5231 5.01418 33.833 5.01418C33.1429 5.01418 32.5833 4.45496 32.5833 3.76441C32.5846 3.07523 33.1434 2.51647 33.833 2.5151ZM16.3385 2.5151C17.0286 2.5151 17.5879 3.07431 17.5879 3.76441C17.5879 4.45496 17.0286 5.01418 16.3385 5.01418C15.6485 5.01418 15.0888 4.45496 15.0888 3.76441C15.0897 3.07477 15.6485 2.51601 16.3385 2.5151ZM3.84223 30.0064C3.15259 30.0059 2.59338 29.4467 2.59246 28.757V23.7584C2.59338 23.0688 3.15259 22.5096 3.84223 22.5087H5.092V30.0064H3.84223ZM42.5805 37.5041C42.5782 39.5739 40.901 41.2511 38.8316 41.2529H28.8344C28.6006 41.2529 28.3713 41.3188 28.1731 41.4433L20.0874 46.4954V42.5027C20.0874 42.1713 19.9561 41.8533 19.7213 41.619C19.487 41.3847 19.1689 41.2529 18.8376 41.2529H11.3399C9.27056 41.2511 7.59337 39.5739 7.59108 37.5041V16.2607C7.59337 14.1914 9.27056 12.5142 11.3399 12.5119H38.8316C40.901 12.5142 42.5782 14.1914 42.5805 16.2607V37.5041ZM47.5787 28.757C47.5777 29.4467 47.019 30.0054 46.3293 30.0064H45.0796V22.5087H46.3293C47.019 22.51 47.5777 23.0688 47.5787 23.7584V28.757Z" fill="white"/>
<path d="M31.3339 17.5098C29.2646 17.5121 27.5874 19.1892 27.5851 21.2586C27.5851 21.9487 28.1443 22.5079 28.8344 22.5079C29.5249 22.5079 30.0842 21.9487 30.0842 21.2586C30.0842 20.5685 30.6438 20.0088 31.3339 20.0088C32.024 20.0088 32.5832 20.5685 32.5832 21.2586C32.5832 21.9487 33.1429 22.5079 33.833 22.5079C34.5231 22.5079 35.0828 21.9487 35.0828 21.2586C35.0805 19.1892 33.4033 17.5121 31.3339 17.5098Z" fill="white"/>
</g>
<defs>
<clipPath id="clip0_201_2530">
<rect width="50" height="50" fill="white"/>
</clipPath>
</defs>
</svg>
