<svg width="50" height="50" viewBox="0 0 50 50" fill="none" xmlns="http://www.w3.org/2000/svg">
<path d="M19.2702 28.2046C18.8656 28.2046 18.5378 28.5324 18.5378 28.937V30.1089C18.5378 30.5135 18.8656 30.8413 19.2702 30.8413C19.6748 30.8413 20.0026 30.5135 20.0026 30.1089V28.937C20.0026 28.5325 19.6748 28.2046 19.2702 28.2046Z" fill="white"/>
<path d="M25.0002 28.6362C23.712 28.6362 22.664 29.7698 22.664 31.1633C22.664 32.5567 23.7119 33.6903 25.0002 33.6903C26.2884 33.6903 27.3364 32.5567 27.3364 31.1633C27.3364 29.7698 26.2885 28.6362 25.0002 28.6362ZM25.0002 32.2255C24.5197 32.2255 24.1288 31.749 24.1288 31.1633C24.1288 30.5775 24.5197 30.1011 25.0002 30.1011C25.4807 30.1011 25.8716 30.5775 25.8716 31.1633C25.8716 31.749 25.4807 32.2255 25.0002 32.2255Z" fill="white"/>
<path d="M30.7302 28.2046C30.3256 28.2046 29.9977 28.5324 29.9977 28.937V30.1089C29.9977 30.5135 30.3256 30.8413 30.7302 30.8413C31.1348 30.8413 31.4626 30.5135 31.4626 30.1089V28.937C31.4626 28.5325 31.1347 28.2046 30.7302 28.2046Z" fill="white"/>
<path d="M11.7441 9.37315C9.59434 11.2924 8.70732 13.1769 9.31855 14.7477C10.5214 17.8392 16.3845 17.5758 19.7059 17.1076C21.2135 18.1431 23.0372 18.75 25.0002 18.75C26.9632 18.75 28.7868 18.1432 30.2943 17.1078C33.6118 17.5754 39.4792 17.8368 40.6811 14.7478C41.2922 13.177 40.4053 11.2924 38.2555 9.37315C39.7988 7.99063 41.4375 5.94375 40.6821 4.00225C40.4031 3.28516 39.8335 2.70068 38.9889 2.26484C38.6292 2.07949 38.1877 2.22041 38.0021 2.57988C37.8167 2.93945 37.9577 3.38115 38.3172 3.5666C38.8351 3.83379 39.1714 4.15908 39.3171 4.5334C39.8073 5.79355 38.1427 7.53506 37.1022 8.43027C36.1844 7.74004 35.1069 7.05127 33.8836 6.37676C33.4448 5.08027 32.7295 3.91016 31.8084 2.93662C33.0953 2.8125 34.4817 2.76895 35.7575 2.90459C36.1604 2.94668 36.5205 2.65586 36.5633 2.25371C36.6061 1.85146 36.3146 1.49072 35.9124 1.44795C34.099 1.25518 32.1006 1.38818 30.2953 1.64277C28.7875 0.607129 26.9636 0 25.0002 0C23.0368 0 21.2128 0.607129 19.7051 1.64287C8.92812 0.12041 6.64795 4.8082 11.7441 9.37315ZM10.6837 14.2165C10.3053 13.2436 11.162 11.8227 12.9009 10.3215C13.8342 11.0265 14.9166 11.7194 16.1198 12.3821C16.5593 13.6766 17.2746 14.8446 18.195 15.8165C14.0637 16.2148 11.206 15.559 10.6837 14.2165ZM15.6839 10.4211C15.1183 10.0761 14.5889 9.72598 14.1012 9.37441C14.5866 9.02207 15.1164 8.66963 15.6847 8.32139C15.6458 8.66738 15.6251 9.01875 15.6251 9.3749C15.6252 9.72861 15.6456 10.0775 15.6839 10.4211ZM18.224 13.4514C19.5124 14.056 20.8996 14.6223 22.3603 15.1336C21.5779 15.3099 20.8203 15.4555 20.0924 15.5718C19.3507 14.9829 18.7157 14.2654 18.224 13.4514ZM25.0002 17.2852C23.9485 17.2852 22.9451 17.0771 22.0264 16.7029C23.0002 16.5009 23.9951 16.256 24.9997 15.9705C26.0046 16.2561 26.9996 16.5009 27.9736 16.7029C27.0551 17.0772 26.0517 17.2852 25.0002 17.2852ZM29.9078 15.5718C29.1797 15.4556 28.4219 15.3099 27.6393 15.1336C29.1004 14.6222 30.488 14.0556 31.7767 13.4509C31.285 14.2652 30.6498 14.9829 29.9078 15.5718ZM39.316 14.2165C38.7936 15.559 35.9362 16.2147 31.8053 15.8166C32.7259 14.8445 33.4412 13.6763 33.8808 12.3815C35.0837 11.7189 36.1657 11.0262 37.0988 10.3214C38.8376 11.8226 39.6944 13.2436 39.316 14.2165ZM35.8984 9.37441C35.411 9.72578 34.8819 10.0757 34.3166 10.4206C34.3549 10.0771 34.3753 9.72842 34.3753 9.375C34.3753 9.01895 34.3547 8.66777 34.3158 8.32197C34.8837 8.67002 35.4132 9.02227 35.8984 9.37441ZM32.9104 9.375C32.9104 10.0614 32.8222 10.7275 32.657 11.363C30.2261 12.6508 27.5968 13.6798 24.9998 14.4458C22.398 13.6784 19.7694 12.6484 17.3435 11.3635C17.1783 10.7278 17.09 10.0615 17.09 9.375C17.09 5.01338 20.6386 1.46484 25.0002 1.46484C29.3618 1.46484 32.9104 5.01338 32.9104 9.375ZM18.1933 2.93545C17.2717 3.90908 16.5559 5.07949 16.1169 6.37637C14.8933 7.05107 13.8154 7.73994 12.8974 8.43037C11.8639 7.54111 10.1924 5.79355 10.6825 4.5335C11.1382 3.3627 13.6254 2.48662 18.1933 2.93545Z" fill="white"/>
<path d="M38.4731 24.3813C38.304 21.9913 36.3272 20.2148 34.0118 20.2148H15.9886C13.6903 20.2148 11.6982 21.9735 11.5275 24.3813C11.5178 24.3838 9.27138 24.3207 7.30556 26.2037C7.01347 26.4835 7.00351 26.9472 7.28329 27.2393C7.5622 27.5304 8.02577 27.5422 8.31884 27.2615C9.85878 25.7863 11.5969 25.8485 11.6066 25.8461C11.6835 26.5218 11.7929 27.3295 11.9478 28.2242C9.15058 28.2265 8.15468 31.7098 10.3997 33.1445L13.9856 35.4364C14.6975 37.1271 15.6059 38.7658 16.765 40.1665C16.7019 40.2264 16.6481 40.2979 16.6084 40.3809C15.717 42.2428 13.8362 42.1675 13.8243 42.1713C12.6614 42.1713 12.1029 40.7351 13.0357 40.0137C13.8385 39.393 13.7938 38.1736 12.9421 37.6293L9.10185 35.1752C7.12782 33.9136 6.3206 31.5209 6.97987 29.411C7.10038 29.0249 6.88515 28.6142 6.49911 28.4935C6.11249 28.373 5.70224 28.5883 5.58153 28.9742C5.37401 29.6389 5.27802 30.3368 5.29062 30.9872C5.32216 33.1932 6.45204 35.2201 8.31298 36.4094L12.1395 38.8548C10.08 40.4486 11.3023 43.7089 13.8956 43.6351C15.5324 43.5916 16.9998 42.6959 17.7926 41.2768C18.885 42.3274 19.9921 43 21.3872 43.446C21.339 43.853 21.3594 44.2632 21.4479 44.6604H19.9225C18.4504 44.6604 17.2526 45.858 17.2526 47.3302C17.2526 48.8023 18.4505 50 19.9226 50H30.0778C31.5499 50 32.7476 48.8023 32.7476 47.3302C32.7476 45.858 31.5499 44.6604 30.0778 44.6604H28.5525C28.6413 44.2632 28.6619 43.8529 28.6137 43.446C30.0075 42.9999 31.1143 42.3272 32.2073 41.2763C33.0521 42.7888 34.6241 43.6361 36.1784 43.6361C38.752 43.6361 39.8798 40.4316 37.8619 38.8539L41.6873 36.4094C43.5482 35.22 44.678 33.193 44.7096 30.9872C44.7632 27.2492 41.5933 24.3967 38.4731 24.3813ZM37.7687 29.6891H38.1425C39.3505 29.7356 39.8399 31.2531 38.8118 31.9103L36.851 33.1635C37.2358 31.9681 37.5357 30.7882 37.7687 29.6891ZM11.1886 31.9103C10.1617 31.2539 10.6484 29.7356 11.8579 29.6891H12.2296C12.4621 30.7875 12.7616 31.9665 13.1463 33.1614L11.1886 31.9103ZM27.1726 43.8061C27.1853 44.2252 27.0768 44.6424 26.8511 45.008C26.5906 45.4296 25.8469 45.7129 25.0002 45.7129C24.1534 45.7129 23.4097 45.4297 23.1493 45.008C22.9237 44.6427 22.8154 44.2254 22.8283 43.8059C23.54 43.9357 24.2706 44.0012 25.0013 44.0012C25.7314 44.0012 26.4616 43.9357 27.1726 43.8061ZM31.2828 47.3302C31.2828 47.9946 30.7423 48.5352 30.0778 48.5352H19.9226C19.2581 48.5352 18.7176 47.9946 18.7176 47.3302C18.7176 46.6657 19.2581 46.1252 19.9226 46.1252H22.1706C22.7795 46.7823 23.8191 47.1776 25.0002 47.1776C26.1811 47.1776 27.2208 46.7822 27.8297 46.1252H30.0778C30.7423 46.1252 31.2828 46.6657 31.2828 47.3302ZM27.5705 42.2219C25.9138 42.6423 24.0884 42.6422 22.4303 42.2218C20.942 41.8443 19.8434 41.2314 18.7567 40.1726C14.3483 35.8762 13.2322 27.5064 12.9952 25.0436C12.8121 23.1416 14.2631 21.6797 15.9886 21.6797H34.0119C35.7356 21.6797 37.1894 23.1419 37.0053 25.043C36.5151 30.0985 34.849 36.6592 31.2433 40.1719C30.1559 41.2314 29.0575 41.8444 27.5705 42.2219ZM40.8986 35.1751L37.0582 37.6292C36.2075 38.1727 36.163 39.3933 36.9643 40.0133C37.9085 40.7439 37.3274 42.2002 36.1435 42.1708C34.9598 42.1394 33.9054 41.4533 33.3917 40.3803C33.3519 40.2973 33.2981 40.2258 33.235 40.1659C34.3924 38.7669 35.3001 37.1288 36.0116 35.4383L39.6006 33.1444C40.3608 32.6586 40.8224 31.8315 40.8353 30.9318C40.8571 29.4112 39.548 28.2241 38.1551 28.2241H38.051C38.2062 27.3295 38.3161 26.5218 38.3933 25.846H38.6705C41.2757 26.1444 43.282 28.3861 43.2452 30.9661C43.2205 32.6782 42.3433 34.2517 40.8986 35.1751Z" fill="white"/>
</svg>
