<svg width="50" height="50" viewBox="0 0 50 50" fill="none" xmlns="http://www.w3.org/2000/svg">
<path d="M19.27 28.2046C18.8654 28.2046 18.5376 28.5324 18.5376 28.937V30.1089C18.5376 30.5135 18.8654 30.8413 19.27 30.8413C19.6746 30.8413 20.0024 30.5135 20.0024 30.1089V28.937C20.0024 28.5325 19.6746 28.2046 19.27 28.2046Z" fill="#001315"/>
<path d="M25.0003 28.636C23.7121 28.636 22.6641 29.7696 22.6641 31.163C22.6641 32.5565 23.712 33.6901 25.0003 33.6901C26.2885 33.6901 27.3365 32.5565 27.3365 31.163C27.3365 29.7696 26.2886 28.636 25.0003 28.636ZM25.0003 32.2252C24.5198 32.2252 24.1289 31.7488 24.1289 31.163C24.1289 30.5773 24.5198 30.1008 25.0003 30.1008C25.4808 30.1008 25.8717 30.5773 25.8717 31.163C25.8717 31.7488 25.4808 32.2252 25.0003 32.2252Z" fill="#001315"/>
<path d="M30.73 28.2046C30.3254 28.2046 29.9976 28.5324 29.9976 28.937V30.1089C29.9976 30.5135 30.3254 30.8413 30.73 30.8413C31.1346 30.8413 31.4624 30.5135 31.4624 30.1089V28.937C31.4624 28.5325 31.1345 28.2046 30.73 28.2046Z" fill="#001315"/>
<path d="M11.744 9.37315C9.59424 11.2924 8.70723 13.1769 9.31846 14.7477C10.5213 17.8392 16.3844 17.5758 19.7058 17.1076C21.2134 18.1431 23.0371 18.75 25.0001 18.75C26.9631 18.75 28.7867 18.1432 30.2942 17.1078C33.6117 17.5754 39.4791 17.8368 40.681 14.7478C41.2921 13.177 40.4052 11.2924 38.2554 9.37315C39.7987 7.99063 41.4374 5.94375 40.682 4.00225C40.403 3.28516 39.8334 2.70068 38.9888 2.26484C38.6291 2.07949 38.1876 2.22041 38.0021 2.57988C37.8166 2.93945 37.9576 3.38115 38.3171 3.5666C38.835 3.83379 39.1713 4.15908 39.317 4.5334C39.8072 5.79355 38.1426 7.53506 37.1022 8.43027C36.1843 7.74004 35.1068 7.05127 33.8835 6.37676C33.4447 5.08027 32.7294 3.91016 31.8083 2.93662C33.0952 2.8125 34.4816 2.76895 35.7574 2.90459C36.1603 2.94668 36.5204 2.65586 36.5632 2.25371C36.606 1.85146 36.3145 1.49072 35.9123 1.44795C34.0989 1.25518 32.1005 1.38818 30.2952 1.64277C28.7874 0.607129 26.9635 0 25.0001 0C23.0367 0 21.2127 0.607129 19.705 1.64287C8.92803 0.12041 6.64786 4.8082 11.744 9.37315ZM10.6836 14.2165C10.3052 13.2436 11.1619 11.8227 12.9008 10.3215C13.8341 11.0265 14.9165 11.7194 16.1197 12.3821C16.5592 13.6766 17.2745 14.8446 18.1949 15.8165C14.0636 16.2148 11.2059 15.559 10.6836 14.2165ZM15.6838 10.4211C15.1182 10.0761 14.5888 9.72598 14.1011 9.37441C14.5865 9.02207 15.1163 8.66963 15.6846 8.32139C15.6457 8.66738 15.625 9.01875 15.625 9.3749C15.6251 9.72861 15.6455 10.0775 15.6838 10.4211ZM18.2239 13.4514C19.5123 14.056 20.8995 14.6223 22.3602 15.1336C21.5778 15.3099 20.8202 15.4555 20.0923 15.5718C19.3506 14.9829 18.7156 14.2654 18.2239 13.4514ZM25.0001 17.2852C23.9484 17.2852 22.945 17.0771 22.0263 16.7029C23.0001 16.5009 23.995 16.256 24.9996 15.9705C26.0045 16.2561 26.9995 16.5009 27.9735 16.7029C27.055 17.0772 26.0516 17.2852 25.0001 17.2852ZM29.9077 15.5718C29.1796 15.4556 28.4218 15.3099 27.6392 15.1336C29.1003 14.6222 30.4879 14.0556 31.7766 13.4509C31.2849 14.2652 30.6497 14.9829 29.9077 15.5718ZM39.3159 14.2165C38.7935 15.559 35.9361 16.2147 31.8052 15.8166C32.7258 14.8445 33.4411 13.6763 33.8807 12.3815C35.0836 11.7189 36.1656 11.0262 37.0987 10.3214C38.8375 11.8226 39.6943 13.2436 39.3159 14.2165ZM35.8983 9.37441C35.4109 9.72578 34.8818 10.0757 34.3165 10.4206C34.3548 10.0771 34.3752 9.72842 34.3752 9.375C34.3752 9.01895 34.3546 8.66777 34.3157 8.32197C34.8836 8.67002 35.4131 9.02227 35.8983 9.37441ZM32.9103 9.375C32.9103 10.0614 32.8221 10.7275 32.6569 11.363C30.226 12.6508 27.5967 13.6798 24.9997 14.4458C22.398 13.6784 19.7693 12.6484 17.3434 11.3635C17.1782 10.7278 17.0899 10.0615 17.0899 9.375C17.0899 5.01338 20.6385 1.46484 25.0001 1.46484C29.3617 1.46484 32.9103 5.01338 32.9103 9.375ZM18.1932 2.93545C17.2716 3.90908 16.5558 5.07949 16.1168 6.37637C14.8932 7.05107 13.8153 7.73994 12.8973 8.43037C11.8638 7.54111 10.1923 5.79355 10.6824 4.5335C11.1381 3.3627 13.6253 2.48662 18.1932 2.93545Z" fill="#001315"/>
<path d="M38.4732 24.3813C38.304 21.9913 36.3273 20.2148 34.0118 20.2148H15.9886C13.6904 20.2148 11.6983 21.9735 11.5276 24.3813C11.5178 24.3838 9.27141 24.3207 7.30559 26.2037C7.0135 26.4835 7.00354 26.9472 7.28332 27.2393C7.56223 27.5304 8.0258 27.5422 8.31887 27.2615C9.85881 25.7863 11.5969 25.8485 11.6067 25.8461C11.6835 26.5218 11.7929 27.3295 11.9479 28.2242C9.15061 28.2265 8.15471 31.7098 10.3997 33.1445L13.9857 35.4364C14.6975 37.1271 15.606 38.7658 16.7651 40.1665C16.702 40.2264 16.6482 40.2979 16.6084 40.3809C15.717 42.2428 13.8363 42.1675 13.8243 42.1713C12.6614 42.1713 12.103 40.7351 13.0358 40.0137C13.8385 39.393 13.7939 38.1736 12.9421 37.6293L9.10188 35.1752C7.12785 33.9136 6.32063 31.5209 6.9799 29.411C7.10041 29.0249 6.88518 28.6142 6.49914 28.4935C6.11252 28.373 5.70227 28.5883 5.58156 28.9742C5.37404 29.6389 5.27805 30.3368 5.29065 30.9872C5.32219 33.1932 6.45207 35.2201 8.31301 36.4094L12.1396 38.8548C10.08 40.4486 11.3024 43.7089 13.8956 43.6351C15.5324 43.5916 16.9998 42.6959 17.7926 41.2768C18.8851 42.3274 19.9921 43 21.3872 43.446C21.339 43.853 21.3594 44.2632 21.448 44.6604H19.9225C18.4504 44.6604 17.2527 45.858 17.2527 47.3302C17.2527 48.8023 18.4505 50 19.9226 50H30.0779C31.5499 50 32.7477 48.8023 32.7477 47.3302C32.7477 45.858 31.5499 44.6604 30.0779 44.6604H28.5526C28.6413 44.2632 28.6619 43.8529 28.6137 43.446C30.0075 42.9999 31.1144 42.3272 32.2073 41.2763C33.0522 42.7888 34.6241 43.6361 36.1784 43.6361C38.7521 43.6361 39.8798 40.4316 37.8619 38.8539L41.6873 36.4094C43.5483 35.22 44.678 33.193 44.7096 30.9872C44.7632 27.2492 41.5934 24.3967 38.4732 24.3813ZM37.7688 29.6891H38.1425C39.3505 29.7356 39.84 31.2531 38.8118 31.9103L36.851 33.1635C37.2359 31.9681 37.5358 30.7882 37.7688 29.6891ZM11.1886 31.9103C10.1617 31.2539 10.6485 29.7356 11.8579 29.6891H12.2296C12.4621 30.7875 12.7616 31.9665 13.1463 33.1614L11.1886 31.9103ZM27.1727 43.8061C27.1854 44.2252 27.0769 44.6424 26.8511 45.008C26.5906 45.4296 25.8469 45.7129 25.0002 45.7129C24.1534 45.7129 23.4097 45.4297 23.1493 45.008C22.9238 44.6427 22.8155 44.2254 22.8283 43.8059C23.5401 43.9357 24.2706 44.0012 25.0013 44.0012C25.7315 44.0012 26.4616 43.9357 27.1727 43.8061ZM31.2828 47.3302C31.2828 47.9946 30.7423 48.5352 30.0779 48.5352H19.9226C19.2581 48.5352 18.7176 47.9946 18.7176 47.3302C18.7176 46.6657 19.2581 46.1252 19.9226 46.1252H22.1706C22.7795 46.7823 23.8192 47.1776 25.0002 47.1776C26.1812 47.1776 27.2208 46.7822 27.8297 46.1252H30.0779C30.7423 46.1252 31.2828 46.6657 31.2828 47.3302ZM27.5705 42.2219C25.9138 42.6423 24.0884 42.6422 22.4303 42.2218C20.942 41.8443 19.8434 41.2314 18.7568 40.1726C14.3484 35.8762 13.2322 27.5064 12.9952 25.0436C12.8121 23.1416 14.2631 21.6797 15.9886 21.6797H34.0119C35.7357 21.6797 37.1895 23.1419 37.0053 25.043C36.5152 30.0985 34.849 36.6592 31.2434 40.1719C30.156 41.2314 29.0575 41.8444 27.5705 42.2219ZM40.8987 35.1751L37.0582 37.6292C36.2075 38.1727 36.163 39.3933 36.9644 40.0133C37.9085 40.7439 37.3275 42.2002 36.1436 42.1708C34.9598 42.1394 33.9054 41.4533 33.3917 40.3803C33.352 40.2973 33.2982 40.2258 33.2351 40.1659C34.3924 38.7669 35.3001 37.1288 36.0116 35.4383L39.6006 33.1444C40.3609 32.6586 40.8225 31.8315 40.8354 30.9318C40.8571 29.4112 39.5481 28.2241 38.1551 28.2241H38.051C38.2063 27.3295 38.3161 26.5218 38.3934 25.846H38.6705C41.2757 26.1444 43.2821 28.3861 43.2452 30.9661C43.2205 32.6782 42.3434 34.2517 40.8987 35.1751Z" fill="#001315"/>
</svg>
