<svg width="129" height="121" viewBox="0 0 129 121" fill="none" xmlns="http://www.w3.org/2000/svg">
<path d="M27.1253 2.87737C27.6099 2.20544 27.458 1.26792 26.786 0.783358C26.1141 0.298799 25.1766 0.450695 24.692 1.12263L27.1253 2.87737ZM128.197 109.263C128.696 108.602 128.565 107.661 127.904 107.162L117.129 99.0281C116.468 98.529 115.528 98.6603 115.028 99.3215C114.529 99.9827 114.661 100.923 115.322 101.422L124.899 108.653L117.669 118.23C117.17 118.891 117.301 119.832 117.962 120.331C118.623 120.83 119.564 120.699 120.063 120.037L128.197 109.263ZM24.692 1.12263C16.5743 12.3794 8.89617 26.1307 4.44776 40.1088C0.00604188 54.066 -1.27028 68.4283 3.6756 80.7661C8.65311 93.1829 19.8055 103.241 39.5465 108.782C59.2379 114.309 87.5732 115.38 127.207 109.845L126.793 106.874C87.3464 112.382 59.4798 111.261 40.3572 105.894C21.2843 100.541 11.0108 91.0018 6.4602 79.6499C1.87793 68.2191 2.97119 54.6413 7.30649 41.0186C11.6351 27.4169 19.1415 13.9485 27.1253 2.87737L24.692 1.12263Z" fill="#6D30FB"/>
</svg>
