<svg width="69" height="112" viewBox="0 0 69 112" fill="none" xmlns="http://www.w3.org/2000/svg">
<path d="M4.39797 2.15943C4.48602 1.3357 3.88963 0.59655 3.0659 0.508497C2.24216 0.420444 1.50302 1.01683 1.41496 1.84057L4.39797 2.15943ZM68.2553 99.3263C68.7088 98.633 68.5144 97.7034 67.8211 97.2499L56.5231 89.8604C55.8298 89.4069 54.9001 89.6013 54.4467 90.2946C53.9932 90.9879 54.1877 91.9176 54.881 92.371L64.9236 98.9395L58.3551 108.982C57.9017 109.675 58.0961 110.605 58.7894 111.059C59.4827 111.512 60.4123 111.318 60.8658 110.624L68.2553 99.3263ZM1.41496 1.84057C-0.601122 20.701 0.183083 48.3009 9.2366 69.6663C13.7724 80.3705 20.4306 89.6177 29.9611 95.3538C39.5191 101.107 51.7865 103.22 67.3071 99.9735L66.6929 97.037C51.7691 100.158 40.3018 98.0761 31.5081 92.7834C22.6868 87.4741 16.376 78.8255 11.9988 68.4958C3.22634 47.7936 2.40821 20.7736 4.39797 2.15943L1.41496 1.84057Z" fill="#6D30FB"/>
</svg>
