<svg width="60" height="60" viewBox="0 0 60 60" fill="none" xmlns="http://www.w3.org/2000/svg">
<path d="M58.75 35C58.75 31.9806 56.9527 29.3788 54.375 28.1908V27.5C54.375 14.0594 43.4406 3.125 30 3.125C16.5594 3.125 5.625 14.0594 5.625 27.5V28.1908C3.04726 29.3788 1.25 31.9806 1.25 35C1.25 39.1354 4.61426 42.5 8.75 42.5H11.25C11.9403 42.5 12.5 41.9403 12.5 41.25V28.75C12.5 28.0597 11.9403 27.5 11.25 27.5H8.75C8.53905 27.5 8.3316 27.5145 8.125 27.5317V27.5C8.125 15.4382 17.9382 5.625 30 5.625C42.0618 5.625 51.875 15.4382 51.875 27.5V27.5317C51.6684 27.5145 51.461 27.5 51.25 27.5H48.75C48.0597 27.5 47.5 28.0597 47.5 28.75V41.25C47.5 41.9403 48.0597 42.5 48.75 42.5H51.25C51.461 42.5 51.6684 42.4855 51.875 42.4683V44.375C51.875 48.5104 48.5107 51.875 44.375 51.875H35C35 50.4965 33.8788 49.375 32.5 49.375H26.25C24.8712 49.375 23.75 50.4965 23.75 51.875V54.375C23.75 55.7535 24.8712 56.875 26.25 56.875H32.5C33.8788 56.875 35 55.7535 35 54.375H44.375C49.8889 54.375 54.375 49.8889 54.375 44.375V41.8092C56.9527 40.6212 58.75 38.0194 58.75 35ZM10 30V40H8.75C5.99304 40 3.75 37.757 3.75 35C3.75 32.243 5.99304 30 8.75 30H10ZM26.25 54.375V51.875H32.5L32.5009 53.116C32.5009 53.1191 32.5 53.1219 32.5 53.125C32.5 53.1281 32.5009 53.131 32.5009 53.1342L32.5018 54.375H26.25ZM51.25 40H50V30H51.25C54.007 30 56.25 32.243 56.25 35C56.25 37.757 54.007 40 51.25 40ZM30 43.125C37.5818 43.125 43.75 36.9568 43.75 29.375C43.75 21.7932 37.5818 15.625 30 15.625C22.4182 15.625 16.25 21.7932 16.25 29.375C16.25 31.828 16.9073 34.2255 18.1561 36.3412L16.8976 42.8891C16.8103 43.3438 16.9812 43.8095 17.3425 44.0997C17.5684 44.281 17.8455 44.375 18.125 44.375C18.2928 44.375 18.4613 44.3414 18.6206 44.2728L24.2328 41.8503C26.0522 42.6965 27.9895 43.125 30 43.125ZM19.7986 41.0413L20.7025 36.3364C20.7629 36.0217 20.7007 35.6961 20.528 35.4263C19.3646 33.6105 18.75 31.5179 18.75 29.375C18.75 23.1717 23.797 18.125 30 18.125C36.203 18.125 41.25 23.1717 41.25 29.375C41.25 35.5783 36.203 40.625 30 40.625C28.1927 40.625 26.4569 40.2008 24.8407 39.3643C24.5081 39.1919 24.115 39.1776 23.7708 39.3268L19.7986 41.0413ZM30 33.125H23.75C23.0597 33.125 22.5 32.5653 22.5 31.875C22.5 31.1847 23.0597 30.625 23.75 30.625H30C30.6903 30.625 31.25 31.1847 31.25 31.875C31.25 32.5653 30.6903 33.125 30 33.125ZM22.5 26.875C22.5 26.1847 23.0597 25.625 23.75 25.625H36.25C36.9403 25.625 37.5 26.1847 37.5 26.875C37.5 27.5653 36.9403 28.125 36.25 28.125H23.75C23.0597 28.125 22.5 27.5653 22.5 26.875Z" fill="#6D30FB"/>
</svg>
