<svg width="60" height="60" viewBox="0 0 60 60" fill="none" xmlns="http://www.w3.org/2000/svg">
<path d="M54.7372 6.01894C54.6532 5.64094 54.3582 5.34594 53.9792 5.26094C53.8882 5.24094 50.0222 4.45594 44.6262 5.83994C44.5802 5.83694 44.5392 5.81894 44.4912 5.82294C44.3072 5.83394 44.1482 5.90694 44.0052 6.00194C38.8992 7.44294 32.5522 10.8689 26.7342 18.5949C24.0162 18.3299 12.8832 18.1239 8.48424 31.7519C8.34324 32.1879 8.51624 32.6609 8.90224 32.9049C9.06624 33.0089 9.25124 33.0579 9.43524 33.0579C9.68424 33.0579 9.93224 32.9649 10.1232 32.7849C10.1752 32.7349 15.1042 28.1499 20.3862 29.4899C20.0222 30.2949 19.6612 31.1159 19.3092 31.9739C19.1572 32.3469 19.2432 32.7749 19.5282 33.0599L19.9092 33.4409L17.5502 35.8009C17.1592 36.1919 17.1592 36.8239 17.5502 37.2149L22.7832 42.4479C22.9782 42.6429 23.2342 42.7409 23.4902 42.7409C23.7462 42.7409 24.0022 42.6429 24.1972 42.4479L26.5572 40.0889L26.9382 40.4699C27.1292 40.6609 27.3852 40.7629 27.6452 40.7629C27.7732 40.7629 27.9022 40.7389 28.0242 40.6889C28.8832 40.3369 29.7042 39.9759 30.5092 39.6109C31.8462 44.8889 27.2622 49.8229 27.2122 49.8749C26.8992 50.2069 26.8492 50.7099 27.0922 51.0969C27.2802 51.3929 27.6022 51.5639 27.9392 51.5639C28.0412 51.5639 28.1442 51.5479 28.2462 51.5149C41.8772 47.1129 41.6692 35.9779 41.4032 33.2639C49.1272 27.4479 52.5522 21.1029 53.9942 15.9969C54.0902 15.8539 54.1642 15.6949 54.1752 15.5109C54.1782 15.4629 54.1602 15.4209 54.1562 15.3739C55.5432 9.97794 54.7582 6.10994 54.7372 6.01894ZM23.4912 40.3269L19.6722 36.5079L21.3232 34.8559L25.1432 38.6759L23.4912 40.3269ZM52.8952 7.10294C53.0592 8.28794 53.2502 10.9459 52.4762 14.3659C50.7592 14.0959 49.1682 13.2929 47.9332 12.0579C46.6952 10.8199 45.8942 9.23194 45.6302 7.52194C49.0542 6.74694 51.7142 6.93994 52.8952 7.10294ZM11.6472 29.2199C15.5612 21.2399 22.3022 20.4189 25.3742 20.4959C23.9512 22.5899 22.5712 24.9669 21.2582 27.6539C17.5022 26.5289 13.9902 27.8529 11.6472 29.2199ZM30.7782 48.3519C32.1452 46.0079 33.4702 42.4949 32.3452 38.7389C35.0322 37.4259 37.4092 36.0469 39.5022 34.6229C39.5792 37.6979 38.7562 44.4389 30.7782 48.3519ZM39.8612 31.9819C39.8112 32.0099 39.7682 32.0419 39.7242 32.0779C36.5642 34.3629 32.6772 36.5709 27.8812 38.5839L21.4152 32.1179C23.4252 27.3279 25.6302 23.4469 27.9122 20.2889C27.9532 20.2399 27.9902 20.1899 28.0212 20.1329C33.3212 12.8599 39.0242 9.52194 43.6982 8.04694C44.0592 10.0909 45.0332 11.9859 46.5202 13.4719C48.0032 14.9559 49.9022 15.9319 51.9532 16.2989C50.4782 20.9739 47.1392 26.6799 39.8612 31.9819Z" fill="#6D30FB"/>
<path d="M35.3201 17.6181C33.3751 19.5641 33.3751 22.7321 35.3201 24.6791C36.2941 25.6521 37.5721 26.1381 38.8501 26.1381C40.1281 26.1381 41.4081 25.6521 42.3811 24.6791C42.3811 24.6791 42.3811 24.6791 42.3811 24.6781C44.3261 22.7321 44.3261 19.5641 42.3811 17.6171C40.4351 15.6731 37.2661 15.6711 35.3201 17.6181ZM40.9681 23.2641C39.8001 24.4301 37.9011 24.4301 36.7351 23.2641C35.5691 22.0971 35.5691 20.1981 36.7351 19.0311C37.3181 18.4481 38.0851 18.1561 38.8511 18.1561C39.6171 18.1561 40.3841 18.4481 40.9681 19.0301C42.1331 20.1981 42.1341 22.0971 40.9681 23.2641Z" fill="#6D30FB"/>
<path d="M11.3499 49.6501C11.6059 49.6501 11.8619 49.5521 12.0569 49.3571L18.4069 43.0071C18.7979 42.6161 18.7979 41.9841 18.4069 41.5931C18.0159 41.2021 17.3839 41.2021 16.9929 41.5931L10.6429 47.9431C10.2519 48.3341 10.2519 48.9661 10.6429 49.3571C10.8379 49.5521 11.0939 49.6501 11.3499 49.6501Z" fill="#6D30FB"/>
<path d="M12.9729 54.983C13.2289 54.983 13.4849 54.885 13.6799 54.69L20.0299 48.341C20.4209 47.95 20.4209 47.318 20.0299 46.927C19.6389 46.536 19.0069 46.536 18.6159 46.927L12.2659 53.276C11.8749 53.667 11.8749 54.299 12.2659 54.69C12.4609 54.885 12.7169 54.983 12.9729 54.983Z" fill="#6D30FB"/>
<path d="M5.31083 47.735C5.50583 47.93 5.76183 48.028 6.01783 48.028C6.27383 48.028 6.52983 47.93 6.72483 47.735L13.0738 41.385C13.4648 40.994 13.4648 40.362 13.0738 39.971C12.6828 39.58 12.0508 39.58 11.6598 39.971L5.31083 46.321C4.91983 46.712 4.91983 47.344 5.31083 47.735Z" fill="#6D30FB"/>
</svg>
