<svg width="60" height="60" viewBox="0 0 60 60" fill="none" xmlns="http://www.w3.org/2000/svg">
<path d="M12.6225 34.5C11.6381 34.0247 10.5394 33.75 9.375 33.75C5.23969 33.75 1.875 37.1147 1.875 41.25C1.875 45.3853 5.23969 48.75 9.375 48.75C11.97 48.75 14.2603 47.4244 15.6075 45.4153L22.6922 48.9619C22.5703 49.4972 22.5 50.0531 22.5 50.625C22.5 54.7603 25.8647 58.125 30 58.125C34.1353 58.125 37.5 54.7603 37.5 50.625C37.5 49.0706 37.0247 47.6259 36.2109 46.4269L46.1662 36.0178C47.415 36.9441 48.9544 37.5 50.625 37.5C54.7603 37.5 58.125 34.1353 58.125 30C58.125 25.8647 54.7603 22.5 50.625 22.5C48.8944 22.5 47.3044 23.0944 46.0331 24.0825L35.9175 13.9669C36.9056 12.6956 37.5 11.1056 37.5 9.375C37.5 5.23969 34.1353 1.875 30 1.875C25.8647 1.875 22.5 5.23969 22.5 9.375C22.5 9.945 22.5694 10.4991 22.6912 11.0334L16.0425 13.4559C14.7956 11.0362 12.2784 9.375 9.375 9.375C5.23969 9.375 1.875 12.7397 1.875 16.875C1.875 21.0103 5.23969 24.375 9.375 24.375C10.4419 24.375 11.4553 24.1481 12.375 23.7441L15.8259 29.5519L12.6225 34.5ZM9.375 46.875C6.27281 46.875 3.75 44.3522 3.75 41.25C3.75 38.1478 6.27281 35.625 9.375 35.625C12.4772 35.625 15 38.1478 15 41.25C15 44.3522 12.4772 46.875 9.375 46.875ZM16.4428 43.7353C16.7175 42.9562 16.875 42.1219 16.875 41.25C16.875 38.9503 15.8325 36.8916 14.1984 35.5153L16.8947 31.3509L25.0238 45.03C24.3394 45.6394 23.7666 46.3687 23.3419 47.1891L16.4428 43.7353ZM30 16.875C31.7306 16.875 33.3206 16.2806 34.5919 15.2925L44.7084 25.4091C44.1019 26.1891 43.6481 27.09 43.3866 28.0706L37.4972 27.2606C37.4963 27.2362 37.5 27.2119 37.5 27.1875C37.5 23.0522 34.1353 19.6875 30 19.6875C27.405 19.6875 25.1137 21.0131 23.7675 23.0222L22.6491 22.4634L26.7534 16.125C27.7369 16.6003 28.8356 16.875 30 16.875ZM30.9375 43.1897V34.6219C33.9844 34.2394 36.4631 32.025 37.2394 29.1169L43.1287 29.9269C43.1287 29.9513 43.125 29.9756 43.125 30C43.125 31.7906 43.7569 33.4341 44.8078 34.725L34.9641 45.0178C33.8606 44.04 32.4722 43.3828 30.9375 43.1897ZM30 21.5625C33.1022 21.5625 35.625 24.0853 35.625 27.1875C35.625 30.2897 33.1022 32.8125 30 32.8125C26.8978 32.8125 24.375 30.2897 24.375 27.1875C24.375 24.0853 26.8978 21.5625 30 21.5625ZM22.9322 24.7022C22.6575 25.4813 22.5 26.3156 22.5 27.1875C22.5 31.005 25.3687 34.1587 29.0625 34.6228V43.1906C28.1737 43.3022 27.3347 43.5684 26.5706 43.9631L18.0319 29.5941L21.6234 24.0478L22.9322 24.7022ZM30 56.25C26.8978 56.25 24.375 53.7272 24.375 50.625C24.375 47.5228 26.8978 45 30 45C33.1022 45 35.625 47.5228 35.625 50.625C35.625 53.7272 33.1022 56.25 30 56.25ZM50.625 24.375C53.7272 24.375 56.25 26.8978 56.25 30C56.25 33.1022 53.7272 35.625 50.625 35.625C47.5228 35.625 45 33.1022 45 30C45 26.8978 47.5228 24.375 50.625 24.375ZM30 3.75C33.1022 3.75 35.625 6.27281 35.625 9.375C35.625 12.4772 33.1022 15 30 15C26.8978 15 24.375 12.4772 24.375 9.375C24.375 6.27281 26.8978 3.75 30 3.75ZM23.3325 12.7941C23.7909 13.6838 24.4181 14.4703 25.1766 15.1097L20.9616 21.6197L16.4428 19.3603C16.7175 18.5812 16.875 17.7469 16.875 16.875C16.875 16.305 16.8056 15.7509 16.6837 15.2166L23.3325 12.7941ZM3.75 16.875C3.75 13.7728 6.27281 11.25 9.375 11.25C12.4772 11.25 15 13.7728 15 16.875C15 19.9772 12.4772 22.5 9.375 22.5C6.27281 22.5 3.75 19.9772 3.75 16.875ZM13.9828 22.7803C14.6109 22.2891 15.1622 21.7041 15.6075 21.0403L19.9359 23.2041L16.9631 27.795L13.9828 22.7803Z" fill="#6D30FB"/>
</svg>
