<svg width="214" height="166" viewBox="0 0 214 166" fill="none" xmlns="http://www.w3.org/2000/svg">
<path d="M182.171 3.27798C170.97 -0.223955 158.903 0.257365 148.016 4.64027C140.904 7.30089 134.523 11.6085 129.396 17.2103C124.269 22.8121 120.542 29.5487 118.52 36.8684C116.69 43.4642 116.2 50.36 117.079 57.1484C117.87 67.567 122.31 77.373 129.616 84.8421C136.923 92.3111 146.629 96.9649 157.028 97.9852C158.959 98.2605 160.92 97.7583 162.481 96.5887C164.042 95.4191 165.075 93.6778 165.353 91.7473C165.631 89.8167 165.132 87.8547 163.964 86.2921C162.797 84.7295 161.057 83.6941 159.127 83.4132C142.93 81.0768 133.7 71.6341 131.694 55.3512C131.066 50.5092 131.403 45.5908 132.686 40.8799C134.084 35.7237 136.704 30.9805 140.324 27.0522C143.944 23.1239 148.458 20.1264 153.484 18.3137C161.205 15.1902 169.769 14.8359 177.721 17.311C199.622 24.2591 199.047 49.9632 199.008 51.3183C199.008 94.1643 158.757 152.898 158.351 153.487C157.799 154.282 157.409 155.178 157.203 156.124C156.998 157.07 156.981 158.046 157.153 158.999C157.326 159.951 157.684 160.86 158.209 161.673C158.733 162.487 159.412 163.189 160.208 163.74C161.004 164.29 161.901 164.678 162.847 164.882C163.793 165.086 164.77 165.101 165.722 164.926C166.674 164.752 167.582 164.392 168.394 163.866C169.207 163.34 169.908 162.659 170.457 161.863C172.225 159.31 213.731 98.7796 213.723 51.613C214.248 38.5217 208.324 11.574 182.171 3.27798Z" fill="#2F2F2F"/>
<path d="M65.7625 3.27865C54.5615 -0.221538 42.4946 0.259757 31.6079 4.64093C24.495 7.3007 18.1135 11.608 12.9864 17.21C7.85936 22.8119 4.13266 29.549 2.1117 36.8691C0.278652 43.4645 -0.211498 50.3608 0.67031 57.1491C1.46139 67.5675 5.90042 77.3735 13.2068 84.8425C20.5131 92.3116 30.219 96.9654 40.6175 97.9857C42.5498 98.2646 44.5138 97.7644 46.0774 96.5951C47.6409 95.4259 48.676 93.6835 48.9548 91.7511C49.2337 89.8187 48.7335 87.8547 47.5642 86.2912C46.395 84.7276 44.6526 83.6926 42.7202 83.4137C26.5199 81.0774 17.2893 71.6347 15.2818 55.3517C14.6563 50.5095 14.9947 45.5913 16.2775 40.8804C17.6741 35.7241 20.2935 30.9806 23.9137 27.0522C27.5339 23.1239 32.048 20.1264 37.0733 18.3142C44.7949 15.1909 53.3595 14.8366 61.3126 17.3115C83.2119 24.2596 82.6386 49.9637 82.599 51.3188C82.599 94.1649 42.3428 152.898 41.9366 153.488C41.3862 154.283 40.9978 155.179 40.7936 156.124C40.5895 157.069 40.5735 158.045 40.7466 158.996C40.9198 159.948 41.2787 160.856 41.8028 161.668C42.3269 162.481 43.006 163.182 43.8012 163.732C44.5965 164.282 45.4923 164.67 46.4375 164.874C47.3828 165.078 48.3589 165.093 49.3101 164.92C50.2614 164.746 51.1691 164.387 51.9814 163.862C52.7938 163.338 53.4949 162.659 54.0446 161.863C55.8113 159.311 97.322 98.7802 97.3165 51.61C97.8378 38.5224 91.914 11.5747 65.7625 3.27865Z" fill="#2F2F2F"/>
</svg>
