<svg width="128" height="128" viewBox="0 0 128 128" fill="none" xmlns="http://www.w3.org/2000/svg">
<path d="M7.77573 71.7757C5.61603 69.616 4.53585 67.0241 4.5352 64C4.53585 60.9759 5.61603 58.384 7.77573 56.2243C9.60497 54.395 11.7631 53.3456 14.25 53.0761C16.7376 52.8072 19.0379 53.286 21.1509 54.5126L54.5127 21.1509C53.286 19.0379 52.8072 16.7376 53.0761 14.25C53.3456 11.763 54.395 9.60496 56.2243 7.77572C58.384 5.61601 60.9759 4.53583 64 4.53518C67.0241 4.53583 69.616 5.61601 71.7757 7.77572C73.605 9.60496 74.6544 11.763 74.9239 14.25C75.1928 16.7376 74.714 19.0379 73.4873 21.1509L106.849 54.5126C108.947 53.2711 111.246 52.7903 113.744 53.0702C116.242 53.3508 118.402 54.4022 120.224 56.2243C122.384 58.384 123.464 60.9759 123.465 64C123.464 67.0241 122.384 69.616 120.224 71.7757C118.402 73.5978 116.242 74.6492 113.744 74.9297C111.246 75.2097 108.947 74.7289 106.849 73.4873L73.4873 106.849C74.714 108.962 75.1928 111.262 74.9239 113.75C74.6544 116.237 73.605 118.395 71.7757 120.224C69.616 122.384 67.0241 123.464 64 123.465C60.9759 123.464 58.384 122.384 56.2243 120.224C54.395 118.395 53.3456 116.237 53.0761 113.75C52.8072 111.262 53.286 108.962 54.5127 106.849L21.1509 73.4873C19.0379 74.714 16.7376 75.1928 14.25 74.9239C11.7631 74.6543 9.60497 73.6049 7.77573 71.7757ZM60.1121 19.4393C61.2137 20.5409 62.5097 21.0916 64 21.0916C65.4903 21.0916 66.7863 20.5409 67.8879 19.4393C68.9894 18.3377 69.5402 17.0418 69.5402 15.5514C69.5402 14.0611 68.9894 12.7651 67.8879 11.6636C66.7863 10.562 65.4903 10.0112 64 10.0112C62.5097 10.0112 61.2137 10.562 60.1121 11.6636C59.0106 12.7651 58.4598 14.0611 58.4598 15.5514C58.4598 17.0418 59.0106 18.3377 60.1121 19.4393ZM108.561 67.8878C109.662 68.9894 110.958 69.5402 112.449 69.5402C113.939 69.5402 115.235 68.9894 116.336 67.8878C117.438 66.7863 117.989 65.4903 117.989 64C117.989 62.5096 117.438 61.2137 116.336 60.1121C115.235 59.0106 113.939 58.4598 112.449 58.4598C110.958 58.4598 109.662 59.0106 108.561 60.1121C107.459 61.2137 106.908 62.5096 106.908 64C106.908 65.4903 107.459 66.7863 108.561 67.8878ZM25.0388 69.5995L58.4005 102.961C60.1695 101.959 62.036 101.458 64 101.458C65.964 101.458 67.8305 101.959 69.5995 102.961L102.961 69.5995C101.91 67.8804 101.384 66.0139 101.384 64C101.384 61.9861 101.91 60.1196 102.961 58.4005L69.5995 25.0388C67.8305 26.0406 65.964 26.5418 64 26.5424C62.036 26.5418 60.1695 26.0406 58.4005 25.0388L25.0388 58.4005C26.0406 60.1695 26.5418 62.036 26.5424 64C26.5418 65.964 26.0406 67.8305 25.0388 69.5995ZM60.1121 116.336C61.2137 117.438 62.5096 117.989 64 117.989C65.4904 117.989 66.7863 117.438 67.8879 116.336C68.9894 115.235 69.5402 113.939 69.5402 112.449C69.5402 110.958 68.9894 109.662 67.8879 108.561C66.7863 107.459 65.4903 106.908 64 106.908C62.5097 106.908 61.2137 107.459 60.1121 108.561C59.0106 109.662 58.4598 110.958 58.4598 112.449C58.4598 113.939 59.0106 115.235 60.1121 116.336ZM11.6636 67.8878C12.7652 68.9894 14.0611 69.5402 15.5514 69.5402C17.0418 69.5402 18.3378 68.9894 19.4393 67.8878C20.5409 66.7863 21.0916 65.4903 21.0916 64C21.0916 62.5096 20.5409 61.2137 19.4393 60.1121C18.3377 59.0106 17.0418 58.4598 15.5514 58.4598C14.0611 58.4598 12.7651 59.0106 11.6636 60.1121C10.562 61.2137 10.0113 62.5096 10.0112 64C10.0112 65.4903 10.562 66.7863 11.6636 67.8878Z" fill="#6D30FB"/>
</svg>
